<svg width="512" height="512" viewBox="0 0 100 100" fill="none" xmlns="http://www.w3.org/2000/svg">
<path d="M76.3649 32.5467L76.1444 30.055L75.9239 27.5853C75.9239 26.9679 75.6813 26.3946 75.3065 25.9977C74.9316 25.6008 74.4244 25.3582 73.8732 25.3582H72.6604L71.4476 25.4023C70.8743 25.4023 70.3892 25.689 70.0364 26.0859C69.6835 26.5049 69.463 27.0782 69.463 27.6956L69.3307 30.1873L69.1764 32.657C69.1764 33.0098 67.3241 34.7959 65.979 35.1487C64.6339 35.5236 62.054 34.84 61.8555 34.5313L60.4222 32.5026L58.9889 30.474C58.6582 29.9447 58.1731 29.5699 57.6659 29.3935C57.1367 29.2391 56.5854 29.2832 56.1003 29.5699L55.0639 30.1873L54.0275 30.8047C53.5424 31.0914 53.2337 31.5545 53.1235 32.1057C53.0353 32.6349 53.1235 33.2524 53.4322 33.7816L54.5568 36.0087L55.6593 38.2358C55.8357 38.5445 55.0639 41.0583 54.0716 42.0506C53.0794 43.0429 50.5876 43.6824 50.2569 43.5059L48.0077 42.4696L45.7585 41.4332C45.2073 41.1245 44.5898 41.0583 44.0606 41.1686C43.5314 41.3009 43.0463 41.6096 42.7817 42.0947L42.2084 43.1531L41.613 44.1895C41.3484 44.6967 41.3263 45.248 41.5027 45.7772C41.6791 46.2843 42.076 46.7694 42.6053 47.0782L44.678 48.4453L46.7508 49.8125C47.0595 49.9889 47.6549 52.5247 47.3021 53.8698C46.9493 55.2149 45.0749 57.0892 44.7001 57.0892L42.2084 57.3097L39.7387 57.5522C39.1213 57.5522 38.57 57.7948 38.151 58.1697C37.7541 58.5445 37.5116 59.0517 37.5116 59.625V60.8378L37.5557 62.0506C37.5557 62.6019 37.8203 63.109 38.2392 63.4839C38.6582 63.8367 39.2315 64.0572 39.8489 64.0352L42.3407 64.1895L44.8324 64.3439C45.1852 64.3439 46.9713 66.1961 47.3241 67.5633C47.5887 68.5776 47.0154 71.4883 46.6847 71.6868L44.656 73.12L42.6273 74.5534C42.0981 74.8841 41.7232 75.3692 41.5689 75.8985C41.3925 76.4277 41.4366 76.9789 41.7232 77.464L42.3407 78.5004L42.9581 79.5368C43.2447 80.0219 43.7299 80.3307 44.2811 80.4189C44.8103 80.5291 45.4057 80.4189 45.957 80.1101L48.1841 78.9855L50.4112 77.883C50.7199 77.7066 53.2337 78.4784 54.226 79.4707C55.1301 80.3747 55.7475 82.5357 55.7034 83.1311C60.2679 80.4188 64.5898 77.3979 68.2062 74.3328C65.0749 73.2744 62.2745 71.2016 60.4443 68.1366C56.3429 61.2788 58.57 52.4144 65.4278 48.313C69.3969 45.9536 74.0055 45.7551 78.0187 47.2766V34.2447C77.1587 33.5831 76.4311 32.8113 76.4311 32.5688L76.3649 32.5467ZM41.4807 34.7738L45.4278 37.8169C46.3539 38.6548 47.721 38.6548 48.4708 37.8169L50.1025 36.0308C50.8522 35.1928 50.6979 33.8477 49.7717 33.0098L46.3318 29.3935C45.8026 28.9084 45.3396 27.5412 45.7144 26.8797C46.5744 25.3362 47.2359 23.7044 47.6769 22.0285C47.9415 20.9701 49.3969 19.8014 50.1907 19.7573L55.1301 19.1179C56.3649 19.0517 57.3351 18.1035 57.291 16.9789L57.1587 14.5754C57.1146 13.4508 56.0342 12.6129 54.7773 12.6791L49.8159 12.5468C49.6174 12.5468 49.3528 12.4586 49.0661 12.3042C45.0308 12.3042 41.4366 12.4144 38.2392 12.5908C39.7607 16.4718 39.1433 21.0583 36.1444 24.3659C32.2635 28.6658 25.9129 29.2612 21.2822 26.0418V36.3395C21.6791 36.4718 22.054 36.6041 22.4509 36.7143C23.4873 36.9789 24.6339 38.4343 24.678 39.2281L25.2955 44.1675C25.3616 45.4244 26.3318 46.3725 27.4344 46.3284L29.8379 46.1961C30.9625 46.13 31.8225 45.0715 31.7563 43.8367L31.8886 38.8532C31.8445 38.1476 32.5501 36.8246 33.3219 36.6041C35.0639 36.1189 36.7618 35.3913 38.3495 34.4211C39.1654 33.9139 40.8633 34.2446 41.4366 34.7738H41.4807Z" fill="url(#paint0_linear_621_259)"/>
<path d="M49.6395 0C27.1918 0 9 2.95477 9 6.59314V60C9 82.6461 49.6395 100 49.6395 100C49.6395 100 90.2789 82.6461 90.2789 60V6.59314C90.2789 2.95477 72.0871 0 49.6395 0ZM82.8919 60C82.8919 74.9724 54.0276 89.7244 50.742 91.3782L49.6395 91.9294L48.5369 91.4002C45.2514 89.7685 16.3649 75.0827 16.3649 60.022V10.3859L18.2834 9.9669C21.7453 9.19512 31.7343 7.40904 49.5954 7.40904C67.4564 7.40904 77.4454 9.19512 80.9074 9.9669L82.8258 10.3859V60.022L82.8919 60Z" fill="white"/>
<defs>
<linearGradient id="paint0_linear_621_259" x1="16.809" y1="83.1309" x2="72.9366" y2="15.3065" gradientUnits="userSpaceOnUse">
<stop stop-color="#2BAAE2"/>
<stop offset="0.453125" stop-color="#4496DF"/>
<stop offset="1" stop-color="#9B4FD6"/>
</linearGradient>
</defs>
</svg>
