<svg width="512" height="512" viewBox="0 0 100 100" fill="none" xmlns="http://www.w3.org/2000/svg">
<path d="M45.407 0L3 24.2672H87.8141L45.407 0ZM26.584 72.5372V42.1866H19.112V72.5372H26.584ZM42.4315 72.471V42.1205H34.9596V72.471H42.4315ZM79.2181 29.3808H10.0311V37.0731H79.2181V29.3808ZM10.0311 77.6507V85.343H44.9001C43.7319 82.9406 43.0046 80.3838 43.0046 77.6507H10.0311Z" fill="white"/>
<path d="M58.1688 52.0825V77.6061C58.1688 82.2568 66.2579 88.4503 74.0163 92.3736C81.9952 88.296 89.8639 82.0363 89.8639 77.6061V52.0825C87.5275 51.6637 82.3258 50.9364 74.0163 50.9364C65.7068 50.9364 60.5272 51.6637 58.1688 52.0825ZM74.0163 44.0596C61.475 44.0596 51.292 45.7127 51.292 47.7625V77.6281C51.292 90.3017 74.0163 99.9998 74.0163 99.9998C74.0163 99.9998 96.7407 90.3017 96.7407 77.6281V47.7625C96.7407 45.7127 86.5577 44.0596 74.0163 44.0596ZM92.619 77.6061C92.619 85.9817 76.4849 94.2251 74.6334 95.1508L74.0163 95.4594L73.3991 95.1508C71.5477 94.2471 55.4137 86.0258 55.4137 77.6061V49.8343L56.4937 49.5919C58.4333 49.1731 64.0097 48.1592 74.0163 48.1592C84.023 48.1592 89.5994 49.1511 91.539 49.5919L92.619 49.8343V77.6061Z" fill="url(#paint0_linear_621_762)"/>
<defs>
<linearGradient id="paint0_linear_621_762" x1="47.7088" y1="99.9997" x2="91.918" y2="45.8175" gradientUnits="userSpaceOnUse">
<stop stop-color="#2BAAE2"/>
<stop offset="0.453125" stop-color="#4496DF"/>
<stop offset="1" stop-color="#9B4FD6"/>
</linearGradient>
</defs>
</svg>
