<svg width="512" height="512" viewBox="0 0 100 100" fill="none" xmlns="http://www.w3.org/2000/svg">
<path d="M38.1462 17.7566V20.3783C46.4421 22.5506 51.929 26.6705 52.4346 31.6517C54.4384 31.9139 56.4983 32.0825 58.6331 32.0825C70.356 32.0825 79.1201 27.869 79.1201 24.1049V17.7566C74.813 20.9588 67.3972 22.9813 58.6331 22.9813C49.8691 22.9813 42.4533 20.9588 38.1462 17.7566ZM58.6331 18.9551C70.356 18.9551 79.1201 14.7416 79.1201 10.9775C79.1201 7.21349 70.356 3 58.6331 3C46.9102 3 38.1462 7.21349 38.1462 10.9775C38.1462 14.7416 46.9102 18.9551 58.6331 18.9551ZM72.1163 54.4983C73.8954 53.8054 75.7492 53.3559 77.6406 53.1125C78.5957 52.2136 79.1201 51.2586 79.1201 50.341V43.9926C75.2811 46.8578 68.9515 48.7679 61.4046 49.1425C65.3185 50.0788 68.9702 51.8765 72.0976 54.4983H72.1163ZM52.5095 35.6967V44.7604C54.4945 45.0226 56.5357 45.1911 58.6331 45.1911C70.356 45.1911 79.1201 40.9776 79.1201 37.2136V30.8652C74.813 34.0675 67.3972 36.09 58.6331 36.09C56.5357 36.09 54.4945 35.9214 52.5095 35.6967ZM0.0186878 39.5731V47.663C0.0186878 52.2136 9.9626 57.3073 24.251 57.3073C29.1012 57.3073 33.427 56.708 37.06 55.753C40.1124 52.7942 43.8391 50.6218 47.9777 49.4421C48.296 48.8428 48.4646 48.2623 48.4646 47.6818V39.5919C43.6144 43.5245 34.7941 46.0525 24.2323 46.0525C13.6705 46.0525 4.8502 43.5245 0 39.5919L0.0186878 39.5731ZM0.0186878 70.1912V78.2811C0.0186878 80.9777 3.53934 83.8616 9.36332 85.7717C9.11988 84.5545 8.98877 83.2998 8.98877 82.0264C8.98877 79.5358 9.49437 77.1575 10.3745 74.9852C6.08612 73.8616 2.52806 72.2137 0.0186878 70.1912ZM24.251 22.7379C9.98133 22.7379 0.0186878 27.8128 0.0186878 32.3821C0.0186878 36.9514 9.9626 42.0263 24.251 42.0263C38.5395 42.0263 48.4833 36.9514 48.4833 32.3821C48.4833 27.8128 38.5395 22.7379 24.251 22.7379ZM0.0186878 54.8915V62.9814C0.0186878 66.1275 4.73778 69.4983 12.3408 71.3148C15.749 66.3897 21.442 63.15 27.884 63.15C29.1387 63.15 30.3559 63.2623 31.5544 63.5058C32.0038 62.532 32.5282 61.5957 33.09 60.6968C30.3184 61.1088 27.3784 61.3522 24.2323 61.3522C13.6892 61.3522 4.8502 58.8241 0 54.8915H0.0186878Z" fill="#2C313B"/>
<path d="M78.3147 97.2135H80.1874C91.1238 97.2135 100 88.337 100 77.4007C100 66.4643 91.1238 57.5879 80.1874 57.5879C76.8915 57.5879 73.7829 58.4118 71.0488 59.8351C67.06 55.7714 61.4982 53.2433 55.3558 53.2433C45.4682 53.2433 37.0973 59.7789 34.3257 68.7677C32.5467 68.0186 30.618 67.6066 28.5768 67.6066C20.3932 67.6066 13.7639 74.2359 13.7639 82.4194C13.7639 90.603 20.3932 97.2322 28.5768 97.2322H78.3147V97.2135Z" fill="url(#paint0_linear_103_460)"/>
<defs>
<linearGradient id="paint0_linear_103_460" x1="6.96494" y1="97.2321" x2="28.5014" y2="33.5428" gradientUnits="userSpaceOnUse">
<stop stop-color="#2BAAE2"/>
<stop offset="0.453125" stop-color="#4496DF"/>
<stop offset="1" stop-color="#9B4FD6"/>
</linearGradient>
</defs>
</svg>
