<svg width="512" height="512" viewBox="0 0 100 100" fill="none" xmlns="http://www.w3.org/2000/svg">
<path d="M0 12.726V90.4158H24.4048V12.726H0ZM12.1914 80.0542C9.43565 80.0542 7.20899 77.8276 7.20899 75.0718C7.20899 72.3161 9.43565 70.0894 12.1914 70.0894C14.9471 70.0894 17.1738 72.3161 17.1738 75.0718C17.1738 77.8276 14.9471 80.0542 12.1914 80.0542ZM20.2161 59.1106H4.16664V18.1492H20.2161V59.0885V59.1106ZM17.1076 21.2577H7.25313V56.0021H17.1076V21.2577ZM28.7919 12.726V90.4158H53.1968V12.726H28.7919ZM40.9834 80.0542C38.2276 80.0542 36.001 77.8276 36.001 75.0718C36.001 72.3161 38.2276 70.0894 40.9834 70.0894C43.7391 70.0894 45.9658 72.3161 45.9658 75.0718C45.9658 77.8276 43.7391 80.0542 40.9834 80.0542ZM49.0081 59.1106H32.9586V18.1492H49.0081V59.0885V59.1106ZM45.8996 21.2577H36.0451V56.0021H45.8996V21.2577Z" fill="white"/>
<path d="M55.2686 15.6799L76.5209 90.3935L99.9998 83.7136L78.7475 9L55.2686 15.6799ZM85.4274 77.0999C82.7818 77.8494 80.0262 76.3282 79.2766 73.6827C78.527 71.0372 80.0482 68.2815 82.6937 67.5319C85.3392 66.7824 88.095 68.3035 88.8446 70.949C89.5941 73.5946 88.0729 76.3503 85.4274 77.0999ZM87.4115 54.7453L71.9794 59.1324L60.78 19.7364L76.2122 15.3492L87.4115 54.7453ZM74.0738 19.1852L64.5941 21.8748L74.0959 55.2964L83.5756 52.6068L74.0738 19.1852Z" fill="url(#paint0_linear_621_195)"/>
<defs>
<linearGradient id="paint0_linear_621_195" x1="51.7419" y1="90.3934" x2="116.265" y2="36.9025" gradientUnits="userSpaceOnUse">
<stop stop-color="#2BAAE2"/>
<stop offset="0.453125" stop-color="#4496DF"/>
<stop offset="1" stop-color="#9B4FD6"/>
</linearGradient>
</defs>
</svg>
