<svg width="512" height="512" viewBox="0 0 100 100" fill="none" xmlns="http://www.w3.org/2000/svg">
<path d="M16.0935 96.8038C8.99472 96.8038 3.21876 91.0277 3.21876 83.9289C3.21876 83.0471 2.49115 82.3196 1.60931 82.3196C0.727473 82.3196 0 83.0471 0 83.9289C0 92.7914 7.20911 100 16.0716 100C16.9534 100 17.6809 99.2729 17.6809 98.3911C17.6809 97.5092 16.9534 96.7817 16.0716 96.7817L16.0935 96.8038ZM16.0935 90.8955C12.2575 90.8955 9.12706 87.7649 9.12706 83.9289C9.12706 83.0471 8.39958 82.3196 7.51775 82.3196C6.63591 82.3196 5.9083 83.0471 5.9083 83.9289C5.9083 89.5506 10.4718 94.1142 16.0935 94.1142C16.9754 94.1142 17.703 93.3867 17.703 92.5048C17.703 91.623 16.9754 90.8955 16.0935 90.8955Z" fill="url(#paint0_linear_105_524)"/>
<path d="M90.1456 67.1961L83.7522 60.8027L78.4834 66.0717L84.8766 72.4651L90.1456 67.1961ZM66.9312 59.0611L61.6623 64.3301L68.6729 71.3407L73.9419 66.0717L66.9312 59.0611ZM69.202 56.7904L76.2126 63.801L81.4816 58.532L74.471 51.5214L69.202 56.7904ZM92.4163 69.4668L87.1474 74.7358L94.7312 82.3196L100 77.0506L92.4163 69.4668ZM76.2346 68.3425L70.9656 73.6114L77.359 80.0048L82.6279 74.7358L76.2346 68.3425ZM79.6297 82.2535L87.2135 89.8373L92.4825 84.5683L84.8987 76.9845L79.6297 82.2535ZM33.9505 21.4948L39.2195 16.2258L32.8261 9.83251L27.5571 15.1015L33.9505 21.4948ZM20.0395 22.6412L26.4328 29.0345L31.7018 23.7656L25.3084 17.3722L20.0395 22.6412ZM30.5553 7.58381L22.9715 0L17.7027 5.26898L25.2865 12.8528L30.5553 7.58381ZM40.9611 33.0689L33.9505 26.0583L28.6815 31.3273L35.6921 38.3379L40.9611 33.0689ZM43.2318 30.7982L48.5008 25.5292L41.4902 18.5186L36.2212 23.7876L43.2318 30.7982ZM23.0157 15.1235L15.4319 7.53973L10.1628 12.8087L17.7467 20.3925L23.0157 15.1235ZM37.588 62.5664C29.5853 54.5858 21.5166 50.4632 17.0192 50.4632C15.7847 50.4632 14.8146 50.7718 14.1973 51.3891C11.64 53.9465 14.3957 62.3019 22.0898 71.2305L26.521 66.7992C27.4249 65.8954 28.6374 65.3883 29.9161 65.3883C30.7759 65.3883 31.6135 65.6308 32.3411 66.0717C31.9663 66.0938 31.6137 66.2481 31.3491 66.5127L18.0553 79.8064C16.7987 79.3875 15.3657 79.652 14.3516 80.6441C12.9407 82.055 12.9407 84.3699 14.3516 85.7808C15.7626 87.1917 18.0774 87.1917 19.4884 85.7808C20.5025 84.7667 20.745 83.3337 20.3261 82.0771L33.6198 68.7834C33.9064 68.4968 34.0387 68.1441 34.0607 67.7693C35.141 69.5991 34.8984 72.0241 33.3332 73.5894L28.9019 78.0206C32.6277 81.2393 36.4858 83.7746 40.0131 85.2958C44.0917 87.0595 47.3544 87.302 48.7433 85.9131C50.1322 84.5242 49.9118 81.2614 48.126 77.1829C46.0978 72.5091 42.3501 67.3283 37.5661 62.5444L37.588 62.5664ZM47.1119 68.9598L48.7874 67.2843C49.6472 66.4245 48.2142 61.8169 43.2538 56.8786C38.3155 51.9403 33.708 50.5073 32.8482 51.3671L31.1948 53.0205C34.0387 55.0047 36.9708 57.4297 39.8367 60.2957C42.6366 63.0955 45.0837 66.0276 47.1119 68.9598ZM37.7644 46.6272C35.4716 45.6351 33.5316 45.4367 32.8482 46.1201C32.4955 46.4729 32.3852 47.2004 32.4954 48.1263C35.9787 47.3106 41.3139 50.3971 45.5467 54.6078C49.7575 58.8407 52.8439 64.1758 52.0282 67.659C52.9542 67.7693 53.6816 67.659 54.0343 67.3063C55.4453 65.8954 53.3951 59.7004 46.9135 53.2189C43.9153 50.2207 40.6745 47.8838 37.7644 46.6051V46.6272ZM74.1182 26.0363C71.1199 23.038 67.8792 20.7012 64.9692 19.4225C62.6764 18.4304 60.7363 18.232 60.0528 18.9154L36.2212 42.7471C37.1251 42.9455 38.0511 43.2321 39.0652 43.673C42.328 45.106 45.9435 47.6854 49.2063 50.9482C53.1966 54.9385 56.5036 59.8989 57.4074 63.9553L81.261 40.1016C82.672 38.6907 80.5997 32.4957 74.1402 26.0142L74.1182 26.0363ZM81.3493 29.7841L84.3034 29.3211C84.3475 28.9023 84.2593 28.0865 83.7302 26.874C82.9145 24.9781 81.3051 22.7735 79.3431 20.8114C77.381 18.8493 75.1764 17.2399 73.2804 16.4242C72.0679 15.8951 71.2522 15.807 70.8333 15.851L70.3703 18.8272C72.3986 20.1941 74.4489 21.8475 76.389 23.7876C78.2408 25.6394 79.9604 27.7118 81.3493 29.8061V29.7841Z" fill="#2C313B"/>
<defs>
<linearGradient id="paint0_linear_105_524" x1="-1.39573" y1="100" x2="11.7351" y2="80.1677" gradientUnits="userSpaceOnUse">
<stop stop-color="#2BAAE2"/>
<stop offset="0.453125" stop-color="#4496DF"/>
<stop offset="1" stop-color="#9B4FD6"/>
</linearGradient>
</defs>
</svg>
