<svg width="100" height="100" viewBox="0 0 100 100" fill="none" xmlns="http://www.w3.org/2000/svg">
<path d="M99.978 50C99.978 77.6014 77.6063 100 49.989 100C22.3716 100 0 77.6235 0 50C0 22.3765 22.3937 0 50.011 0C77.6284 0 100 22.3765 100 50H99.978ZM25.6116 78.5494C34.8689 77.4471 47.5204 71.6049 59.4005 59.7222C71.2806 47.8395 77.1214 35.1852 78.2235 25.9259C72.5589 22.112 66.3654 21.5388 66.3654 21.5388C66.3654 21.5388 64.4699 24.2945 61.8691 29.5635C59.2241 34.9647 58.9156 37.3457 58.9156 37.3457L63.7646 41.5123C63.7646 41.5123 62.0013 45.5247 53.6037 53.9242C45.2061 62.3236 41.1946 64.0873 41.1946 64.0873L37.0289 59.2372C37.0289 59.2372 34.6264 59.5459 29.2484 62.1914C23.9806 64.7928 21.2255 66.6887 21.2255 66.6887C21.2255 66.6887 21.7985 72.8616 25.6116 78.5494Z" fill="white"/>
</svg>
