<svg width="512" height="512" viewBox="0 0 100 100" fill="none" xmlns="http://www.w3.org/2000/svg">
<path fill-rule="evenodd" clip-rule="evenodd" d="M34.2889 0C15.9029 0 1 14.9029 1 33.2889C1 68.0549 31.6655 99.977 34.2889 99.977C36.9124 99.977 67.5779 68.0549 67.5779 33.2889C67.5779 14.9029 52.675 0 34.2889 0ZM34.2889 58.8178C20.1797 58.8178 8.76011 47.3761 8.76011 33.2889C8.76011 19.2018 20.2018 7.76008 34.2889 7.76008C48.3761 7.76008 59.8178 19.2018 59.8178 33.2889C59.8178 47.3761 48.3761 58.8178 34.2889 58.8178ZM34.2449 39.3074C33.5394 39.3074 32.856 39.1972 32.1946 39.0429L31.7978 40.7404L34.0023 48.1918L36.2951 40.4538C36.2951 40.4538 36.3833 40.3435 36.4053 40.2994L36.1188 39.109C35.5015 39.2413 34.8842 39.3074 34.2449 39.3074ZM34.0905 28.02C32.3489 28.02 30.1884 27.2705 28.4248 26.6311C27.6752 27.7334 27.2564 29.0341 27.2123 30.3789C27.3666 34.1928 30.453 37.2572 34.2449 37.2572C38.0367 37.2572 41.1231 34.1928 41.2774 30.3789C41.2334 29.0121 40.7924 27.6673 39.9988 26.543C38.0367 27.2484 35.8542 28.02 34.0905 28.02ZM18.7027 44.3559C16.5201 41.2695 15.2415 37.4997 15.2415 33.4212C15.2415 22.9054 23.7731 14.3958 34.2669 14.3958C44.7606 14.3958 53.2923 22.9275 53.2923 33.4212C53.2923 37.5217 51.9695 41.3356 49.765 44.444C47.0974 43.6504 43.2174 42.4599 41.9829 42.1292C40.2192 41.6442 38.7422 41.2474 38.2792 41.1152L36.0306 48.3902H31.908L29.7475 41.027C29.2185 41.2474 27.6973 41.6883 25.8675 42.2174C24.5227 42.5922 20.7089 43.7606 18.6807 44.3559H18.7027ZM27.7414 24.2502L28.7996 24.625C30.6294 25.2643 32.6576 25.9918 34.0905 25.9918C35.5235 25.9918 37.5517 25.2643 39.1831 24.6911L40.4618 24.2502L41.101 24.6911C41.2333 24.8454 41.3436 25.0218 41.4538 25.1982C41.3215 23.7432 40.8585 22.5307 40.0649 21.6488C38.8744 20.3702 36.8903 19.7088 34.1346 19.7088C31.3789 19.7088 29.3948 20.3482 28.2043 21.6488C27.3666 22.5527 26.9037 23.8534 26.8155 25.4627C26.9698 25.2423 27.1241 24.9998 27.3005 24.7793L27.7414 24.2502Z" fill="#2C313B"/>
<path fill-rule="evenodd" clip-rule="evenodd" d="M74.9631 27.624C73.8829 27.624 72.8467 27.7343 71.8105 27.8886C72.0751 29.6743 72.2515 31.46 72.2515 33.3118C72.2515 34.1275 72.1633 34.9652 72.1192 35.803C73.0451 35.6487 73.9931 35.5384 74.9631 35.5384C83.9136 35.5384 91.1667 42.7914 91.1667 51.742C91.1667 60.6925 83.9136 67.9455 74.9631 67.9455C71.2594 67.9455 67.8644 66.6889 65.1528 64.5946C63.0805 69.4667 60.7437 74.1624 58.2305 78.4613C64.8883 91.1596 73.8167 99.9999 74.9851 99.9999C76.881 99.9999 99.0811 76.8961 99.0811 51.7199C99.0811 38.4044 88.3007 27.624 74.9851 27.624H74.9631ZM75.1394 40.2341C74.1033 40.2341 73.0892 40.4105 72.1413 40.653C71.9649 41.9978 71.7665 43.3205 71.524 44.6433C72.2956 43.9599 73.464 43.5851 75.0512 43.5851C76.7708 43.5851 78.0274 44.004 78.777 44.7976C79.284 45.3487 79.5707 46.1203 79.6588 47.0242C79.5707 46.914 79.5266 46.8037 79.4384 46.7156L79.0195 46.429L78.2258 46.7156C77.1897 47.0903 75.9111 47.5312 75.0292 47.5312C74.1474 47.5312 72.8467 47.0683 71.7003 46.6715L71.1713 46.4731C70.3115 50.5736 69.099 54.5638 67.666 58.3998C68.5699 58.1352 69.4517 57.8707 69.8926 57.7384C71.0389 57.4077 72.009 57.1432 72.3397 56.9888L73.7065 61.6184H76.3079L77.7188 57.0329C78.0054 57.1211 78.9313 57.3636 80.0556 57.6723C80.8272 57.8707 83.2743 58.6202 84.9498 59.1273C86.3387 57.1652 87.1764 54.7843 87.1764 52.1829C87.1764 45.5692 81.8193 40.1901 75.1836 40.1901L75.1394 40.2341ZM76.4181 56.6361L74.9631 61.5082L73.5742 56.8125L73.8167 55.7543C74.2356 55.8425 74.6544 55.9086 75.1174 55.9086C75.5142 55.9086 75.911 55.8645 76.3079 55.7763L76.4843 56.5259C76.4843 56.5259 76.4402 56.592 76.4181 56.6361ZM75.1174 54.6299C72.7364 54.6299 70.7965 52.6899 70.6862 50.2869C70.7083 49.4492 70.9729 48.6335 71.4579 47.9281C72.5601 48.3249 73.927 48.7879 75.0292 48.7879C76.1315 48.7879 77.4984 48.3029 78.755 47.8619C79.262 48.5674 79.5266 49.4051 79.5706 50.2869C79.4825 52.6899 77.5424 54.6299 75.1394 54.6299H75.1174Z" fill="url(#paint0_linear_105_1103)"/>
<defs>
<linearGradient id="paint0_linear_105_1103" x1="55.0098" y1="99.9998" x2="112.648" y2="50.9243" gradientUnits="userSpaceOnUse">
<stop stop-color="#2BAAE2"/>
<stop offset="0.453125" stop-color="#4496DF"/>
<stop offset="1" stop-color="#9B4FD6"/>
</linearGradient>
</defs>
</svg>
