<svg width="100" height="100" viewBox="0 0 100 100" fill="none" xmlns="http://www.w3.org/2000/svg">
<path d="M10.5201 54.204L9.15162 52.3565L7.15028 52.1L7.93707 54.6145L10.5372 54.1869L10.5201 54.204ZM83.2877 77.4164L83.9891 71.8913L86.7944 68.5899L90.0273 65.4595L89.3603 60.8752L91.9603 59.4383L91.8919 66.6911L100 73.1229L99.025 68.3162L94.6459 59.3357L97.1946 54.3579L93.6709 50.4749L93.7565 45.2064L92.3196 41.4602L85.118 46.7801L79.131 52.7671L75.5217 54.1869C68.8163 68.1964 58.724 78.8704 54.2765 78.8704C50.4106 78.8704 42.2683 70.7794 35.8023 59.4554L31.2693 58.0356L26.3428 57.1119L25.1283 54.6316L27.6771 56.2053L31.3035 55.3158L30.0377 52.2368L28.5324 48.9012L20.6637 54.4264L17.465 53.9303L13.1543 56.0343L11.3241 60.0028L8.89499 64.4845L9.51087 70.1636L4.24229 71.5321L1.19742 66.0069L0 69.3596L2.68561 71.4123L3.42114 74.4229L6.36338 83.01L8.17658 83.7113L9.47663 79.948L13.1202 79.4349L14.1807 74.6282L18.6624 75.0729L19.9796 78.1691L24.906 81.4705L27.3007 77.827L33.7668 79.3151L33.5444 81.9836L35.5971 82.8389L38.4366 83.7113L39.2747 88.0562L41.0196 88.7917L45.3986 92.0418L49.2474 90.7589L53.3186 92.0589L53.7803 89.2878L55.4225 88.1075L58.9463 91.3233L61.4438 91.0839L66.0623 92.2471L70.4584 90.2286L73.4178 89.3049L73.5375 84.7719L76.9073 83.9679L80.6535 87.3719L82.2614 87.3377L84.3312 88.5865L86.5207 86.4824L87.0338 89.3391L85.2891 93.0339L88.2141 93.7695C88.2141 93.7695 90.4893 90.2457 90.6432 89.4246C90.7972 88.6207 90.8826 82.8902 90.8826 82.8902L87.2562 77.0914L83.2707 77.4164H83.2877ZM96.3736 81.9666L90.5919 77.9467L88.5905 75.244L88.4879 77.8098L95.8262 87.2009L96.6644 85.5074L93.7051 82.2231L96.3565 82.0008L96.3736 81.9666Z" fill="#2C313B"/>
<path fill-rule="evenodd" clip-rule="evenodd" d="M54.2939 6C66.7126 6 76.7878 16.0752 76.7878 28.494C76.7878 51.9801 56.0557 73.5675 54.2939 73.5675C52.532 73.5675 31.7998 51.9972 31.7998 28.494C31.7998 16.0752 41.8751 6 54.2939 6ZM54.2939 13.3726C45.9463 13.3726 39.1724 20.1464 39.1724 28.494C39.1724 36.8416 45.9463 43.6154 54.2939 43.6154C62.6414 43.6154 69.4152 36.8416 69.4152 28.494C69.4152 20.1464 62.6414 13.3726 54.2939 13.3726Z" fill="url(#paint0_linear_105_559)"/>
<defs>
<linearGradient id="paint0_linear_105_559" x1="28.2529" y1="73.5674" x2="82.7592" y2="18.8215" gradientUnits="userSpaceOnUse">
<stop stop-color="#2BAAE2"/>
<stop offset="0.453125" stop-color="#4496DF"/>
<stop offset="1" stop-color="#9B4FD6"/>
</linearGradient>
</defs>
</svg>
