<?xml version="1.0" encoding="UTF-8"?><svg xmlns="http://www.w3.org/2000/svg" xmlns:xlink="http://www.w3.org/1999/xlink" viewBox="0 0 850.39 303.31"><defs><style>.cls-1{clip-path:url(#clippath);}.cls-2{fill:none;}.cls-2,.cls-3,.cls-4,.cls-5,.cls-6,.cls-7,.cls-8,.cls-9,.cls-10,.cls-11,.cls-12,.cls-13,.cls-14,.cls-15,.cls-16,.cls-17,.cls-18{stroke-width:0px;}.cls-3{fill:#94c11c;}.cls-19{mask:url(#mask);}.cls-4{fill:url(#linear-gradient);}.cls-5{fill:url(#radial-gradient);}.cls-6{fill:#9da1bd;}.cls-7{fill:#9e64d1;}.cls-8{fill:#a2c14f;}.cls-9{fill:url(#radial-gradient-2);}.cls-10{fill:url(#radial-gradient-3);}.cls-11{fill:#b657ff;}.cls-12{fill:#0081cc;}.cls-13{fill:#dfb5ff;}.cls-14{fill:#863dc6;}.cls-15{fill:#b7e8fd;}.cls-16{fill:#0bbafa;}.cls-17{fill:#f9b232;}.cls-20{mask:url(#mask-1);}.cls-18{fill:#a4897a;}</style><radialGradient id="radial-gradient" cx="466.53" cy="626.51" fx="466.53" fy="626.51" r="202.02" gradientTransform="translate(-264.46 -307.72) scale(1.24 .74)" gradientUnits="userSpaceOnUse"><stop offset="0" stop-color="#1a1a18"/><stop offset=".17" stop-color="#121211"/><stop offset=".61" stop-color="#040404"/><stop offset="1" stop-color="#000"/></radialGradient><mask id="mask" x="62.9" y="5.67" width="500.04" height="298.29" maskUnits="userSpaceOnUse"><ellipse class="cls-5" cx="312.92" cy="154.81" rx="250.02" ry="149.14"/></mask><radialGradient id="radial-gradient-2" cx="643.52" cy="626.51" fx="643.52" fy="626.51" r="202.02" gradientTransform="translate(-263.96 -307.72) scale(1.26 .74)" gradientUnits="userSpaceOnUse"><stop offset="0" stop-color="#2b2b2b"/><stop offset=".02" stop-color="#292929"/><stop offset=".38" stop-color="#121212"/><stop offset=".71" stop-color="#040404"/><stop offset="1" stop-color="#000"/></radialGradient><mask id="mask-1" x="290.39" y="5.67" width="507.32" height="298.29" maskUnits="userSpaceOnUse"><ellipse class="cls-9" cx="544.05" cy="154.81" rx="253.66" ry="149.14"/></mask><clipPath id="clippath"><path class="cls-2" d="M315.66,111.15C337.99,40.58,413.57,1.34,484.14,23.67c70.57,22.33,109.82,97.91,87.48,168.49-22.33,70.57-97.91,109.82-168.49,87.48-70.57-22.33-109.82-97.91-87.48-168.48ZM523.96,177.07c14.01-44.29-10.61-91.72-54.9-105.73s-91.72,10.61-105.73,54.9,10.61,91.72,54.9,105.73c44.29,14.01,91.72-10.61,105.73-54.9Z"/></clipPath><radialGradient id="radial-gradient-3" cx="324.3" cy="38.84" fx="324.3" fy="38.84" r="57.66" gradientTransform="translate(717.48 -200.29) rotate(107.56)" gradientUnits="userSpaceOnUse"><stop offset="0" stop-color="#b8c5ff"/><stop offset=".45" stop-color="#b7d2fe"/><stop offset="1" stop-color="#b7e8fd"/></radialGradient><linearGradient id="linear-gradient" x1="4.27" y1="151.94" x2="197.26" y2="151.94" gradientUnits="userSpaceOnUse"><stop offset="0" stop-color="#0bbafa"/><stop offset="1" stop-color="#b15cf9"/></linearGradient></defs><g id="Layer_3"><g class="cls-19"><ellipse class="cls-11" cx="312.92" cy="154.81" rx="250.02" ry="149.14"/></g><g class="cls-20"><ellipse class="cls-3" cx="544.05" cy="154.81" rx="253.66" ry="149.14"/></g></g><g id="Layer_1"><g class="cls-1"><path class="cls-18" d="M585.5,165.31c.03-.33.07-.65.1-.97.17-1.57.33-3.07.44-4.66l-93.29-4.08,92.75,9.71Z"/><path class="cls-8" d="M468.51,149.8l106.51-2.68,9.77-.25c-.16-5-.51-9.09-1.16-13.79l-29.3,4.25-85.83,12.46Z"/><path class="cls-8" d="M466.82,147.01l116.37-16.89c-.8-5.08-1.75-9.63-3.03-14.41l-8.57,2.37-104.77,28.94Z"/><path class="cls-18" d="M586.08,156.68c-.11-1.13-.34-2.35-.57-3.54-.21-1.08-.43-2.19-.55-3.27l-98.01,2.46,99.14,4.34Z"/><path class="cls-18" d="M582.49,182.47c.22-.81.46-1.56.69-2.3.31-.98.6-1.93.85-2.93l-90.88-15.36,89.35,20.6Z"/><path class="cls-18" d="M579.85,189.71c.3-.78.62-1.45.92-2.11.35-.75.67-1.44.94-2.23l-84.57-19.5,82.71,23.84Z"/><path class="cls-18" d="M584.56,174.28c.27-1.92.45-3.81.63-5.79l.02-.19-94.73-9.92,94.08,15.9Z"/><path class="cls-11" d="M320.77,81.28c-17.46,30.27-23.35,65.3-16.56,98.81,6.78,33.51,25.82,63.5,53.68,84.6l83.29-112.32-120.41-71.1Z"/><path class="cls-17" d="M502.79,170.62l13.85,4.72,61.5,18.82c.1-.24.21-.51.34-.83.1-.24.22-.53.34-.81l-38.67-11.14-37.35-10.77Z"/><path class="cls-16" d="M508.24,277.98c32.88-16.93,57.3-45.65,68.88-80.98l-61.1-18.69-.31-.11-.75-.23-71.04-24.26-52.32,70.55-31.31,42.22c12.88,9.38,25.04,15.5,40.39,20.36,36.08,11.42,74.28,8.27,107.55-8.87Z"/><path class="cls-14" d="M444.74,148.8l105.35-89.79c-29.24-33.7-66.65-50.02-111.24-48.51l5.64,132.38.25,5.91Z"/><path class="cls-10" d="M570.51,89.8c-4.93-10.08-11.28-19.88-18.47-28.5l-99.02,84.39,117.48-55.89Z"/><path class="cls-13" d="M482.48,139.58l96.89-26.76c-2.15-7.57-4.24-13.18-7.57-20.31l-112.29,53.42,22.98-6.35Z"/><path class="cls-12" d="M441.76,149.24l-5.1-119.72-.8-18.88c-47.65,2.5-88.89,27.22-113.56,68.07l115.07,67.95,4.39,2.59Z"/></g><path class="cls-16" d="M543.88,263.99l1.62-2.08c1.01,1.05,2.61,1.67,4.04,1.67,1.78,0,2.76-.77,2.76-1.87,0-1.16-.9-1.69-2.94-1.69-.61,0-1.6.02-1.82.04v-2.81c.26.02,1.27.02,1.82.02,1.62,0,2.7-.48,2.7-1.56,0-1.16-1.18-1.73-2.72-1.73-1.4,0-2.68.53-3.71,1.51l-1.56-1.95c1.19-1.34,3.03-2.33,5.6-2.33,3.42,0,5.53,1.54,5.53,3.97,0,1.84-1.58,3.05-3.2,3.34,1.49.15,3.42,1.32,3.42,3.51,0,2.52-2.26,4.3-5.77,4.3-2.7,0-4.7-1.03-5.77-2.35Z"/><path class="cls-16" d="M560.77,266.07v-10.62l-2.44,2.48-1.78-1.87,4.61-4.63h2.72v14.64h-3.12Z"/><path class="cls-16" d="M565.68,259.37c0-1.24.88-2.21,2.23-2.21s2.24.97,2.24,2.21-.88,2.16-2.24,2.16-2.23-.94-2.23-2.16ZM568.94,259.37c0-.74-.43-1.17-1.04-1.17s-1.04.43-1.04,1.17c0,.68.45,1.13,1.04,1.13s1.04-.45,1.04-1.13ZM567.05,266.07l5.61-8.78h1l-5.62,8.78h-.99ZM570.51,264.06c0-1.24.88-2.21,2.23-2.21s2.24.97,2.24,2.21-.9,2.17-2.24,2.17-2.23-.95-2.23-2.17ZM573.79,264.06c0-.72-.45-1.17-1.05-1.17s-1.04.45-1.04,1.17.43,1.15,1.04,1.15,1.05-.43,1.05-1.15Z"/><path class="cls-11" d="M279.77,220.85v-2.44c5.99-4.43,7.75-5.95,7.75-7.75,0-1.27-1.16-1.91-2.37-1.91-1.67,0-2.94.66-3.93,1.69l-1.78-2.06c1.43-1.65,3.6-2.39,5.64-2.39,3.12,0,5.6,1.76,5.6,4.67,0,2.5-2.06,4.67-5.86,7.44h5.97v2.74h-11.02Z"/><path class="cls-11" d="M299.45,220.85v-3.03h-7v-2.46l5.81-9.15h4.3v8.86h1.89v2.74h-1.89v3.03h-3.12ZM299.45,208.97l-3.95,6.1h3.95v-6.1Z"/><path class="cls-11" d="M305.34,214.14c0-1.24.88-2.21,2.23-2.21s2.24.97,2.24,2.21-.88,2.16-2.24,2.16-2.23-.94-2.23-2.16ZM308.61,214.14c0-.74-.43-1.17-1.04-1.17s-1.04.43-1.04,1.17c0,.68.45,1.13,1.04,1.13s1.04-.45,1.04-1.13ZM306.71,220.85l5.61-8.78h1l-5.62,8.78h-.99ZM310.17,218.83c0-1.24.88-2.21,2.23-2.21s2.24.97,2.24,2.21-.9,2.17-2.24,2.17-2.23-.95-2.23-2.17ZM313.45,218.83c0-.72-.45-1.17-1.05-1.17s-1.04.45-1.04,1.17.43,1.15,1.04,1.15,1.05-.43,1.05-1.15Z"/><path class="cls-12" d="M325.09,43.93v-10.62l-2.44,2.48-1.78-1.87,4.61-4.63h2.72v14.63h-3.12Z"/><path class="cls-12" d="M330.4,36.65c0-4.43,2.5-7.57,6.82-7.57,1.78,0,3.27.61,4.32,1.51l-1.4,2.39c-.79-.75-1.62-1.14-2.92-1.14-2.15,0-3.66,1.82-3.66,4.15,0,.11,0,.2.02.31.68-.99,2.15-1.89,3.75-1.89,2.63,0,4.98,1.65,4.98,4.76,0,2.85-2.26,5.02-5.6,5.02-4.45,0-6.32-3.42-6.32-7.55ZM339.16,39.28c0-1.54-1.32-2.19-2.72-2.19-1.1,0-2.15.5-2.85,1.38.13,1.4.92,2.96,2.96,2.96,1.69,0,2.61-1.12,2.61-2.15Z"/><path class="cls-12" d="M343.34,37.23c0-1.24.88-2.21,2.23-2.21s2.24.97,2.24,2.21-.88,2.16-2.24,2.16-2.23-.93-2.23-2.16ZM346.6,37.23c0-.74-.43-1.17-1.04-1.17s-1.04.43-1.04,1.17c0,.68.45,1.13,1.04,1.13s1.04-.45,1.04-1.13ZM344.71,43.93l5.61-8.78h1l-5.62,8.78h-.99ZM348.17,41.92c0-1.24.88-2.21,2.23-2.21s2.24.97,2.24,2.21-.9,2.17-2.24,2.17-2.23-.95-2.23-2.17ZM351.45,41.92c0-.72-.45-1.17-1.05-1.17s-1.04.45-1.04,1.17.43,1.15,1.04,1.15,1.05-.43,1.05-1.15Z"/><path class="cls-7" d="M515.97,28.64v-10.62l-2.44,2.48-1.78-1.87,4.61-4.63h2.72v14.63h-3.12Z"/><path class="cls-7" d="M521.61,26.71l1.73-2.17c.99,1.03,2.35,1.6,3.88,1.6,1.73,0,2.72-.99,2.72-2.17,0-1.29-.97-2.17-2.63-2.17-1.21,0-2.19.35-3.07,1.18l-2.17-.57v-8.4h10.05v2.74h-6.93v3.58c.7-.7,1.89-1.23,3.23-1.23,2.48,0,4.7,1.78,4.7,4.74,0,3.12-2.33,5.07-5.86,5.07-2.55,0-4.39-.83-5.64-2.19Z"/><path class="cls-7" d="M534.21,21.93c0-1.24.88-2.21,2.23-2.21s2.24.97,2.24,2.21-.88,2.16-2.24,2.16-2.23-.93-2.23-2.16ZM537.48,21.93c0-.74-.43-1.17-1.04-1.17s-1.04.43-1.04,1.17c0,.68.45,1.13,1.04,1.13s1.04-.45,1.04-1.13ZM535.58,28.64l5.61-8.78h1l-5.62,8.78h-.99ZM539.05,26.62c0-1.24.88-2.21,2.23-2.21s2.24.97,2.24,2.21-.9,2.17-2.24,2.17-2.23-.95-2.23-2.17ZM542.33,26.62c0-.72-.45-1.17-1.05-1.17s-1.04.45-1.04,1.17.43,1.15,1.04,1.15,1.05-.43,1.05-1.15Z"/><path class="cls-15" d="M572.37,76.14v-3.03h-7v-2.46l5.81-9.15h4.3v8.86h1.89v2.74h-1.89v3.03h-3.12ZM572.37,64.27l-3.95,6.1h3.95v-6.1Z"/><path class="cls-15" d="M578.26,69.44c0-1.24.88-2.21,2.23-2.21s2.24.97,2.24,2.21-.88,2.16-2.24,2.16-2.23-.94-2.23-2.16ZM581.53,69.44c0-.74-.43-1.17-1.04-1.17s-1.04.43-1.04,1.17c0,.68.45,1.13,1.04,1.13s1.04-.45,1.04-1.13ZM579.63,76.14l5.61-8.78h1l-5.62,8.78h-.99ZM583.09,74.13c0-1.24.88-2.21,2.23-2.21s2.24.97,2.24,2.21-.9,2.17-2.24,2.17-2.23-.95-2.23-2.17ZM586.37,74.13c0-.72-.45-1.17-1.05-1.17s-1.04.45-1.04,1.17.43,1.15,1.04,1.15,1.05-.43,1.05-1.15Z"/><path class="cls-13" d="M580.08,106.46l1.62-2.08c1.01,1.05,2.61,1.67,4.04,1.67,1.78,0,2.76-.77,2.76-1.87,0-1.16-.9-1.69-2.94-1.69-.61,0-1.6.02-1.82.04v-2.81c.26.02,1.27.02,1.82.02,1.62,0,2.7-.48,2.7-1.56,0-1.16-1.18-1.73-2.72-1.73-1.4,0-2.68.53-3.71,1.51l-1.56-1.95c1.19-1.34,3.03-2.33,5.6-2.33,3.42,0,5.53,1.54,5.53,3.97,0,1.84-1.58,3.05-3.2,3.33,1.49.15,3.42,1.32,3.42,3.51,0,2.52-2.26,4.3-5.77,4.3-2.7,0-4.7-1.03-5.77-2.35Z"/><path class="cls-13" d="M592.86,101.84c0-1.24.88-2.21,2.23-2.21s2.24.97,2.24,2.21-.88,2.16-2.24,2.16-2.23-.93-2.23-2.16ZM596.13,101.84c0-.74-.43-1.17-1.04-1.17s-1.04.43-1.04,1.17c0,.68.45,1.13,1.04,1.13s1.04-.45,1.04-1.13ZM594.23,108.54l5.61-8.78h1l-5.62,8.78h-.99ZM597.69,106.53c0-1.24.88-2.21,2.23-2.21s2.24.97,2.24,2.21-.9,2.17-2.24,2.17-2.23-.95-2.23-2.17ZM600.97,106.53c0-.72-.45-1.17-1.05-1.17s-1.04.45-1.04,1.17.43,1.15,1.04,1.15,1.05-.43,1.05-1.15Z"/><path class="cls-8" d="M598.57,135.37v-2.44c5.99-4.43,7.75-5.95,7.75-7.75,0-1.27-1.16-1.91-2.37-1.91-1.67,0-2.94.66-3.93,1.69l-1.78-2.06c1.43-1.65,3.6-2.39,5.64-2.39,3.12,0,5.6,1.75,5.6,4.67,0,2.5-2.06,4.67-5.86,7.44h5.97v2.74h-11.02Z"/><path class="cls-8" d="M611.04,128.67c0-1.24.88-2.21,2.23-2.21s2.24.97,2.24,2.21-.88,2.16-2.24,2.16-2.23-.93-2.23-2.16ZM614.31,128.67c0-.74-.43-1.17-1.04-1.17s-1.04.43-1.04,1.17c0,.68.45,1.13,1.04,1.13s1.04-.45,1.04-1.13ZM612.41,135.37l5.61-8.78h1l-5.62,8.78h-.99ZM615.87,133.36c0-1.24.88-2.21,2.23-2.21s2.24.97,2.24,2.21-.9,2.17-2.24,2.17-2.23-.95-2.23-2.17ZM619.15,133.36c0-.72-.45-1.17-1.05-1.17s-1.04.45-1.04,1.17.43,1.15,1.04,1.15,1.05-.43,1.05-1.15Z"/><path class="cls-18" d="M602.27,179.33v-10.62l-2.44,2.48-1.78-1.87,4.61-4.63h2.72v14.63h-3.12Z"/><path class="cls-18" d="M607.18,172.62c0-1.24.88-2.21,2.23-2.21s2.24.97,2.24,2.21-.88,2.16-2.24,2.16-2.23-.93-2.23-2.16ZM610.44,172.62c0-.74-.43-1.17-1.04-1.17s-1.04.43-1.04,1.17c0,.68.45,1.13,1.04,1.13s1.04-.45,1.04-1.13ZM608.55,179.33l5.61-8.78h1l-5.62,8.78h-.99ZM612.01,177.31c0-1.24.88-2.21,2.23-2.21s2.24.97,2.24,2.21-.9,2.17-2.24,2.17-2.23-.95-2.23-2.17ZM615.29,177.31c0-.72-.45-1.17-1.05-1.17s-1.04.45-1.04,1.17.43,1.15,1.04,1.15,1.05-.43,1.05-1.15Z"/><path class="cls-17" d="M576.73,201.29c0-2.12,1.05-4.24,3.4-4.24s3.4,2.12,3.4,4.24-1.06,4.25-3.4,4.25-3.4-2.13-3.4-4.25ZM581.75,201.29c0-1.52-.44-2.69-1.62-2.69s-1.63,1.17-1.63,2.69.44,2.7,1.63,2.7,1.62-1.18,1.62-2.7Z"/><path class="cls-17" d="M585.08,207.08l-.68-.56c.39-.21.85-.73.95-1.16-.04.01-.15.04-.23.04-.47,0-.84-.36-.84-.89s.44-.99.96-.99c.58,0,1.11.46,1.11,1.26,0,.92-.52,1.75-1.27,2.29Z"/><path class="cls-17" d="M587.43,205.4v-1.37c3.37-2.49,4.35-3.34,4.35-4.35,0-.71-.65-1.07-1.33-1.07-.94,0-1.65.37-2.21.95l-1-1.16c.8-.92,2.02-1.34,3.17-1.34,1.75,0,3.14.99,3.14,2.63,0,1.41-1.16,2.63-3.29,4.18h3.35v1.54h-6.19Z"/><path class="cls-17" d="M594.44,201.63c0-.7.5-1.24,1.25-1.24s1.26.55,1.26,1.24-.5,1.21-1.26,1.21-1.25-.53-1.25-1.21ZM596.28,201.63c0-.42-.24-.66-.58-.66s-.58.24-.58.66c0,.38.25.64.58.64s.58-.25.58-.64ZM595.21,205.4l3.15-4.94h.56l-3.16,4.94h-.56ZM597.16,204.26c0-.7.5-1.24,1.25-1.24s1.26.55,1.26,1.24-.5,1.22-1.26,1.22-1.25-.53-1.25-1.22ZM599,204.26c0-.41-.25-.66-.59-.66s-.58.25-.58.66.24.64.58.64.59-.24.59-.64Z"/><path class="cls-4" d="M13.68,143.72l-4.2-6.02-1.08,1.34v4.68h-4.13v-16.01h4.13v6.58l4.92-6.58h5.09l-6.22,7.49,6.55,8.52h-5.06Z"/><path class="cls-4" d="M26.43,143.72v-1.15c-.72.86-2.11,1.44-3.6,1.44-1.78,0-3.98-1.2-3.98-3.82,0-2.81,2.21-3.72,3.98-3.72,1.54,0,2.9.48,3.6,1.34v-1.39c0-1.01-.86-1.68-2.35-1.68-1.15,0-2.35.43-3.29,1.22l-1.32-2.33c1.49-1.27,3.48-1.8,5.26-1.8,2.78,0,5.4,1.03,5.4,4.63v7.25h-3.7ZM26.43,140.74v-1.03c-.38-.53-1.25-.82-2.06-.82-.98,0-1.85.43-1.85,1.34s.86,1.34,1.85,1.34c.82,0,1.68-.29,2.06-.84Z"/><path class="cls-4" d="M40.16,143.72l-2.54-4.1-1.1,1.32v2.78h-3.7v-11.59h3.7v4.63l3.53-4.63h4.46l-4.27,5.28,4.49,6.31h-4.56Z"/><path class="cls-4" d="M45.91,143.72v-11.59h3.7v6.07l4.13-6.07h3.72v11.59h-3.7v-6.38l-4.32,6.38h-3.53Z"/><path class="cls-4" d="M71.07,143.72v-6.94l-2.66,6.94h-1.9l-2.66-6.94v6.94h-3.7v-11.59h4.87l2.42,6.26,2.42-6.26h4.87v11.59h-3.67Z"/><path class="cls-4" d="M77.43,143.72v-11.59h3.7v6.07l4.13-6.07h3.72v11.59h-3.7v-6.38l-4.32,6.38h-3.53Z"/><path class="cls-4" d="M97.08,135.73c0-4.95,3.74-8.28,8.66-8.28,3.86,0,5.93,2.18,6.98,4.3l-3.55,1.68c-.53-1.27-1.9-2.33-3.43-2.33-2.62,0-4.46,2.02-4.46,4.63s1.85,4.63,4.46,4.63c1.54,0,2.9-1.06,3.43-2.33l3.55,1.68c-1.03,2.06-3.12,4.3-6.98,4.3-4.92,0-8.66-3.36-8.66-8.28Z"/><path class="cls-4" d="M112.92,142.78l1.63-3.22c.55.41,1.27.79,2.06.79,1.03,0,1.49-.38,1.97-1.2l-5.78-11.45h4.66l3.46,7.49,3.48-7.49h4.66l-6.5,12.87c-1.01,1.97-2.62,3.43-5.57,3.43-1.54,0-3.07-.43-4.06-1.22Z"/><path class="cls-4" d="M142.73,127.71v3.6h-8.38v2.06h4.03c3.53,0,5.42,2.35,5.42,5.16s-1.9,5.18-5.42,5.18h-8.16v-16.01h12.51ZM134.35,136.98v3.14h3.53c.98,0,1.73-.58,1.73-1.58s-.74-1.56-1.73-1.56h-3.53Z"/><path class="cls-4" d="M144.77,140.36c1.54-.24,2.45-.89,2.9-4.54l.96-8.11h11.93v12.41h1.44v6.55h-4.15v-2.95h-8.95v2.95h-4.13v-6.31ZM150.02,140.12h6.41v-8.81h-4.08l-.58,4.83c-.22,1.8-.84,3.07-1.75,3.98Z"/><path class="cls-4" d="M4.27,171.72v-16.01h9.07c3.17,0,4.68,2.06,4.68,4.08s-1.22,3.34-2.74,3.67c1.7.26,3.05,1.9,3.05,3.91,0,2.33-1.56,4.34-4.7,4.34H4.27ZM13.83,160.51c0-.77-.58-1.32-1.42-1.32h-4.01v2.66h4.01c.84,0,1.42-.55,1.42-1.34ZM14.14,166.8c0-.79-.58-1.44-1.58-1.44h-4.15v2.88h4.15c.98,0,1.58-.58,1.58-1.44Z"/><path class="cls-4" d="M24.19,160.13v3.72h3.82c2.81,0,4.22,1.8,4.22,3.94s-1.54,3.94-4.22,3.94h-7.51v-11.59h3.7ZM24.19,166.82v1.92h3.17c.7,0,1.13-.41,1.13-.96s-.43-.96-1.13-.96h-3.17ZM33.48,171.72v-11.59h3.7v11.59h-3.7Z"/><path class="cls-4" d="M53.86,171.72v-8.38h-4.15v8.38h-3.7v-11.59h11.54v11.59h-3.7Z"/><path class="cls-4" d="M59.47,165.91c0-3.26,2.38-6.07,6.31-6.07s6.34,2.81,6.34,6.07-2.35,6.1-6.34,6.1-6.31-2.83-6.31-6.1ZM68.33,165.91c0-1.54-.91-2.81-2.54-2.81s-2.5,1.27-2.5,2.81.89,2.83,2.5,2.83,2.54-1.27,2.54-2.83Z"/><path class="cls-4" d="M73.15,168.98c.86,0,1.44-.77,1.78-3.29l.77-5.57h9.91v11.59h-3.7v-8.38h-3.02l-.36,2.83c-.48,3.79-1.97,5.83-5.38,5.83v-3.02Z"/><path class="cls-4" d="M91.99,160.13v3.72h3.82c2.81,0,4.22,1.8,4.22,3.94s-1.54,3.94-4.22,3.94h-7.51v-11.59h3.7ZM91.99,166.82v1.92h3.17c.7,0,1.13-.41,1.13-.96s-.43-.96-1.13-.96h-3.17Z"/><path class="cls-4" d="M100.78,170.16l1.66-2.18c1.08.82,2.62,1.2,3.82,1.2,1.32,0,1.92-.36,1.92-.91,0-.65-.72-1.01-2.09-1.01h-2.28v-2.76h2.28c1.42,0,1.87-.36,1.87-.96,0-.5-.74-.86-1.82-.86-1.42,0-2.57.43-3.43,1.25l-1.78-2.11c1.15-1.15,2.9-1.94,5.02-1.94,3.84-.02,5.81,1.25,5.83,3.22,0,1.34-1.39,2.42-3,2.69,1.44.1,3.22,1.06,3.22,2.74.02,2.06-2.21,3.48-5.74,3.5-2.42,0-4.34-.77-5.47-1.85Z"/><path class="cls-4" d="M114.19,172.94c.26.14.62.21.91.21.84,0,1.37-.17,1.56-.65l.26-.62-4.61-11.76h3.89l2.62,7.34,2.64-7.34h3.91l-5.23,13.25c-.94,2.45-2.69,3-4.9,3.05-.34,0-1.2-.07-1.58-.19l.53-3.29Z"/><path class="cls-4" d="M125.71,165.91c0-3.36,2.54-6.07,6.17-6.07,3.43,0,5.93,2.52,5.93,6.46v.79h-8.26c.22,1.08,1.22,2.06,2.9,2.06.82,0,2.23-.36,2.88-.98l1.56,2.3c-1.15,1.03-3.07,1.54-4.85,1.54-3.58,0-6.34-2.33-6.34-6.1ZM131.88,162.69c-1.61,0-2.23,1.15-2.38,1.99h4.78c-.1-.82-.7-1.99-2.4-1.99Z"/><path class="cls-4" d="M141.84,171.72v-8.38h-3.17v-3.22h10.01v3.22h-3.14v8.38h-3.7Z"/><path class="cls-4" d="M149.64,165.91c0-3.36,2.54-6.07,6.17-6.07,3.43,0,5.93,2.52,5.93,6.46v.79h-8.26c.22,1.08,1.22,2.06,2.9,2.06.82,0,2.23-.36,2.88-.98l1.56,2.3c-1.15,1.03-3.07,1.54-4.85,1.54-3.58,0-6.34-2.33-6.34-6.1ZM155.81,162.69c-1.61,0-2.23,1.15-2.38,1.99h4.78c-.1-.82-.7-1.99-2.4-1.99Z"/><path class="cls-4" d="M162.79,165.91c0-3.62,2.71-6.07,6.34-6.07,2.5,0,4.06,1.1,4.75,2.14l-2.4,2.23c-.46-.67-1.2-1.1-2.18-1.1-1.54,0-2.71,1.06-2.71,2.81s1.18,2.83,2.71,2.83c.98,0,1.73-.48,2.18-1.13l2.4,2.26c-.7,1.01-2.26,2.14-4.75,2.14-3.62,0-6.34-2.45-6.34-6.1Z"/><path class="cls-4" d="M179.26,160.13v3.72h3.82c2.81,0,4.22,1.8,4.22,3.94s-1.54,3.94-4.22,3.94h-7.51v-11.59h3.7ZM179.26,166.82v1.92h3.17c.7,0,1.13-.41,1.13-.96s-.43-.96-1.13-.96h-3.17Z"/><path class="cls-4" d="M189.96,164.38c0-2.71,3.12-3.12,3.12-4.32,0-.53-.38-.94-1.42-.94-.91,0-1.85.48-2.52,1.25l-2.3-2.64c1.32-1.49,3.31-2.26,5.28-2.26,3.17,0,5.14,1.54,5.14,3.84,0,3.43-3.72,3.7-3.72,5.5,0,.41.17.77.36.96l-3.19.82c-.46-.55-.74-1.3-.74-2.21ZM189.91,169.75c0-1.22,1.03-2.26,2.26-2.26s2.26,1.03,2.26,2.26-1.03,2.26-2.26,2.26-2.26-1.03-2.26-2.26Z"/><path class="cls-6" d="M743.25,23.91v-8h3.22c.4,0,.76.06,1.07.19s.57.3.79.52c.21.22.37.48.49.77.11.29.17.6.17.93s-.06.64-.17.93c-.11.29-.28.55-.49.77s-.48.39-.79.52-.66.19-1.06.19h-2.22v3.18h-1ZM746.35,19.84c.48,0,.87-.14,1.16-.42.29-.28.44-.65.44-1.1s-.15-.82-.44-1.1c-.29-.28-.68-.42-1.16-.42h-2.1v3.05h2.1Z"/><path class="cls-6" d="M752.64,24.06c-.44,0-.84-.08-1.19-.24s-.66-.38-.91-.65c-.25-.28-.44-.6-.57-.97-.13-.37-.2-.76-.2-1.19s.07-.81.2-1.18c.13-.37.32-.69.57-.97.25-.27.55-.49.91-.65.36-.16.75-.24,1.19-.24s.84.08,1.19.24c.36.16.66.38.91.65.25.27.44.59.57.97s.2.77.2,1.18-.07.82-.2,1.19-.32.69-.57.97c-.25.28-.55.49-.91.65s-.75.24-1.19.24ZM752.64,23.25c.31,0,.59-.06.82-.19s.44-.29.6-.49.29-.44.37-.71c.08-.27.13-.56.13-.85s-.04-.58-.13-.85c-.08-.27-.21-.5-.37-.71s-.36-.37-.6-.49c-.24-.12-.51-.19-.82-.19s-.59.06-.83.19c-.24.12-.44.29-.61.49s-.29.44-.37.71c-.08.27-.13.55-.13.85s.04.58.13.85c.08.27.21.51.37.71s.37.37.61.49.52.19.83.19Z"/><path class="cls-6" d="M758.81,24.06c-.48,0-.92-.07-1.31-.22-.39-.15-.74-.38-1.03-.69l.47-.65c.19.22.46.42.8.58.34.16.71.25,1.11.25.45,0,.79-.09,1.02-.28.23-.19.35-.43.35-.71,0-.23-.09-.41-.26-.53-.18-.12-.4-.23-.67-.31s-.56-.15-.86-.22c-.31-.07-.6-.16-.86-.29s-.49-.29-.67-.49-.26-.49-.26-.85c0-.22.05-.44.14-.64.1-.2.24-.38.42-.53.18-.15.41-.27.68-.36s.57-.13.92-.13c.5,0,.92.08,1.27.25s.64.36.88.59l-.42.62c-.18-.21-.41-.38-.71-.52-.3-.14-.64-.21-1.01-.21-.4,0-.71.09-.94.26-.23.18-.34.39-.34.65,0,.21.09.37.26.48.18.11.4.21.67.28.27.08.56.15.86.22.31.07.6.17.86.29s.49.3.67.52c.18.22.26.52.26.89,0,.24-.05.47-.14.68-.1.22-.24.4-.43.56-.19.16-.43.28-.71.37-.28.09-.61.14-.99.14Z"/><path class="cls-6" d="M764.01,24.06c-.43,0-.75-.12-.97-.35s-.32-.57-.32-1v-3.78h-.96v-.8h.96v-1.58h.9v1.58h1.18v.8h-1.18v3.59c0,.21.05.39.14.53s.24.21.44.21c.13,0,.25-.02.35-.07s.19-.1.26-.17l.26.67c-.11.11-.25.2-.43.27-.17.07-.39.1-.65.1Z"/><path class="cls-6" d="M768.41,26.26c-.5,0-.92-.06-1.28-.18-.36-.12-.71-.35-1.06-.68l.46-.67c.24.29.51.49.81.61.3.12.66.18,1.07.18.24,0,.47-.03.7-.09.22-.06.42-.16.59-.3.17-.14.31-.32.41-.54.1-.22.16-.49.16-.81v-.83c-.21.3-.48.54-.82.74-.34.2-.71.29-1.12.29-.38,0-.72-.07-1.04-.2s-.59-.33-.82-.59-.41-.57-.53-.94c-.13-.37-.19-.79-.19-1.26s.06-.88.19-1.25.3-.69.53-.95.5-.46.82-.6c.32-.14.67-.21,1.05-.21s.76.09,1.09.27.62.43.85.75v-.88h.9v5.63c0,.48-.08.88-.23,1.21-.16.32-.36.58-.62.77-.26.19-.55.33-.88.41s-.67.13-1.03.13ZM768.54,23.18c.18,0,.35-.03.53-.08.18-.05.34-.12.49-.21.15-.09.29-.19.41-.3.12-.11.22-.23.3-.36v-2.53c-.08-.13-.18-.25-.3-.36-.12-.11-.26-.21-.41-.29s-.32-.15-.49-.2c-.18-.05-.35-.08-.53-.08-.29,0-.55.05-.78.16-.23.11-.43.26-.59.46-.16.2-.28.43-.37.7s-.13.57-.13.89.04.61.13.88c.08.27.21.5.37.69.16.2.36.35.59.46.23.11.49.17.78.17Z"/><path class="cls-6" d="M772.97,23.91v-5.8h.9v.94c.23-.3.51-.56.84-.76.33-.2.69-.3,1.09-.3v.92c-.11-.02-.23-.04-.36-.04-.14,0-.28.03-.44.08-.16.05-.31.12-.46.21-.15.09-.28.19-.4.29-.12.11-.21.22-.28.34v4.1h-.9Z"/><path class="cls-6" d="M779.54,24.06c-.43,0-.83-.07-1.19-.22-.36-.15-.67-.36-.93-.62-.26-.27-.46-.59-.61-.96-.15-.37-.22-.79-.22-1.24,0-.42.07-.81.22-1.18.14-.37.34-.69.6-.97.25-.27.55-.49.9-.65.35-.16.73-.24,1.15-.24.44,0,.83.08,1.18.24.34.16.64.38.88.66.24.28.42.61.55.99.12.38.19.79.19,1.22v.23h-4.7c.02.27.08.53.18.77.1.24.25.46.43.64.18.18.39.32.64.43s.53.16.84.16c.34,0,.66-.06.97-.19s.58-.31.82-.54l.43.59c-.29.29-.62.51-1.01.66-.38.15-.82.23-1.3.23ZM781.34,20.65c0-.22-.04-.44-.11-.67-.08-.23-.19-.44-.35-.62-.16-.19-.35-.34-.59-.46-.24-.12-.52-.18-.85-.18s-.58.06-.82.18-.43.27-.58.46c-.16.18-.28.39-.36.62-.08.23-.13.45-.14.68h3.8Z"/><path class="cls-6" d="M786.31,24.06c-.7,0-1.31-.12-1.81-.35-.5-.24-.92-.54-1.26-.92l.59-.76c.13.14.28.29.46.43.18.14.37.26.58.37.21.1.44.19.69.25.25.06.51.1.79.1.36,0,.66-.04.9-.13.24-.09.43-.2.58-.33s.25-.28.31-.44.1-.32.1-.47c0-.26-.07-.47-.2-.64-.14-.17-.31-.31-.53-.43s-.47-.21-.76-.29c-.28-.08-.58-.16-.88-.24-.3-.08-.59-.18-.88-.28-.28-.1-.54-.24-.76-.4-.22-.16-.4-.37-.53-.61-.14-.24-.2-.54-.2-.9,0-.33.07-.63.21-.9.14-.27.33-.51.58-.7.24-.2.53-.35.87-.46.34-.11.7-.16,1.09-.16.62,0,1.16.1,1.63.29.47.19.88.47,1.21.83l-.6.73c-.3-.34-.66-.58-1.06-.73-.4-.15-.82-.23-1.26-.23-.48,0-.87.12-1.18.35-.31.23-.46.54-.46.92,0,.22.07.41.2.55.14.14.31.27.53.37.22.1.47.19.76.27s.58.16.88.24c.3.08.59.18.88.29.28.11.54.26.76.43.22.18.4.39.53.65.14.26.2.57.2.95,0,.29-.05.57-.16.86-.1.28-.27.54-.51.76s-.54.4-.92.53-.83.2-1.37.2Z"/><path class="cls-6" d="M794.4,24.06c-.59,0-1.13-.1-1.62-.31s-.91-.5-1.25-.87-.62-.81-.81-1.31-.29-1.05-.29-1.64.1-1.14.29-1.64.46-.94.81-1.31.77-.66,1.25-.87c.49-.21,1.03-.31,1.62-.31s1.13.1,1.62.31c.49.21.91.5,1.25.87s.62.81.81,1.31.29,1.05.29,1.64-.1,1.15-.29,1.65-.46.93-.82,1.3l.77.82-.7.6-.78-.83c-.3.19-.64.34-1,.44s-.75.16-1.16.16ZM794.4,23.17c.57,0,1.08-.14,1.52-.41l-1.14-1.24.7-.59,1.13,1.22c.23-.29.41-.62.54-1s.19-.79.19-1.24-.07-.9-.21-1.3c-.14-.4-.34-.74-.59-1.03-.26-.29-.56-.51-.92-.68s-.76-.25-1.21-.25-.85.08-1.22.25c-.36.16-.67.39-.93.68-.26.29-.45.63-.59,1.03-.14.4-.2.83-.2,1.3s.07.89.2,1.29c.14.4.33.74.59,1.03.26.29.57.52.93.68.36.16.77.25,1.22.25Z"/><path class="cls-6" d="M799.93,23.91v-8h1v7.12h3.72v.89h-4.72Z"/><path class="cls-6" d="M750.09,43.96v-6.59l-2.72,6.59h-.41l-2.71-6.59v6.59h-1v-8h1.43l2.48,6.02,2.5-6.02h1.43v8h-1Z"/><path class="cls-6" d="M753.37,37.34c-.16,0-.3-.06-.42-.17-.12-.12-.18-.26-.18-.43s.06-.31.18-.43c.12-.12.26-.18.42-.18s.31.06.43.18c.12.12.18.26.18.43s-.06.31-.18.43-.26.17-.43.17ZM752.93,43.96v-5.8h.9v5.8h-.9Z"/><path class="cls-6" d="M758.18,44.1c-.43,0-.83-.08-1.18-.23s-.66-.37-.91-.64c-.25-.27-.45-.59-.59-.97-.14-.37-.21-.77-.21-1.21s.07-.83.21-1.2.34-.69.59-.96c.25-.27.56-.49.91-.64.36-.16.75-.23,1.18-.23.53,0,.96.1,1.29.29.33.19.61.43.83.72l-.6.55c-.19-.26-.41-.46-.65-.58-.24-.12-.52-.18-.82-.18s-.59.06-.83.17-.45.27-.63.47c-.18.2-.31.44-.4.71-.09.27-.14.57-.14.89s.05.62.14.89c.09.28.23.51.4.71.18.2.39.36.63.47.24.11.52.17.83.17.61,0,1.1-.25,1.48-.76l.6.55c-.22.29-.5.53-.83.72-.33.19-.76.29-1.29.29Z"/><path class="cls-6" d="M761.57,43.96v-5.8h.9v.94c.23-.3.51-.56.84-.76.33-.2.69-.3,1.09-.3v.92c-.11-.02-.23-.04-.36-.04-.14,0-.28.03-.44.08-.16.05-.31.12-.46.21-.15.09-.28.19-.4.29-.12.11-.21.22-.28.34v4.1h-.9Z"/><path class="cls-6" d="M768.06,44.1c-.44,0-.84-.08-1.19-.24s-.66-.38-.91-.65c-.25-.28-.44-.6-.57-.97-.13-.37-.2-.76-.2-1.19s.07-.81.2-1.18c.13-.37.32-.69.57-.97.25-.27.55-.49.91-.65.36-.16.75-.24,1.19-.24s.84.08,1.19.24c.36.16.66.38.91.65.25.27.44.59.57.97s.2.77.2,1.18-.07.82-.2,1.19-.32.69-.57.97c-.25.28-.55.49-.91.65s-.75.24-1.19.24ZM768.06,43.3c.31,0,.59-.06.82-.19s.44-.29.6-.49.29-.44.37-.71c.08-.27.13-.56.13-.85s-.04-.58-.13-.85c-.08-.27-.21-.5-.37-.71s-.36-.37-.6-.49c-.24-.12-.51-.19-.82-.19s-.59.06-.83.19c-.24.12-.44.29-.61.49s-.29.44-.37.71c-.08.27-.13.55-.13.85s.04.58.13.85c.08.27.21.51.37.71s.37.37.61.49.52.19.83.19Z"/><path class="cls-6" d="M774.23,44.1c-.48,0-.92-.07-1.31-.22-.39-.15-.74-.38-1.03-.69l.47-.65c.19.22.46.42.8.58.34.16.71.25,1.11.25.45,0,.79-.09,1.02-.28.23-.19.35-.43.35-.71,0-.23-.09-.41-.26-.53-.18-.12-.4-.23-.67-.31s-.56-.15-.86-.22c-.31-.07-.6-.16-.86-.29s-.49-.29-.67-.49-.26-.49-.26-.85c0-.22.05-.44.14-.64.1-.2.24-.38.42-.53.18-.15.41-.27.68-.36s.57-.13.92-.13c.5,0,.92.08,1.27.25s.64.36.88.59l-.42.62c-.18-.21-.41-.38-.71-.52-.3-.14-.64-.21-1.01-.21-.4,0-.71.09-.94.26-.23.18-.34.39-.34.65,0,.21.09.37.26.48.18.11.4.21.67.28.27.08.56.15.86.22.31.07.6.17.86.29s.49.3.67.52c.18.22.26.52.26.89,0,.24-.05.47-.14.68-.1.22-.24.4-.43.56-.19.16-.43.28-.71.37-.28.09-.61.14-.99.14Z"/><path class="cls-6" d="M780.5,44.1c-.44,0-.84-.08-1.19-.24s-.66-.38-.91-.65c-.25-.28-.44-.6-.57-.97-.13-.37-.2-.76-.2-1.19s.07-.81.2-1.18c.13-.37.32-.69.57-.97.25-.27.55-.49.91-.65.36-.16.75-.24,1.19-.24s.84.08,1.19.24c.36.16.66.38.91.65.25.27.44.59.57.97s.2.77.2,1.18-.07.82-.2,1.19-.32.69-.57.97c-.25.28-.55.49-.91.65s-.75.24-1.19.24ZM780.5,43.3c.31,0,.59-.06.82-.19s.44-.29.6-.49.29-.44.37-.71c.08-.27.13-.56.13-.85s-.04-.58-.13-.85c-.08-.27-.21-.5-.37-.71s-.36-.37-.6-.49c-.24-.12-.51-.19-.82-.19s-.59.06-.83.19c-.24.12-.44.29-.61.49s-.29.44-.37.71c-.08.27-.13.55-.13.85s.04.58.13.85c.08.27.21.51.37.71s.37.37.61.49.52.19.83.19Z"/><path class="cls-6" d="M785.09,43.96v-4.99h-.96v-.8h.96v-.44c0-.6.15-1.06.45-1.39.3-.33.71-.49,1.23-.49.23,0,.45.03.65.1.2.06.39.18.58.35l-.37.59c-.1-.09-.2-.16-.32-.21-.12-.05-.25-.08-.4-.08-.3,0-.52.1-.68.29-.16.2-.23.48-.23.85v.44h1.18v.8h-1.18v4.99h-.9Z"/><path class="cls-6" d="M789.69,44.1c-.43,0-.75-.12-.97-.35s-.32-.57-.32-1v-3.78h-.96v-.8h.96v-1.58h.9v1.58h1.18v.8h-1.18v3.59c0,.21.05.39.14.53s.24.21.44.21c.13,0,.25-.02.35-.07s.19-.1.26-.17l.26.67c-.11.11-.25.2-.43.27-.17.07-.39.1-.65.1Z"/><path class="cls-6" d="M797.48,44.1c-.7,0-1.31-.12-1.81-.35-.5-.24-.92-.54-1.26-.92l.59-.76c.13.14.28.29.46.43.18.14.37.26.58.37.21.1.44.19.69.25.25.06.51.1.79.1.36,0,.66-.04.9-.13.24-.09.43-.2.58-.33s.25-.28.31-.44.1-.32.1-.47c0-.26-.07-.47-.2-.64-.14-.17-.31-.31-.53-.43s-.47-.21-.76-.29c-.28-.08-.58-.16-.88-.24-.3-.08-.59-.18-.88-.28-.28-.1-.54-.24-.76-.4-.22-.16-.4-.37-.53-.61-.14-.24-.2-.54-.2-.9,0-.33.07-.63.21-.9.14-.27.33-.51.58-.7.24-.2.53-.35.87-.46.34-.11.7-.16,1.09-.16.62,0,1.16.1,1.63.29.47.19.88.47,1.21.83l-.6.73c-.3-.34-.66-.58-1.06-.73-.4-.15-.82-.23-1.26-.23-.48,0-.87.12-1.18.35-.31.23-.46.54-.46.92,0,.22.07.41.2.55.14.14.31.27.53.37.22.1.47.19.76.27s.58.16.88.24c.3.08.59.18.88.29.28.11.54.26.76.43.22.18.4.39.53.65.14.26.2.57.2.95,0,.29-.05.57-.16.86-.1.28-.27.54-.51.76s-.54.4-.92.53-.83.2-1.37.2Z"/><path class="cls-6" d="M805.57,44.1c-.59,0-1.13-.1-1.62-.31s-.91-.5-1.25-.87-.62-.81-.81-1.31-.29-1.05-.29-1.64.1-1.14.29-1.64.46-.94.81-1.31.77-.66,1.25-.87c.49-.21,1.03-.31,1.62-.31s1.13.1,1.62.31c.49.21.91.5,1.25.87s.62.81.81,1.31.29,1.05.29,1.64-.1,1.15-.29,1.65-.46.93-.82,1.3l.77.82-.7.6-.78-.83c-.3.19-.64.34-1,.44s-.75.16-1.16.16ZM805.57,43.22c.57,0,1.08-.14,1.52-.41l-1.14-1.24.7-.59,1.13,1.22c.23-.29.41-.62.54-1s.19-.79.19-1.24-.07-.9-.21-1.3c-.14-.4-.34-.74-.59-1.03-.26-.29-.56-.51-.92-.68s-.76-.25-1.21-.25-.85.08-1.22.25c-.36.16-.67.39-.93.68-.26.29-.45.63-.59,1.03-.14.4-.2.83-.2,1.3s.07.89.2,1.29c.14.4.33.74.59,1.03.26.29.57.52.93.68.36.16.77.25,1.22.25Z"/><path class="cls-6" d="M811.1,43.96v-8h1v7.12h3.72v.89h-4.72Z"/><path class="cls-6" d="M750.09,64.01v-6.59l-2.72,6.59h-.41l-2.71-6.59v6.59h-1v-8h1.43l2.48,6.02,2.5-6.02h1.43v8h-1Z"/><path class="cls-6" d="M752.75,65.46c.06.03.14.06.24.07.1.02.18.02.25.02.2,0,.37-.04.5-.13.14-.08.26-.25.36-.49l.38-.88-2.42-5.86h.97l1.93,4.75,1.92-4.75h.98l-2.9,6.97c-.18.42-.41.72-.7.9-.29.18-.62.27-1.01.28-.1,0-.21,0-.34-.02-.13-.02-.24-.04-.32-.06l.14-.82Z"/><path class="cls-6" d="M761.43,64.15c-.7,0-1.31-.12-1.81-.35-.5-.24-.92-.54-1.26-.92l.59-.76c.13.14.28.29.46.43.18.14.37.26.58.37.21.1.44.19.69.25.25.06.51.1.79.1.36,0,.66-.04.9-.13.24-.09.43-.2.58-.33s.25-.28.31-.44.1-.32.1-.47c0-.26-.07-.47-.2-.64-.14-.17-.31-.31-.53-.43-.22-.12-.47-.21-.76-.29-.28-.08-.58-.16-.88-.24-.3-.08-.59-.18-.88-.28-.28-.1-.54-.24-.76-.4-.22-.16-.4-.37-.53-.61-.14-.24-.2-.54-.2-.9,0-.33.07-.63.21-.9.14-.27.33-.51.58-.7.24-.2.53-.35.87-.46.34-.11.7-.16,1.09-.16.62,0,1.16.1,1.63.29.47.19.88.47,1.21.83l-.6.73c-.3-.34-.66-.58-1.06-.73-.4-.15-.82-.23-1.26-.23-.48,0-.87.12-1.18.35-.31.23-.46.54-.46.92,0,.22.07.41.2.55.14.14.31.27.53.37.22.1.47.19.76.27.28.08.58.16.88.24.3.08.59.18.88.29.28.11.54.26.76.43.22.18.4.39.53.65s.2.57.2.95c0,.29-.05.57-.16.86-.1.28-.27.54-.51.76-.24.22-.54.4-.92.53-.38.14-.83.2-1.37.2Z"/><path class="cls-6" d="M769.52,64.15c-.59,0-1.13-.1-1.62-.31s-.91-.5-1.25-.87-.62-.81-.81-1.31-.29-1.05-.29-1.64.1-1.14.29-1.64.46-.94.81-1.31.77-.66,1.25-.87,1.03-.31,1.62-.31,1.13.1,1.62.31c.49.21.91.5,1.25.87s.62.81.81,1.31.29,1.05.29,1.64-.1,1.15-.29,1.65c-.19.5-.46.93-.82,1.3l.77.82-.7.6-.78-.83c-.3.19-.64.34-1,.44-.36.1-.75.16-1.16.16ZM769.52,63.26c.57,0,1.08-.14,1.52-.41l-1.14-1.24.7-.59,1.13,1.22c.23-.29.41-.62.54-1s.19-.79.19-1.24-.07-.9-.21-1.3c-.14-.4-.34-.74-.59-1.03-.26-.29-.56-.51-.92-.68s-.76-.25-1.21-.25-.85.08-1.22.25c-.36.16-.67.39-.93.68-.26.29-.45.63-.59,1.03-.14.4-.2.83-.2,1.3s.07.89.2,1.29c.14.4.33.74.59,1.03.26.29.57.52.93.68.36.16.77.25,1.22.25Z"/><path class="cls-6" d="M775.05,64.01v-8h1v7.12h3.72v.89h-4.72Z"/><path class="cls-6" d="M780.24,64.25l2.84-8.48h.71l-2.84,8.48h-.71Z"/><path class="cls-6" d="M794.66,64.01v-6.59l-2.72,6.59h-.41l-2.71-6.59v6.59h-1v-8h1.43l2.48,6.02,2.5-6.02h1.43v8h-1Z"/><path class="cls-6" d="M801.12,64.01v-.66c-.49.54-1.13.8-1.92.8-.25,0-.49-.04-.73-.12-.24-.08-.46-.2-.65-.37s-.35-.37-.47-.61c-.12-.24-.18-.52-.18-.83s.06-.6.18-.84c.12-.24.28-.44.47-.6s.41-.28.65-.35c.24-.08.48-.11.73-.11.4,0,.76.06,1.09.19.32.13.6.33.83.6v-1.04c0-.39-.14-.69-.41-.91-.28-.21-.63-.32-1.05-.32-.68,0-1.27.27-1.78.8l-.42-.62c.62-.64,1.39-.96,2.32-.96.3,0,.59.04.86.11s.51.19.71.34c.2.16.37.36.49.61.12.25.18.55.18.9v3.98h-.9ZM799.52,63.5c.32,0,.62-.06.91-.18.28-.12.51-.3.69-.54v-1.09c-.18-.24-.41-.42-.69-.54-.28-.12-.59-.18-.91-.18-.42,0-.77.12-1.03.35-.26.24-.4.54-.4.92s.13.67.4.91c.26.24.61.35,1.03.35Z"/><path class="cls-6" d="M803.82,64.01v-5.8h.9v.94c.23-.3.51-.56.84-.76.33-.2.69-.3,1.09-.3v.92c-.11-.02-.23-.04-.36-.04-.14,0-.28.03-.44.08-.16.05-.31.12-.46.21s-.28.19-.4.29c-.12.11-.21.22-.28.34v4.1h-.9Z"/><path class="cls-6" d="M808.22,57.38c-.16,0-.3-.06-.42-.17-.12-.12-.18-.26-.18-.43s.06-.31.18-.43c.12-.12.26-.18.42-.18s.31.06.43.18.18.26.18.43-.06.31-.18.43c-.12.12-.26.17-.43.17ZM807.78,64.01v-5.8h.9v5.8h-.9Z"/><path class="cls-6" d="M814.1,64.01v-.66c-.49.54-1.13.8-1.92.8-.25,0-.49-.04-.73-.12-.24-.08-.46-.2-.65-.37s-.35-.37-.47-.61c-.12-.24-.18-.52-.18-.83s.06-.6.18-.84c.12-.24.28-.44.47-.6s.41-.28.65-.35c.24-.08.48-.11.73-.11.4,0,.76.06,1.09.19.32.13.6.33.83.6v-1.04c0-.39-.14-.69-.41-.91-.28-.21-.63-.32-1.05-.32-.68,0-1.27.27-1.78.8l-.42-.62c.62-.64,1.39-.96,2.32-.96.3,0,.59.04.86.11s.51.19.71.34c.2.16.37.36.49.61.12.25.18.55.18.9v3.98h-.9ZM812.51,63.5c.32,0,.62-.06.91-.18.28-.12.51-.3.69-.54v-1.09c-.18-.24-.41-.42-.69-.54-.28-.12-.59-.18-.91-.18-.42,0-.77.12-1.03.35-.26.24-.4.54-.4.92s.13.67.4.91c.26.24.61.35,1.03.35Z"/><path class="cls-6" d="M816.84,64.01v-8h2.74c.62,0,1.19.1,1.69.31.5.2.93.49,1.29.85.36.36.63.78.83,1.27.2.49.29,1.02.29,1.58s-.1,1.1-.29,1.58c-.2.49-.47.91-.83,1.27-.36.36-.79.64-1.29.84-.5.2-1.07.31-1.69.31h-2.74ZM819.57,63.12c.49,0,.92-.08,1.3-.25.38-.16.7-.39.97-.67.26-.28.46-.61.6-.98.14-.38.2-.78.2-1.21s-.07-.84-.2-1.22c-.14-.38-.33-.71-.59-.99-.26-.28-.58-.5-.96-.67s-.82-.25-1.31-.25h-1.74v6.23h1.74Z"/><path class="cls-6" d="M825.24,64.01v-8h3.56c.34,0,.66.05.94.15.28.1.52.24.71.42.19.18.34.4.44.65s.16.53.16.82c0,.26-.04.49-.11.7s-.18.39-.31.55c-.13.16-.28.28-.45.38-.17.1-.34.17-.53.21.22.03.42.11.61.23s.35.27.49.44c.14.18.25.38.34.6.08.22.13.46.13.7,0,.32-.05.61-.16.88-.1.26-.26.49-.46.68-.2.19-.44.34-.73.44-.28.1-.61.16-.98.16h-3.65ZM828.63,59.47c.46,0,.8-.12,1.03-.37s.35-.55.35-.92-.12-.67-.35-.92-.58-.38-1.03-.38h-2.4v2.58h2.4ZM828.68,63.12c.47,0,.84-.12,1.1-.37.26-.24.39-.58.39-1.01,0-.18-.03-.36-.1-.53s-.16-.31-.28-.44c-.12-.12-.28-.22-.46-.3s-.4-.11-.65-.11h-2.45v2.76h2.45Z"/><path class="cls-6" d="M746.9,84.2c-.59,0-1.13-.1-1.62-.31s-.91-.5-1.25-.87-.62-.81-.81-1.31-.29-1.05-.29-1.64.1-1.14.29-1.64.46-.94.81-1.31.77-.66,1.25-.87,1.03-.31,1.62-.31,1.13.1,1.62.31c.49.21.91.5,1.25.87s.62.81.81,1.31.29,1.05.29,1.64-.1,1.14-.29,1.64-.46.94-.81,1.31-.77.66-1.25.87c-.49.21-1.03.31-1.62.31ZM746.9,83.31c.45,0,.85-.08,1.21-.25s.67-.39.92-.68c.26-.29.45-.64.59-1.03.14-.4.21-.83.21-1.29s-.07-.9-.21-1.3c-.14-.4-.34-.74-.59-1.03-.26-.29-.56-.51-.92-.68s-.76-.25-1.21-.25-.85.08-1.22.25c-.36.16-.67.39-.93.68-.26.29-.45.63-.59,1.03-.14.4-.2.83-.2,1.3s.07.89.2,1.29c.14.4.33.74.59,1.03.26.29.57.52.93.68.36.16.77.25,1.22.25Z"/><path class="cls-6" d="M752.4,84.06v-5.8h.9v.94c.23-.3.51-.56.84-.76.33-.2.69-.3,1.09-.3v.92c-.11-.02-.23-.04-.36-.04-.14,0-.28.03-.44.08-.16.05-.31.12-.46.21s-.28.19-.4.29c-.12.11-.21.22-.28.34v4.1h-.9Z"/><path class="cls-6" d="M759.98,84.06v-.66c-.49.54-1.13.8-1.92.8-.25,0-.49-.04-.73-.12-.24-.08-.46-.2-.65-.37s-.35-.37-.47-.61c-.12-.24-.18-.52-.18-.83s.06-.6.18-.84c.12-.24.28-.44.47-.6s.41-.28.65-.35c.24-.08.48-.11.73-.11.4,0,.76.06,1.09.19.32.13.6.33.83.6v-1.04c0-.39-.14-.69-.41-.91-.28-.21-.63-.32-1.05-.32-.68,0-1.27.27-1.78.8l-.42-.62c.62-.64,1.39-.96,2.32-.96.3,0,.59.04.86.11s.51.19.71.34c.2.16.37.36.49.61.12.25.18.55.18.9v3.98h-.9ZM758.39,83.55c.32,0,.62-.06.91-.18.28-.12.51-.3.69-.54v-1.09c-.18-.24-.41-.42-.69-.54-.28-.12-.59-.18-.91-.18-.42,0-.77.12-1.03.35-.26.24-.4.54-.4.92s.13.67.4.91c.26.24.61.35,1.03.35Z"/><path class="cls-6" d="M765.24,84.2c-.43,0-.83-.08-1.18-.23-.36-.16-.66-.37-.91-.64-.25-.27-.45-.59-.59-.97s-.21-.77-.21-1.21.07-.83.21-1.2c.14-.37.34-.69.59-.96.25-.27.56-.49.91-.64s.75-.23,1.18-.23c.53,0,.96.1,1.29.29.33.19.61.43.83.72l-.6.55c-.19-.26-.41-.46-.65-.58-.24-.12-.52-.18-.82-.18s-.59.06-.83.17c-.24.11-.45.27-.63.47-.18.2-.31.44-.4.71-.09.27-.14.57-.14.89s.05.62.14.89c.09.28.23.51.4.71.18.2.39.36.63.47s.52.17.83.17c.61,0,1.1-.25,1.48-.76l.6.55c-.22.29-.5.53-.83.72-.33.19-.76.29-1.29.29Z"/><path class="cls-6" d="M768.62,84.06v-8h.9v8h-.9Z"/><path class="cls-6" d="M773.94,84.2c-.43,0-.83-.07-1.19-.22-.36-.15-.67-.36-.93-.62-.26-.27-.46-.59-.61-.96-.15-.37-.22-.79-.22-1.24,0-.42.07-.81.22-1.18.14-.37.34-.69.6-.97.25-.27.55-.49.9-.65.35-.16.73-.24,1.15-.24.44,0,.83.08,1.18.24s.64.38.88.66c.24.28.42.61.55.99.12.38.19.79.19,1.22v.23h-4.7c.02.27.08.53.18.77s.25.46.43.64c.18.18.39.32.64.43.25.11.53.16.84.16.34,0,.66-.06.97-.19s.58-.31.82-.54l.43.59c-.29.29-.62.51-1.01.66-.38.15-.82.23-1.3.23ZM775.74,80.79c0-.22-.04-.44-.11-.67-.08-.23-.19-.44-.35-.62-.16-.19-.35-.34-.59-.46-.24-.12-.52-.18-.85-.18s-.58.06-.82.18-.43.27-.58.46c-.16.18-.28.39-.36.62-.08.23-.13.45-.14.68h3.8Z"/><path class="cls-6" d="M781.21,84.06v-8h2.74c.62,0,1.19.1,1.69.31.5.2.93.49,1.29.85.36.36.63.78.83,1.27.2.49.29,1.02.29,1.58s-.1,1.1-.29,1.58c-.2.49-.47.91-.83,1.27-.36.36-.79.64-1.29.84-.5.2-1.07.31-1.69.31h-2.74ZM783.95,83.17c.49,0,.92-.08,1.3-.25.38-.16.7-.39.97-.67.26-.28.46-.61.6-.98.14-.38.2-.78.2-1.21s-.07-.84-.2-1.22c-.14-.38-.33-.71-.59-.99-.26-.28-.58-.5-.96-.67s-.82-.25-1.31-.25h-1.74v6.23h1.74Z"/><path class="cls-6" d="M793.2,84.06v-.66c-.49.54-1.13.8-1.92.8-.25,0-.49-.04-.73-.12-.24-.08-.46-.2-.65-.37s-.35-.37-.47-.61c-.12-.24-.18-.52-.18-.83s.06-.6.18-.84c.12-.24.28-.44.47-.6s.41-.28.65-.35c.24-.08.48-.11.73-.11.4,0,.76.06,1.09.19.32.13.6.33.83.6v-1.04c0-.39-.14-.69-.41-.91-.28-.21-.63-.32-1.05-.32-.68,0-1.27.27-1.78.8l-.42-.62c.62-.64,1.39-.96,2.32-.96.3,0,.59.04.86.11s.51.19.71.34c.2.16.37.36.49.61.12.25.18.55.18.9v3.98h-.9ZM791.6,83.55c.32,0,.62-.06.91-.18.28-.12.51-.3.69-.54v-1.09c-.18-.24-.41-.42-.69-.54-.28-.12-.59-.18-.91-.18-.42,0-.77.12-1.03.35-.26.24-.4.54-.4.92s.13.67.4.91c.26.24.61.35,1.03.35Z"/><path class="cls-6" d="M797.36,84.2c-.43,0-.75-.12-.97-.35s-.32-.57-.32-1v-3.78h-.96v-.8h.96v-1.58h.9v1.58h1.18v.8h-1.18v3.59c0,.22.05.39.14.53.1.14.24.21.44.21.13,0,.25-.02.35-.07s.19-.1.26-.17l.26.67c-.11.11-.25.2-.43.27-.17.07-.39.1-.65.1Z"/><path class="cls-6" d="M803.05,84.06v-.66c-.49.54-1.13.8-1.92.8-.25,0-.49-.04-.73-.12-.24-.08-.46-.2-.65-.37s-.35-.37-.47-.61c-.12-.24-.18-.52-.18-.83s.06-.6.18-.84c.12-.24.28-.44.47-.6s.41-.28.65-.35c.24-.08.48-.11.73-.11.4,0,.76.06,1.09.19.32.13.6.33.83.6v-1.04c0-.39-.14-.69-.41-.91-.28-.21-.63-.32-1.05-.32-.68,0-1.27.27-1.78.8l-.42-.62c.62-.64,1.39-.96,2.32-.96.3,0,.59.04.86.11s.51.19.71.34c.2.16.37.36.49.61.12.25.18.55.18.9v3.98h-.9ZM801.45,83.55c.32,0,.62-.06.91-.18.28-.12.51-.3.69-.54v-1.09c-.18-.24-.41-.42-.69-.54-.28-.12-.59-.18-.91-.18-.42,0-.77.12-1.03.35-.26.24-.4.54-.4.92s.13.67.4.91c.26.24.61.35,1.03.35Z"/><path class="cls-6" d="M805.75,84.06v-8h.9v3.08c.23-.32.52-.57.85-.75.34-.18.7-.27,1.1-.27.38,0,.72.07,1.04.22.32.14.59.35.82.61s.41.58.53.96.19.8.19,1.26-.06.9-.19,1.27-.31.69-.53.95-.5.46-.82.6-.66.21-1.04.21c-.41,0-.78-.09-1.12-.28-.34-.19-.62-.43-.83-.73v.86h-.9ZM806.65,82.48c.16.26.4.47.71.65.32.18.65.26,1.01.26.3,0,.56-.06.79-.17s.43-.27.59-.47c.16-.2.28-.44.37-.71.08-.27.13-.57.13-.89s-.04-.62-.13-.89-.21-.51-.37-.71c-.16-.2-.36-.36-.59-.47-.23-.11-.5-.17-.79-.17-.36,0-.7.09-1.01.28-.32.18-.55.4-.71.66v2.63Z"/><path class="cls-6" d="M816.27,84.06v-.66c-.49.54-1.13.8-1.92.8-.25,0-.49-.04-.73-.12-.24-.08-.46-.2-.65-.37s-.35-.37-.47-.61c-.12-.24-.18-.52-.18-.83s.06-.6.18-.84c.12-.24.28-.44.47-.6s.41-.28.65-.35c.24-.08.48-.11.73-.11.4,0,.76.06,1.09.19.32.13.6.33.83.6v-1.04c0-.39-.14-.69-.41-.91-.28-.21-.63-.32-1.05-.32-.68,0-1.27.27-1.78.8l-.42-.62c.62-.64,1.39-.96,2.32-.96.3,0,.59.04.86.11s.51.19.71.34c.2.16.37.36.49.61.12.25.18.55.18.9v3.98h-.9ZM814.68,83.55c.32,0,.62-.06.91-.18.28-.12.51-.3.69-.54v-1.09c-.18-.24-.41-.42-.69-.54-.28-.12-.59-.18-.91-.18-.42,0-.77.12-1.03.35-.26.24-.4.54-.4.92s.13.67.4.91c.26.24.61.35,1.03.35Z"/><path class="cls-6" d="M820.81,84.2c-.48,0-.92-.07-1.31-.22-.39-.15-.74-.38-1.03-.69l.47-.65c.19.22.46.42.8.58.34.16.71.25,1.11.25.45,0,.79-.09,1.02-.28.23-.19.35-.43.35-.71,0-.23-.09-.41-.26-.53-.18-.12-.4-.23-.67-.31s-.56-.15-.86-.22c-.31-.07-.6-.16-.86-.29s-.49-.29-.67-.49c-.18-.2-.26-.49-.26-.85,0-.22.05-.44.14-.64.1-.2.24-.38.42-.53.18-.15.41-.27.68-.36.27-.09.57-.13.92-.13.5,0,.92.08,1.27.25s.64.36.88.59l-.42.62c-.18-.21-.41-.38-.71-.52-.3-.14-.64-.21-1.01-.21-.4,0-.71.09-.94.26s-.34.39-.34.65c0,.21.09.37.26.48.18.11.4.21.67.28s.56.15.86.22c.31.07.6.17.86.29s.49.3.67.52c.18.22.26.52.26.89,0,.24-.05.47-.14.68-.1.22-.24.4-.43.56s-.43.28-.71.37c-.28.09-.61.14-.99.14Z"/><path class="cls-6" d="M827.17,84.2c-.43,0-.83-.07-1.19-.22-.36-.15-.67-.36-.93-.62-.26-.27-.46-.59-.61-.96-.15-.37-.22-.79-.22-1.24,0-.42.07-.81.22-1.18.14-.37.34-.69.6-.97.25-.27.55-.49.9-.65.35-.16.73-.24,1.15-.24.44,0,.83.08,1.18.24s.64.38.88.66c.24.28.42.61.55.99.12.38.19.79.19,1.22v.23h-4.7c.02.27.08.53.18.77s.25.46.43.64c.18.18.39.32.64.43.25.11.53.16.84.16.34,0,.66-.06.97-.19s.58-.31.82-.54l.43.59c-.29.29-.62.51-1.01.66-.38.15-.82.23-1.3.23ZM828.97,80.79c0-.22-.04-.44-.11-.67-.08-.23-.19-.44-.35-.62-.16-.19-.35-.34-.59-.46-.24-.12-.52-.18-.85-.18s-.58.06-.82.18-.43.27-.58.46c-.16.18-.28.39-.36.62-.08.23-.13.45-.14.68h3.8Z"/><path class="cls-6" d="M745.85,104.25c-.7,0-1.31-.12-1.81-.35-.5-.24-.92-.54-1.26-.92l.59-.76c.13.14.28.29.46.43.18.14.37.26.58.37.21.1.44.19.69.25.25.06.51.1.79.1.36,0,.66-.04.9-.13.24-.09.43-.2.58-.33s.25-.28.31-.44.1-.32.1-.47c0-.26-.07-.47-.2-.64-.14-.17-.31-.31-.53-.43-.22-.12-.47-.21-.76-.29-.28-.08-.58-.16-.88-.24-.3-.08-.59-.18-.88-.28-.28-.1-.54-.24-.76-.4-.22-.16-.4-.37-.53-.61-.14-.24-.2-.54-.2-.9,0-.33.07-.63.21-.9.14-.27.33-.51.58-.7.24-.2.53-.35.87-.46.34-.11.7-.16,1.09-.16.62,0,1.16.1,1.63.29.47.19.88.47,1.21.83l-.6.73c-.3-.34-.66-.58-1.06-.73-.4-.15-.82-.23-1.26-.23-.48,0-.87.12-1.18.35-.31.23-.46.54-.46.92,0,.22.07.41.2.55.14.14.31.27.53.37.22.1.47.19.76.27.28.08.58.16.88.24.3.08.59.18.88.29.28.11.54.26.76.43.22.18.4.39.53.65s.2.57.2.95c0,.29-.05.57-.16.86-.1.28-.27.54-.51.76-.24.22-.54.4-.92.53-.38.14-.83.2-1.37.2Z"/><path class="cls-6" d="M755.88,104.1l-.71-1.78h-3.98l-.71,1.78h-1.14l3.22-8h1.24l3.23,8h-1.14ZM753.18,97.13l-1.7,4.31h3.4l-1.69-4.31Z"/><path class="cls-6" d="M758.06,104.1v-8h3.22c.4,0,.76.06,1.07.19s.57.3.79.52.37.48.49.77c.11.29.17.6.17.93s-.06.64-.17.93c-.11.29-.28.55-.49.77-.22.22-.48.39-.79.52s-.66.19-1.06.19h-2.22v3.18h-1ZM761.16,100.04c.48,0,.87-.14,1.16-.42s.44-.65.44-1.1-.15-.82-.44-1.1-.68-.42-1.16-.42h-2.1v3.05h2.1Z"/><path class="cls-6" d="M773.88,104.1v-3.67h-4.68v3.67h-1v-8h1v3.44h4.68v-3.44h1v8h-1Z"/><path class="cls-6" d="M782.46,104.1l-.71-1.78h-3.98l-.71,1.78h-1.14l3.22-8h1.24l3.23,8h-1.14ZM779.76,97.13l-1.7,4.31h3.4l-1.69-4.31Z"/><path class="cls-6" d="M790.31,104.1l-4.67-6.38v6.38h-1v-8h1.02l4.61,6.25v-6.25h1v8h-.96Z"/><path class="cls-6" d="M798.85,104.1l-.71-1.78h-3.98l-.71,1.78h-1.14l3.22-8h1.24l3.23,8h-1.14ZM796.15,97.13l-1.7,4.31h3.4l-1.69-4.31Z"/><path class="cls-6" d="M742.7,123.35c.24-.02.45-.06.64-.14.19-.08.36-.23.51-.46.15-.22.28-.54.39-.95.11-.41.21-.95.29-1.63l.49-4.02h4.9v7.12h.73v2.36h-1v-1.48h-5.96v1.48h-1v-2.28ZM745.52,120.24c-.1.85-.26,1.51-.47,1.98s-.46.82-.76,1.04h4.63v-6.23h-3.01l-.4,3.2Z"/><path class="cls-6" d="M754.75,124.3c-.4,0-.77-.09-1.1-.26s-.62-.43-.85-.76v3.08h-.9v-8h.9v.86c.21-.3.48-.54.83-.73.34-.19.72-.28,1.13-.28.38,0,.73.07,1.05.21.32.14.59.34.82.6s.4.58.53.95.19.8.19,1.27-.06.9-.19,1.27-.3.7-.53.96-.5.47-.82.61c-.32.14-.67.21-1.05.21ZM754.52,123.49c.29,0,.55-.06.78-.17.23-.11.43-.27.59-.47s.28-.44.37-.71.13-.57.13-.89-.04-.62-.13-.89c-.08-.27-.21-.51-.37-.71-.16-.2-.36-.36-.59-.47-.23-.11-.49-.17-.78-.17-.36,0-.7.09-1.01.27-.32.18-.55.4-.71.65v2.62c.16.26.4.48.71.66.32.18.65.28,1.01.28Z"/><path class="cls-6" d="M758.58,125.6c.06.03.14.06.24.07.1.02.18.02.25.02.2,0,.37-.04.5-.13.14-.08.26-.25.36-.49l.38-.88-2.42-5.86h.97l1.93,4.75,1.92-4.75h.98l-2.9,6.97c-.18.42-.41.72-.7.9s-.62.27-1.01.28c-.1,0-.21,0-.34-.02s-.24-.04-.32-.06l.14-.82Z"/><path class="cls-6" d="M768.69,119.16h-3.16v4.99h-.9v-5.8h4.06v.8Z"/><path class="cls-6" d="M772.4,124.3c-.44,0-.84-.08-1.19-.24s-.66-.38-.91-.65c-.25-.28-.44-.6-.57-.97-.13-.37-.2-.76-.2-1.19s.07-.81.2-1.18c.13-.37.32-.69.57-.97.25-.27.55-.49.91-.65.36-.16.75-.24,1.19-.24s.84.08,1.19.24c.36.16.66.38.91.65.25.27.44.59.57.97s.2.77.2,1.18-.07.82-.2,1.19-.32.69-.57.97c-.25.28-.55.49-.91.65s-.75.24-1.19.24ZM772.4,123.49c.31,0,.59-.06.82-.19s.44-.29.6-.49.29-.44.37-.71c.08-.27.13-.56.13-.85s-.04-.58-.13-.85c-.08-.27-.21-.5-.37-.71s-.36-.37-.6-.49c-.24-.12-.51-.19-.82-.19s-.59.06-.83.19c-.24.12-.44.29-.61.49s-.29.44-.37.71c-.08.27-.13.55-.13.85s.04.58.13.85c.08.27.21.51.37.71s.37.37.61.49.52.19.83.19Z"/><path class="cls-6" d="M779.35,124.3c-.43,0-.83-.07-1.19-.22-.36-.15-.67-.36-.93-.62-.26-.27-.46-.59-.61-.96-.15-.37-.22-.79-.22-1.24,0-.42.07-.81.22-1.18.14-.37.34-.69.6-.97.25-.27.55-.49.9-.65.35-.16.73-.24,1.15-.24.44,0,.83.08,1.18.24.34.16.64.38.88.66.24.28.42.61.55.99.12.38.19.79.19,1.22v.23h-4.7c.02.27.08.53.18.77.1.24.25.46.43.64.18.18.39.32.64.43s.53.16.84.16c.34,0,.66-.06.97-.19s.58-.31.82-.54l.43.59c-.29.29-.62.51-1.01.66-.38.15-.82.23-1.3.23ZM781.15,120.89c0-.22-.04-.44-.11-.67-.08-.23-.19-.44-.35-.62-.16-.19-.35-.34-.59-.46-.24-.12-.52-.18-.85-.18s-.58.06-.82.18-.43.27-.58.46c-.16.18-.28.39-.36.62-.08.23-.13.45-.14.68h3.8Z"/><path class="cls-6" d="M743.25,144.2v-8h3.22c.4,0,.76.06,1.07.19s.57.3.79.52c.21.22.37.48.49.77.11.29.17.6.17.93s-.06.64-.17.93c-.11.29-.28.55-.49.77s-.48.39-.79.52-.66.19-1.06.19h-2.22v3.18h-1ZM746.35,140.13c.48,0,.87-.14,1.16-.42.29-.28.44-.65.44-1.1s-.15-.82-.44-1.1c-.29-.28-.68-.42-1.16-.42h-2.1v3.05h2.1Z"/><path class="cls-6" d="M750.3,144.2v-8h5.24v.89h-4.25v2.58h4.16v.89h-4.16v2.76h4.25v.89h-5.24Z"/><path class="cls-6" d="M756.57,143.4c.24-.02.45-.06.64-.14.19-.08.36-.23.51-.46.15-.22.28-.54.39-.95.11-.41.21-.95.29-1.63l.49-4.02h4.9v7.12h.73v2.36h-1v-1.48h-5.96v1.48h-1v-2.28ZM759.39,140.29c-.1.85-.26,1.51-.47,1.98s-.46.82-.76,1.04h4.63v-6.23h-3.01l-.4,3.2Z"/><path class="cls-6" d="M774.09,136.2v.89h-4.2v2.29h2.22c.39,0,.74.06,1.06.19s.58.3.79.52c.22.22.38.48.49.77.11.29.17.6.17.93s-.06.64-.17.93c-.11.29-.27.55-.49.77-.21.22-.47.39-.79.52s-.67.19-1.07.19h-3.22v-8h5.2ZM769.89,140.26v3.05h2.1c.48,0,.87-.14,1.16-.42s.44-.65.44-1.1-.15-.82-.44-1.1-.68-.42-1.16-.42h-2.1Z"/><path class="cls-6" d="M775.39,143.4c.24-.02.45-.06.64-.14.19-.08.36-.23.51-.46.15-.22.28-.54.39-.95.11-.41.21-.95.29-1.63l.49-4.02h4.9v7.12h.73v2.36h-1v-1.48h-5.96v1.48h-1v-2.28ZM778.21,140.29c-.1.85-.26,1.51-.47,1.98s-.46.82-.76,1.04h4.63v-6.23h-3.01l-.4,3.2Z"/><path class="cls-6" d="M745.85,164.39c-.7,0-1.31-.12-1.81-.35-.5-.24-.92-.54-1.26-.92l.59-.76c.13.14.28.29.46.43.18.14.37.26.58.37.21.1.44.19.69.25.25.06.51.1.79.1.36,0,.66-.04.9-.13.24-.09.43-.2.58-.33s.25-.28.31-.44.1-.32.1-.47c0-.26-.07-.47-.2-.64-.14-.17-.31-.31-.53-.43s-.47-.21-.76-.29c-.28-.08-.58-.16-.88-.24-.3-.08-.59-.18-.88-.28-.28-.1-.54-.24-.76-.4-.22-.16-.4-.37-.53-.61-.14-.24-.2-.54-.2-.9,0-.33.07-.63.21-.9.14-.27.33-.51.58-.7.24-.2.53-.35.87-.46.34-.11.7-.16,1.09-.16.62,0,1.16.1,1.63.29.47.19.88.47,1.21.83l-.6.73c-.3-.34-.66-.58-1.06-.73-.4-.15-.82-.23-1.26-.23-.48,0-.87.12-1.18.35-.31.23-.46.54-.46.92,0,.22.07.41.2.55.14.14.31.27.53.37.22.1.47.19.76.27s.58.16.88.24c.3.08.59.18.88.29.28.11.54.26.76.43.22.18.4.39.53.65.14.26.2.57.2.95,0,.29-.05.57-.16.86-.1.28-.27.54-.51.76s-.54.4-.92.53-.83.2-1.37.2Z"/><path class="cls-6" d="M752.78,164.39c-.44,0-.84-.08-1.19-.24s-.66-.38-.91-.65c-.25-.28-.44-.6-.57-.97-.13-.37-.2-.76-.2-1.19s.07-.81.2-1.18c.13-.37.32-.69.57-.97.25-.27.55-.49.91-.65.36-.16.75-.24,1.19-.24s.84.08,1.19.24c.36.16.66.38.91.65.25.27.44.59.57.97s.2.77.2,1.18-.07.82-.2,1.19-.32.69-.57.97c-.25.28-.55.49-.91.65s-.75.24-1.19.24ZM752.78,163.59c.31,0,.59-.06.82-.19s.44-.29.6-.49.29-.44.37-.71c.08-.27.13-.56.13-.85s-.04-.58-.13-.85c-.08-.27-.21-.5-.37-.71s-.36-.37-.6-.49c-.24-.12-.51-.19-.82-.19s-.59.06-.83.19c-.24.12-.44.29-.61.49s-.29.44-.37.71c-.08.27-.13.55-.13.85s.04.58.13.85c.08.27.21.51.37.71s.37.37.61.49.52.19.83.19Z"/><path class="cls-6" d="M760.8,164.39c-.59,0-1.13-.1-1.62-.31s-.91-.5-1.25-.87-.62-.81-.81-1.31-.29-1.05-.29-1.64.1-1.14.29-1.64.46-.94.81-1.31.77-.66,1.25-.87c.49-.21,1.03-.31,1.62-.31s1.13.1,1.62.31c.49.21.91.5,1.25.87s.62.81.81,1.31.29,1.05.29,1.64-.1,1.15-.29,1.65-.46.93-.82,1.3l.77.82-.7.6-.78-.83c-.3.19-.64.34-1,.44s-.75.16-1.16.16ZM760.8,163.5c.57,0,1.08-.14,1.52-.41l-1.14-1.24.7-.59,1.13,1.22c.23-.29.41-.62.54-1s.19-.79.19-1.24-.07-.9-.21-1.3c-.14-.4-.34-.74-.59-1.03-.26-.29-.56-.51-.92-.68s-.76-.25-1.21-.25-.85.08-1.22.25c-.36.16-.67.39-.93.68-.26.29-.45.63-.59,1.03-.14.4-.2.83-.2,1.3s.07.89.2,1.29c.14.4.33.74.59,1.03.26.29.57.52.93.68.36.16.77.25,1.22.25Z"/><path class="cls-6" d="M768.83,164.39c-.44,0-.84-.08-1.19-.24s-.66-.38-.91-.65c-.25-.28-.44-.6-.57-.97-.13-.37-.2-.76-.2-1.19s.07-.81.2-1.18c.13-.37.32-.69.57-.97.25-.27.55-.49.91-.65.36-.16.75-.24,1.19-.24s.84.08,1.19.24c.36.16.66.38.91.65.25.27.44.59.57.97s.2.77.2,1.18-.07.82-.2,1.19-.32.69-.57.97c-.25.28-.55.49-.91.65s-.75.24-1.19.24ZM768.83,163.59c.31,0,.59-.06.82-.19s.44-.29.6-.49.29-.44.37-.71c.08-.27.13-.56.13-.85s-.04-.58-.13-.85c-.08-.27-.21-.5-.37-.71s-.36-.37-.6-.49c-.24-.12-.51-.19-.82-.19s-.59.06-.83.19c-.24.12-.44.29-.61.49s-.29.44-.37.71c-.08.27-.13.55-.13.85s.04.58.13.85c.08.27.21.51.37.71s.37.37.61.49.52.19.83.19Z"/><path class="cls-6" d="M773.16,164.25v-8h.9v8h-.9Z"/><path class="cls-6" d="M744.54,184.44c-.43,0-.82-.07-1.16-.22-.34-.14-.65-.38-.93-.71l.52-.76c.18.21.38.39.62.55.24.16.54.24.89.24.5,0,.89-.15,1.18-.46s.43-.71.43-1.22v-5.58h1v5.59c0,.43-.07.81-.2,1.13-.13.32-.31.59-.54.8s-.5.36-.8.47c-.31.1-.64.16-1,.16Z"/><path class="cls-6" d="M752.54,184.3v-.66c-.49.54-1.13.8-1.92.8-.25,0-.49-.04-.73-.12-.24-.08-.46-.2-.65-.37s-.35-.37-.47-.61c-.12-.24-.18-.52-.18-.83s.06-.6.18-.84c.12-.24.28-.44.47-.6s.41-.28.65-.35c.24-.08.48-.11.73-.11.4,0,.76.06,1.09.19.32.13.6.33.83.6v-1.04c0-.39-.14-.69-.41-.91-.28-.21-.63-.32-1.05-.32-.68,0-1.27.27-1.78.8l-.42-.62c.62-.64,1.39-.96,2.32-.96.3,0,.59.04.86.11s.51.19.71.34c.2.16.37.36.49.61.12.25.18.55.18.9v3.98h-.9ZM750.95,183.79c.32,0,.62-.06.91-.18.28-.12.51-.3.69-.54v-1.09c-.18-.24-.41-.42-.69-.54-.28-.12-.59-.18-.91-.18-.42,0-.77.12-1.03.35-.26.24-.4.54-.4.92s.13.67.4.91c.26.24.61.35,1.03.35Z"/><path class="cls-6" d="M756.71,184.44c-.43,0-.75-.12-.97-.35s-.32-.57-.32-1v-3.78h-.96v-.8h.96v-1.58h.9v1.58h1.18v.8h-1.18v3.59c0,.22.05.39.14.53.1.14.24.21.44.21.13,0,.25-.02.35-.07s.19-.1.26-.17l.26.67c-.11.11-.25.2-.43.27-.17.07-.39.1-.65.1Z"/><path class="cls-6" d="M761.3,184.44c-.44,0-.84-.08-1.19-.24-.36-.16-.66-.38-.91-.65-.25-.28-.44-.6-.57-.97-.13-.37-.2-.76-.2-1.19s.07-.81.2-1.18c.13-.37.32-.69.57-.97.25-.27.55-.49.91-.65s.75-.24,1.19-.24.84.08,1.19.24.66.38.91.65c.25.27.44.59.57.97s.2.77.2,1.18-.07.82-.2,1.19c-.13.37-.32.69-.57.97-.25.28-.55.49-.91.65-.36.16-.75.24-1.19.24ZM761.3,183.64c.31,0,.59-.06.82-.19.24-.12.44-.29.6-.49s.29-.44.37-.71c.08-.27.13-.56.13-.85s-.04-.58-.13-.85c-.08-.27-.21-.5-.37-.71s-.36-.37-.6-.49-.51-.19-.82-.19-.59.06-.83.19-.44.29-.61.49-.29.44-.37.71c-.08.27-.13.55-.13.85s.04.58.13.85c.08.27.21.51.37.71s.37.37.61.49c.24.12.52.19.83.19Z"/><path class="cls-6" d="M765.63,184.3v-8h.9v3.08c.23-.32.52-.57.85-.75.34-.18.7-.27,1.1-.27.38,0,.72.07,1.04.22.32.14.59.35.82.61s.41.58.53.96.19.8.19,1.26-.06.9-.19,1.27-.31.69-.53.95-.5.46-.82.6-.66.21-1.04.21c-.41,0-.78-.09-1.12-.28-.34-.19-.62-.43-.83-.73v.86h-.9ZM766.53,182.72c.16.26.4.47.71.65.32.18.65.26,1.01.26.3,0,.56-.06.79-.17s.43-.27.59-.47c.16-.2.28-.44.37-.71.08-.27.13-.57.13-.89s-.04-.62-.13-.89-.21-.51-.37-.71c-.16-.2-.36-.36-.59-.47-.23-.11-.5-.17-.79-.17-.36,0-.7.09-1.01.28-.32.18-.55.4-.71.66v2.63Z"/><path class="cls-6" d="M776.16,184.3v-.66c-.49.54-1.13.8-1.92.8-.25,0-.49-.04-.73-.12-.24-.08-.46-.2-.65-.37s-.35-.37-.47-.61c-.12-.24-.18-.52-.18-.83s.06-.6.18-.84c.12-.24.28-.44.47-.6s.41-.28.65-.35c.24-.08.48-.11.73-.11.4,0,.76.06,1.09.19.32.13.6.33.83.6v-1.04c0-.39-.14-.69-.41-.91-.28-.21-.63-.32-1.05-.32-.68,0-1.27.27-1.78.8l-.42-.62c.62-.64,1.39-.96,2.32-.96.3,0,.59.04.86.11s.51.19.71.34c.2.16.37.36.49.61.12.25.18.55.18.9v3.98h-.9ZM774.56,183.79c.32,0,.62-.06.91-.18.28-.12.51-.3.69-.54v-1.09c-.18-.24-.41-.42-.69-.54-.28-.12-.59-.18-.91-.18-.42,0-.77.12-1.03.35-.26.24-.4.54-.4.92s.13.67.4.91c.26.24.61.35,1.03.35Z"/><path class="cls-6" d="M745.23,204.34v-7.12h-2.53v-.89h6.07v.89h-2.54v7.12h-1Z"/><path class="cls-6" d="M752.54,204.34v-.66c-.49.54-1.13.8-1.92.8-.25,0-.49-.04-.73-.12-.24-.08-.46-.2-.65-.37s-.35-.37-.47-.61c-.12-.24-.18-.52-.18-.83s.06-.6.18-.84c.12-.24.28-.44.47-.6s.41-.28.65-.35c.24-.08.48-.11.73-.11.4,0,.76.06,1.09.19.32.13.6.33.83.6v-1.04c0-.39-.14-.69-.41-.91-.28-.21-.63-.32-1.05-.32-.68,0-1.27.27-1.78.8l-.42-.62c.62-.64,1.39-.96,2.32-.96.3,0,.59.04.86.11s.51.19.71.34c.2.16.37.36.49.61.12.25.18.55.18.9v3.98h-.9ZM750.95,203.84c.32,0,.62-.06.91-.18.28-.12.51-.3.69-.54v-1.09c-.18-.24-.41-.42-.69-.54-.28-.12-.59-.18-.91-.18-.42,0-.77.12-1.03.35-.26.24-.4.54-.4.92s.13.67.4.91c.26.24.61.35,1.03.35Z"/><path class="cls-6" d="M755.24,204.34v-5.8h.9v2.4h3.02v-2.4h.9v5.8h-.9v-2.59h-3.02v2.59h-.9Z"/><path class="cls-6" d="M762.92,204.34v-4.99h-1.68v-.8h4.27v.8h-1.69v4.99h-.9Z"/><path class="cls-6" d="M769.22,204.49c-.44,0-.84-.08-1.19-.24-.36-.16-.66-.38-.91-.65-.25-.28-.44-.6-.57-.97-.13-.37-.2-.76-.2-1.19s.07-.81.2-1.18c.13-.37.32-.69.57-.97.25-.27.55-.49.91-.65s.75-.24,1.19-.24.84.08,1.19.24.66.38.91.65c.25.27.44.59.57.97s.2.77.2,1.18-.07.82-.2,1.19c-.13.37-.32.69-.57.97-.25.28-.55.49-.91.65-.36.16-.75.24-1.19.24ZM769.22,203.68c.31,0,.59-.06.82-.19.24-.12.44-.29.6-.49s.29-.44.37-.71c.08-.27.13-.56.13-.85s-.04-.58-.13-.85c-.08-.27-.21-.5-.37-.71s-.36-.37-.6-.49-.51-.19-.82-.19-.59.06-.83.19-.44.29-.61.49-.29.44-.37.71c-.08.27-.13.55-.13.85s.04.58.13.85c.08.27.21.51.37.71s.37.37.61.49c.24.12.52.19.83.19Z"/><path class="cls-6" d="M776.41,204.49c-.4,0-.77-.09-1.1-.26s-.62-.43-.85-.76v3.08h-.9v-8h.9v.86c.21-.3.48-.54.83-.73.34-.19.72-.28,1.13-.28.38,0,.73.07,1.05.21.32.14.59.34.82.6s.4.58.53.95.19.8.19,1.27-.06.9-.19,1.27-.3.7-.53.96c-.23.26-.5.47-.82.61-.32.14-.67.21-1.05.21ZM776.18,203.68c.29,0,.55-.06.78-.17.23-.11.43-.27.59-.47s.28-.44.37-.71c.08-.28.13-.57.13-.89s-.04-.62-.13-.89c-.08-.27-.21-.51-.37-.71s-.36-.36-.59-.47c-.23-.11-.49-.17-.78-.17-.36,0-.7.09-1.01.27-.32.18-.55.4-.71.65v2.62c.16.26.4.48.71.66.32.18.65.28,1.01.28Z"/><path class="cls-6" d="M743.25,224.39v-8h3.22c.4,0,.76.06,1.07.19s.57.3.79.52.37.48.49.77c.11.29.17.6.17.93s-.06.64-.17.93c-.11.29-.28.55-.49.77-.22.22-.48.39-.79.52s-.66.19-1.06.19h-2.22v3.18h-1ZM746.35,220.32c.48,0,.87-.14,1.16-.42s.44-.65.44-1.1-.15-.82-.44-1.1-.68-.42-1.16-.42h-2.1v3.05h2.1Z"/><path class="cls-6" d="M750.26,224.39v-8h.9v8h-.9Z"/><path class="cls-6" d="M756.59,224.39v-.66c-.49.54-1.13.8-1.92.8-.25,0-.49-.04-.73-.12-.24-.08-.46-.2-.65-.37s-.35-.37-.47-.61c-.12-.24-.18-.52-.18-.83s.06-.6.18-.84c.12-.24.28-.44.47-.6s.41-.28.65-.35c.24-.08.48-.11.73-.11.4,0,.76.06,1.09.19.32.13.6.33.83.6v-1.04c0-.39-.14-.69-.41-.91-.28-.21-.63-.32-1.05-.32-.68,0-1.27.27-1.78.8l-.42-.62c.62-.64,1.39-.96,2.32-.96.3,0,.59.04.86.11s.51.19.71.34c.2.16.37.36.49.61.12.25.18.55.18.9v3.98h-.9ZM754.99,223.89c.32,0,.62-.06.91-.18.28-.12.51-.3.69-.54v-1.09c-.18-.24-.41-.42-.69-.54-.28-.12-.59-.18-.91-.18-.42,0-.77.12-1.03.35-.26.24-.4.54-.4.92s.13.67.4.91c.26.24.61.35,1.03.35Z"/><path class="cls-6" d="M760.75,224.54c-.43,0-.75-.12-.97-.35s-.32-.57-.32-1v-3.78h-.96v-.8h.96v-1.58h.9v1.58h1.18v.8h-1.18v3.59c0,.22.05.39.14.53.1.14.24.21.44.21.13,0,.25-.02.35-.07s.19-.1.26-.17l.26.67c-.11.11-.25.2-.43.27-.17.07-.39.1-.65.1Z"/><path class="cls-6" d="M763.07,224.39v-4.99h-.96v-.8h.96v-.44c0-.6.15-1.06.45-1.39.3-.33.71-.49,1.23-.49.23,0,.45.03.65.1.2.06.39.18.58.35l-.37.59c-.1-.09-.2-.16-.32-.21-.12-.05-.25-.08-.4-.08-.3,0-.52.1-.68.29-.16.2-.23.48-.23.85v.44h1.18v.8h-1.18v4.99h-.9Z"/><path class="cls-6" d="M768.74,224.54c-.44,0-.84-.08-1.19-.24-.36-.16-.66-.38-.91-.65-.25-.28-.44-.6-.57-.97-.13-.37-.2-.76-.2-1.19s.07-.81.2-1.18c.13-.37.32-.69.57-.97.25-.27.55-.49.91-.65s.75-.24,1.19-.24.84.08,1.19.24.66.38.91.65c.25.27.44.59.57.97s.2.77.2,1.18-.07.82-.2,1.19c-.13.37-.32.69-.57.97-.25.28-.55.49-.91.65-.36.16-.75.24-1.19.24ZM768.74,223.73c.31,0,.59-.06.82-.19.24-.12.44-.29.6-.49s.29-.44.37-.71c.08-.27.13-.56.13-.85s-.04-.58-.13-.85c-.08-.27-.21-.5-.37-.71s-.36-.37-.6-.49-.51-.19-.82-.19-.59.06-.83.19-.44.29-.61.49-.29.44-.37.71c-.08.27-.13.55-.13.85s.04.58.13.85c.08.27.21.51.37.71s.37.37.61.49c.24.12.52.19.83.19Z"/><path class="cls-6" d="M773.07,224.39v-5.8h.9v.94c.23-.3.51-.56.84-.76.33-.2.69-.3,1.09-.3v.92c-.11-.02-.23-.04-.36-.04-.14,0-.28.03-.44.08-.16.05-.31.12-.46.21s-.28.19-.4.29c-.12.11-.21.22-.28.34v4.1h-.9Z"/><path class="cls-6" d="M784.03,224.39v-3.94c0-.37-.08-.66-.25-.88s-.44-.32-.82-.32c-.3,0-.6.09-.88.27-.28.18-.5.39-.65.62v4.25h-.9v-3.94c0-.37-.08-.66-.25-.88s-.44-.32-.82-.32c-.3,0-.58.09-.86.28-.28.18-.5.39-.66.62v4.24h-.9v-5.8h.9v.84c.06-.1.15-.2.27-.31.12-.11.27-.22.44-.32.17-.1.35-.18.55-.25.2-.07.4-.1.62-.1.45,0,.8.1,1.05.31s.42.46.51.77c.08-.13.19-.26.32-.39.14-.13.29-.25.46-.35.17-.1.35-.18.55-.25.2-.06.4-.1.61-.1.53,0,.93.15,1.21.44.28.29.41.73.41,1.31v4.19h-.9Z"/><path class="cls-6" d="M792.25,224.39l-3.22-8h1.14l2.7,6.91,2.7-6.91h1.14l-3.23,8h-1.24Z"/><path class="cls-6" d="M800.85,224.39v-8h3.22c.4,0,.76.06,1.07.19s.57.3.79.52.37.48.49.77c.11.29.17.6.17.93s-.06.64-.17.93c-.11.29-.28.55-.49.77-.22.22-.48.39-.79.52s-.66.19-1.06.19h-2.22v3.18h-1ZM803.95,220.32c.48,0,.87-.14,1.16-.42s.44-.65.44-1.1-.15-.82-.44-1.1-.68-.42-1.16-.42h-2.1v3.05h2.1Z"/><path class="cls-6" d="M811.25,224.39v-.66c-.49.54-1.13.8-1.92.8-.25,0-.49-.04-.73-.12-.24-.08-.46-.2-.65-.37s-.35-.37-.47-.61c-.12-.24-.18-.52-.18-.83s.06-.6.18-.84c.12-.24.28-.44.47-.6s.41-.28.65-.35c.24-.08.48-.11.73-.11.4,0,.76.06,1.09.19.32.13.6.33.83.6v-1.04c0-.39-.14-.69-.41-.91-.28-.21-.63-.32-1.05-.32-.68,0-1.27.27-1.78.8l-.42-.62c.62-.64,1.39-.96,2.32-.96.3,0,.59.04.86.11s.51.19.71.34c.2.16.37.36.49.61.12.25.18.55.18.9v3.98h-.9ZM809.65,223.89c.32,0,.62-.06.91-.18.28-.12.51-.3.69-.54v-1.09c-.18-.24-.41-.42-.69-.54-.28-.12-.59-.18-.91-.18-.42,0-.77.12-1.03.35-.26.24-.4.54-.4.92s.13.67.4.91c.26.24.61.35,1.03.35Z"/><path class="cls-6" d="M817.86,224.39v-3.79c0-.51-.12-.86-.35-1.06-.24-.19-.55-.29-.94-.29-.18,0-.35.02-.52.07s-.33.11-.48.2-.29.18-.41.29c-.12.11-.23.22-.31.34v4.24h-.9v-5.8h.9v.84c.1-.12.23-.24.37-.35.14-.12.31-.22.49-.32.18-.1.37-.17.58-.23.2-.06.41-.08.63-.08,1.23,0,1.85.62,1.85,1.87v4.07h-.9Z"/><path class="cls-6" d="M822.89,226.74c-.5,0-.92-.06-1.28-.18-.36-.12-.71-.35-1.06-.68l.46-.67c.24.29.51.49.81.61.3.12.66.18,1.07.18.24,0,.47-.03.7-.09.22-.06.42-.16.59-.3.17-.14.31-.32.41-.54.1-.22.16-.49.16-.81v-.83c-.21.3-.48.54-.82.74-.34.2-.71.29-1.12.29-.38,0-.72-.07-1.04-.2-.32-.14-.59-.33-.82-.59-.23-.26-.41-.57-.53-.94s-.19-.79-.19-1.26.06-.88.19-1.25.3-.69.53-.95.5-.46.82-.6c.32-.14.67-.21,1.05-.21s.76.09,1.09.27c.34.18.62.43.85.75v-.88h.9v5.63c0,.48-.08.88-.23,1.21-.16.32-.36.58-.62.77-.26.19-.55.33-.88.41s-.67.13-1.03.13ZM823.02,223.66c.18,0,.35-.03.53-.08.18-.05.34-.12.49-.21s.29-.19.41-.3c.12-.11.22-.23.3-.36v-2.53c-.08-.13-.18-.25-.3-.36-.12-.11-.26-.21-.41-.29-.15-.08-.32-.15-.49-.2-.18-.05-.35-.08-.53-.08-.29,0-.55.05-.78.16-.23.11-.43.26-.59.46-.16.2-.28.43-.37.7-.08.27-.13.57-.13.88s.04.61.13.88.21.5.37.69c.16.2.36.35.59.46.23.11.49.17.78.17Z"/><path class="cls-6" d="M829.98,224.54c-.44,0-.84-.08-1.19-.24-.36-.16-.66-.38-.91-.65-.25-.28-.44-.6-.57-.97-.13-.37-.2-.76-.2-1.19s.07-.81.2-1.18c.13-.37.32-.69.57-.97.25-.27.55-.49.91-.65s.75-.24,1.19-.24.84.08,1.19.24.66.38.91.65c.25.27.44.59.57.97s.2.77.2,1.18-.07.82-.2,1.19c-.13.37-.32.69-.57.97-.25.28-.55.49-.91.65-.36.16-.75.24-1.19.24ZM829.98,223.73c.31,0,.59-.06.82-.19.24-.12.44-.29.6-.49s.29-.44.37-.71c.08-.27.13-.56.13-.85s-.04-.58-.13-.85c-.08-.27-.21-.5-.37-.71s-.36-.37-.6-.49-.51-.19-.82-.19-.59.06-.83.19-.44.29-.61.49-.29.44-.37.71c-.08.27-.13.55-.13.85s.04.58.13.85c.08.27.21.51.37.71s.37.37.61.49c.24.12.52.19.83.19Z"/><path class="cls-6" d="M834.31,224.39v-8h.9v8h-.9Z"/><path class="cls-6" d="M837.45,217.77c-.16,0-.3-.06-.42-.17-.12-.12-.18-.26-.18-.43s.06-.31.18-.43c.12-.12.26-.18.42-.18s.31.06.43.18.18.26.18.43-.06.31-.18.43c-.12.12-.26.17-.43.17ZM837.01,224.39v-5.8h.9v5.8h-.9Z"/><path class="cls-6" d="M843.62,224.39v-3.79c0-.51-.12-.86-.35-1.06-.24-.19-.55-.29-.94-.29-.18,0-.35.02-.52.07s-.33.11-.48.2-.29.18-.41.29c-.12.11-.23.22-.31.34v4.24h-.9v-5.8h.9v.84c.1-.12.23-.24.37-.35.14-.12.31-.22.49-.32.18-.1.37-.17.58-.23.2-.06.41-.08.63-.08,1.23,0,1.85.62,1.85,1.87v4.07h-.9Z"/><path class="cls-6" d="M748.09,244.44l-3.04-3.6-.8.91v2.69h-1v-8h1v4.14l3.54-4.14h1.25l-3.34,3.8,3.62,4.2h-1.24Z"/><path class="cls-6" d="M750.43,244.44v-5.8h3.19c.51,0,.91.14,1.2.41s.43.63.43,1.07c0,.35-.09.64-.28.86s-.41.38-.65.46c.14.04.28.1.41.19s.24.2.34.32c.1.13.17.27.23.42.06.15.08.31.08.48,0,.47-.15.85-.44,1.14-.3.29-.71.43-1.25.43h-3.25ZM753.47,241.06c.28,0,.49-.08.64-.22.15-.15.22-.34.22-.57,0-.25-.07-.45-.22-.6-.15-.15-.36-.22-.64-.22h-2.14v1.61h2.14ZM753.5,243.64c.29,0,.52-.08.68-.23.17-.16.25-.37.25-.65,0-.23-.08-.44-.24-.62s-.39-.27-.7-.27h-2.17v1.78h2.17Z"/><path class="cls-6" d="M760.7,244.44v-.66c-.49.54-1.13.8-1.92.8-.25,0-.49-.04-.73-.12-.24-.08-.46-.2-.65-.37s-.35-.37-.47-.61c-.12-.24-.18-.52-.18-.83s.06-.6.18-.84c.12-.24.28-.44.47-.6s.41-.28.65-.35c.24-.08.48-.11.73-.11.4,0,.76.06,1.09.19.32.13.6.33.83.6v-1.04c0-.39-.14-.69-.41-.91-.28-.21-.63-.32-1.05-.32-.68,0-1.27.27-1.78.8l-.42-.62c.62-.64,1.39-.96,2.32-.96.3,0,.59.04.86.11s.51.19.71.34c.2.16.37.36.49.61.12.25.18.55.18.9v3.98h-.9ZM759.11,243.94c.32,0,.62-.06.91-.18.28-.12.51-.3.69-.54v-1.09c-.18-.24-.41-.42-.69-.54-.28-.12-.59-.18-.91-.18-.42,0-.77.12-1.03.35-.26.24-.4.54-.4.92s.13.67.4.91c.26.24.61.35,1.03.35Z"/><path class="cls-6" d="M763.4,244.44v-5.8h.9v2.4h3.02v-2.4h.9v5.8h-.9v-2.59h-3.02v2.59h-.9Z"/><path class="cls-6" d="M771.08,244.44v-4.99h-1.68v-.8h4.27v.8h-1.69v4.99h-.9Z"/><path class="cls-6" d="M774.31,241.93v-.8h2.88v.8h-2.88Z"/><path class="cls-6" d="M778.49,244.44v-8h5.24v.89h-4.25v7.12h-1Z"/><path class="cls-6" d="M784.03,244.44v-5.8h.9v4.43l3.04-4.43h.89v5.8h-.9v-4.51l-3.06,4.51h-.86Z"/><path class="cls-6" d="M793.19,244.58c-.45,0-.85-.08-1.2-.25s-.65-.39-.9-.69-.44-.65-.57-1.05c-.13-.4-.2-.85-.2-1.33,0-.7.06-1.31.19-1.82s.32-.93.57-1.27.57-.6.95-.79c.38-.19.82-.31,1.33-.38.32-.05.58-.09.79-.14.21-.04.37-.09.5-.14s.21-.1.26-.14c.05-.05.08-.1.08-.17h.88c0,.24-.07.44-.22.59s-.33.28-.55.38-.47.17-.74.23c-.27.06-.53.1-.77.13-.43.06-.79.16-1.08.28s-.52.26-.71.43-.33.36-.43.57-.17.44-.22.69c.1-.17.23-.33.37-.47.14-.15.31-.28.49-.39s.39-.2.61-.27c.22-.07.46-.1.71-.1.41,0,.78.08,1.12.24s.62.38.86.65c.24.28.42.6.55.97.13.37.19.76.19,1.16s-.06.81-.19,1.18c-.13.37-.32.7-.56.97-.25.28-.55.5-.9.66s-.75.25-1.2.25ZM793.19,243.78c.31,0,.59-.06.82-.19.24-.12.44-.29.6-.49s.29-.44.37-.71c.08-.27.13-.56.13-.86,0-.29-.04-.57-.13-.83-.08-.27-.21-.5-.37-.71s-.36-.37-.6-.49-.51-.19-.82-.19-.59.06-.83.19-.44.29-.61.49-.29.44-.37.71c-.08.27-.13.55-.13.83,0,.3.04.59.13.86.08.27.21.51.37.71s.37.37.61.49c.24.12.52.19.83.19Z"/><path class="cls-6" d="M800.43,244.58c-.4,0-.77-.09-1.1-.26s-.62-.43-.85-.76v3.08h-.9v-8h.9v.86c.21-.3.48-.54.83-.73.34-.19.72-.28,1.13-.28.38,0,.73.07,1.05.21.32.14.59.34.82.6s.4.58.53.95.19.8.19,1.27-.06.9-.19,1.27-.3.7-.53.96c-.23.26-.5.47-.82.61-.32.14-.67.21-1.05.21ZM800.2,243.78c.29,0,.55-.06.78-.17.23-.11.43-.27.59-.47s.28-.44.37-.71c.08-.28.13-.57.13-.89s-.04-.62-.13-.89c-.08-.27-.21-.51-.37-.71s-.36-.36-.59-.47c-.23-.11-.49-.17-.78-.17-.36,0-.7.09-1.01.27-.32.18-.55.4-.71.65v2.62c.16.26.4.48.71.66.32.18.65.28,1.01.28Z"/><path class="cls-6" d="M804.44,244.44v-5.8h.9v4.43l3.04-4.43h.89v5.8h-.9v-4.51l-3.06,4.51h-.86Z"/><path class="cls-6" d="M810.38,243.7c.14-.02.26-.07.37-.14.11-.07.21-.19.3-.35s.17-.38.25-.65c.07-.27.14-.62.19-1.06l.37-2.86h4.03v4.99h.67v2.28h-.9v-1.48h-4.38v1.48h-.9v-2.22ZM812.38,241.61c-.07.55-.18.98-.32,1.3s-.31.56-.52.73h3.44v-4.19h-2.34l-.26,2.16Z"/><path class="cls-6" d="M742.7,263.74c.24,0,.45-.04.64-.13s.36-.24.51-.48c.15-.24.28-.56.39-.98.11-.42.21-.97.29-1.65l.49-4.02h4.9v8h-1v-7.12h-3.01l-.4,3.2c-.11.88-.25,1.59-.43,2.12s-.38.94-.61,1.23-.5.48-.8.57c-.3.09-.62.14-.98.14v-.89Z"/><path class="cls-6" d="M751.76,264.49v-5.8h.9v4.43l3.04-4.43h.89v5.8h-.9v-4.51l-3.06,4.51h-.86Z"/><path class="cls-6" d="M758.39,264.49v-5.8h.9v2.4h3.02v-2.4h.9v5.8h-.9v-2.59h-3.02v2.59h-.9Z"/><path class="cls-6" d="M766.07,264.49v-4.99h-1.68v-.8h4.27v.8h-1.69v4.99h-.9Z"/><path class="cls-6" d="M772.45,264.63c-.43,0-.83-.07-1.19-.22-.36-.15-.67-.36-.93-.62-.26-.27-.46-.59-.61-.96-.15-.37-.22-.79-.22-1.24,0-.42.07-.81.22-1.18.14-.37.34-.69.6-.97.25-.27.55-.49.9-.65.35-.16.73-.24,1.15-.24.44,0,.83.08,1.18.24.34.16.64.38.88.66.24.28.42.61.55.99.12.38.19.79.19,1.22v.23h-4.7c.02.27.08.53.18.77.1.24.25.46.43.64.18.18.39.32.64.43s.53.16.84.16c.34,0,.66-.06.97-.19s.58-.31.82-.54l.43.59c-.29.29-.62.51-1.01.66-.38.15-.82.23-1.3.23ZM774.25,261.22c0-.22-.04-.44-.11-.67-.08-.23-.19-.44-.35-.62-.16-.19-.35-.34-.59-.46-.24-.12-.52-.18-.85-.18s-.58.06-.82.18-.43.27-.58.46c-.16.18-.28.39-.36.62-.08.23-.13.45-.14.68h3.8Z"/><path class="cls-6" d="M779.45,264.63c-.4,0-.77-.09-1.1-.26s-.62-.43-.85-.76v3.08h-.9v-8h.9v.86c.21-.3.48-.54.83-.73.34-.19.72-.28,1.13-.28.38,0,.73.07,1.05.21.32.14.59.34.82.6s.4.58.53.95.19.8.19,1.27-.06.9-.19,1.27-.3.7-.53.96-.5.47-.82.61c-.32.14-.67.21-1.05.21ZM779.22,263.83c.29,0,.55-.06.78-.17.23-.11.43-.27.59-.47s.28-.44.37-.71.13-.57.13-.89-.04-.62-.13-.89c-.08-.27-.21-.51-.37-.71-.16-.2-.36-.36-.59-.47-.23-.11-.49-.17-.78-.17-.36,0-.7.09-1.01.27-.32.18-.55.4-.71.65v2.62c.16.26.4.48.71.66.32.18.65.28,1.01.28Z"/><path class="cls-6" d="M791.78,256.48v.89h-4.2v2.29h2.22c.39,0,.74.06,1.06.19s.58.3.79.52c.22.22.38.48.49.77.11.29.17.6.17.93s-.06.64-.17.93c-.11.29-.27.55-.49.77-.21.22-.47.39-.79.52s-.67.19-1.07.19h-3.22v-8h5.2ZM787.58,260.55v3.05h2.1c.48,0,.87-.14,1.16-.42s.44-.65.44-1.1-.15-.82-.44-1.1-.68-.42-1.16-.42h-2.1Z"/><path class="cls-6" d="M797.22,264.49v-.66c-.49.54-1.13.8-1.92.8-.25,0-.49-.04-.73-.12-.24-.08-.46-.2-.65-.37s-.35-.37-.47-.61-.18-.52-.18-.83.06-.6.18-.84c.12-.24.28-.44.47-.6s.41-.28.65-.35c.24-.08.48-.11.73-.11.4,0,.76.06,1.09.19.32.13.6.33.83.6v-1.04c0-.39-.14-.69-.41-.91-.28-.21-.63-.32-1.05-.32-.68,0-1.27.27-1.78.8l-.42-.62c.62-.64,1.39-.96,2.32-.96.3,0,.59.04.86.11.27.07.51.19.71.34.2.16.37.36.49.61.12.25.18.55.18.9v3.98h-.9ZM795.62,263.98c.32,0,.62-.06.91-.18.28-.12.51-.3.69-.54v-1.09c-.18-.24-.41-.42-.69-.54-.28-.12-.59-.18-.91-.18-.42,0-.77.12-1.03.35s-.4.54-.4.92.13.67.4.91c.26.24.61.35,1.03.35Z"/><path class="cls-6" d="M802.47,264.63c-.43,0-.83-.08-1.18-.23s-.66-.37-.91-.64c-.25-.27-.45-.59-.59-.97-.14-.37-.21-.77-.21-1.21s.07-.83.21-1.2.34-.69.59-.96c.25-.27.56-.49.91-.64.36-.16.75-.23,1.18-.23.53,0,.96.1,1.29.29.33.19.61.43.83.72l-.6.55c-.19-.26-.41-.46-.65-.58-.24-.12-.52-.18-.82-.18s-.59.06-.83.17-.45.27-.63.47c-.18.2-.31.44-.4.71-.09.27-.14.57-.14.89s.05.62.14.89c.09.28.23.51.4.71.18.2.39.36.63.47.24.11.52.17.83.17.61,0,1.1-.25,1.48-.76l.6.55c-.22.29-.5.53-.83.72-.33.19-.76.29-1.29.29Z"/><path class="cls-6" d="M806.91,264.49v-4.99h-1.68v-.8h4.27v.8h-1.69v4.99h-.9Z"/><path class="cls-6" d="M810.68,264.49v-5.8h.9v4.43l3.04-4.43h.89v5.8h-.9v-4.51l-3.06,4.51h-.86Z"/><path class="cls-6" d="M819.84,264.63c-.44,0-.84-.08-1.19-.24s-.66-.38-.91-.65c-.25-.28-.44-.6-.57-.97-.13-.37-.2-.76-.2-1.19s.07-.81.2-1.18c.13-.37.32-.69.57-.97.25-.27.55-.49.91-.65.36-.16.75-.24,1.19-.24s.84.08,1.19.24c.36.16.66.38.91.65.25.27.44.59.57.97s.2.77.2,1.18-.07.82-.2,1.19-.32.69-.57.97c-.25.28-.55.49-.91.65s-.75.24-1.19.24ZM819.84,263.83c.31,0,.59-.06.82-.19s.44-.29.6-.49.29-.44.37-.71c.08-.27.13-.56.13-.85s-.04-.58-.13-.85c-.08-.27-.21-.5-.37-.71s-.36-.37-.6-.49c-.24-.12-.51-.19-.82-.19s-.59.06-.83.19c-.24.12-.44.29-.61.49s-.29.44-.37.71c-.08.27-.13.55-.13.85s.04.58.13.85c.08.27.21.51.37.71s.37.37.61.49.52.19.83.19Z"/><path class="cls-6" d="M824.17,264.49v-5.8h.9v2.4h3.02v-2.4h.9v5.8h-.9v-2.59h-3.02v2.59h-.9Z"/><path class="cls-6" d="M742.7,283.79c.24,0,.45-.04.64-.13s.36-.24.51-.48c.15-.24.28-.56.39-.98.11-.42.21-.97.29-1.65l.49-4.02h4.9v8h-1v-7.12h-3.01l-.4,3.2c-.11.88-.25,1.59-.43,2.12s-.38.94-.61,1.23-.5.48-.8.57c-.3.09-.62.14-.98.14v-.89Z"/><path class="cls-6" d="M751.76,284.54v-5.8h.9v4.43l3.04-4.43h.89v5.8h-.9v-4.51l-3.06,4.51h-.86Z"/><path class="cls-6" d="M761.24,284.68c-.4,0-.77-.09-1.1-.26s-.62-.43-.85-.76v3.08h-.9v-8h.9v.86c.21-.3.48-.54.83-.73.34-.19.72-.28,1.13-.28.38,0,.73.07,1.05.21.32.14.59.34.82.6s.4.58.53.95.19.8.19,1.27-.06.9-.19,1.27-.3.7-.53.96-.5.47-.82.61c-.32.14-.67.21-1.05.21ZM761.01,283.88c.29,0,.55-.06.78-.17.23-.11.43-.27.59-.47s.28-.44.37-.71.13-.57.13-.89-.04-.62-.13-.89c-.08-.27-.21-.51-.37-.71-.16-.2-.36-.36-.59-.47-.23-.11-.49-.17-.78-.17-.36,0-.7.09-1.01.27-.32.18-.55.4-.71.65v2.62c.16.26.4.48.71.66.32.18.65.28,1.01.28Z"/><path class="cls-6" d="M768.87,284.54v-.66c-.49.54-1.13.8-1.92.8-.25,0-.49-.04-.73-.12-.24-.08-.46-.2-.65-.37s-.35-.37-.47-.61-.18-.52-.18-.83.06-.6.18-.84c.12-.24.28-.44.47-.6s.41-.28.65-.35c.24-.08.48-.11.73-.11.4,0,.76.06,1.09.19.32.13.6.33.83.6v-1.04c0-.39-.14-.69-.41-.91-.28-.21-.63-.32-1.05-.32-.68,0-1.27.27-1.78.8l-.42-.62c.62-.64,1.39-.96,2.32-.96.3,0,.59.04.86.11.27.07.51.19.71.34.2.16.37.36.49.61.12.25.18.55.18.9v3.98h-.9ZM767.28,284.03c.32,0,.62-.06.91-.18.28-.12.51-.3.69-.54v-1.09c-.18-.24-.41-.42-.69-.54-.28-.12-.59-.18-.91-.18-.42,0-.77.12-1.03.35s-.4.54-.4.92.13.67.4.91c.26.24.61.35,1.03.35Z"/><path class="cls-6" d="M771.03,282.03v-.8h2.88v.8h-2.88Z"/><path class="cls-6" d="M775.21,284.54v-8h3.22c.4,0,.76.06,1.07.19s.57.3.79.52c.21.22.37.48.49.77.11.29.17.6.17.93s-.06.64-.17.93c-.11.29-.28.55-.49.77s-.48.39-.79.52-.66.19-1.06.19h-2.22v3.18h-1ZM778.31,280.47c.48,0,.87-.14,1.16-.42.29-.28.44-.65.44-1.1s-.15-.82-.44-1.1c-.29-.28-.68-.42-1.16-.42h-2.1v3.05h2.1Z"/><rect class="cls-16" x="708.95" y="15" width="19.81" height="10.3"/><rect class="cls-11" x="708.95" y="35.1" width="19.81" height="10.3"/><rect class="cls-12" x="708.95" y="55.21" width="19.81" height="10.3"/><rect class="cls-14" x="708.95" y="75.31" width="19.81" height="10.3"/><rect class="cls-15" x="708.95" y="95.42" width="19.81" height="10.3"/><rect class="cls-13" x="708.95" y="115.52" width="19.81" height="10.3"/><rect class="cls-8" x="708.95" y="135.62" width="19.81" height="10.3"/><rect class="cls-8" x="708.95" y="155.73" width="19.81" height="10.3"/><rect class="cls-18" x="708.95" y="175.83" width="19.81" height="10.3"/><rect class="cls-18" x="708.95" y="195.94" width="19.81" height="10.3"/><rect class="cls-18" x="708.95" y="216.04" width="19.81" height="10.3"/><rect class="cls-18" x="708.95" y="236.15" width="19.81" height="10.3"/><rect class="cls-18" x="708.95" y="256.25" width="19.81" height="10.3"/><rect class="cls-17" x="708.95" y="276.35" width="19.81" height="10.3"/><path class="cls-3" d="M591.81,139.16c-.5-5.97-1.35-11.92-2.54-17.69l.39-.08c1.19,5.78,2.05,11.75,2.55,17.74l-.4.03Z"/><rect class="cls-3" x="582.05" y="139.37" width="9.98" height=".4" transform="translate(-9.56 49.23) rotate(-4.76)"/><rect class="cls-3" x="579.59" y="122.24" width="9.98" height=".4" transform="translate(-12.68 120.73) rotate(-11.67)"/><path class="cls-18" d="M592.3,163.07l-.4-.03c.23-3.06.37-6.29.41-9.62h.4c-.04,3.33-.18,6.58-.41,9.64Z"/><path class="cls-18" d="M587.89,189.46l-.39-.1c.71-2.7,1.34-5.44,1.89-8.16l.39.08c-.55,2.73-1.19,5.48-1.9,8.19Z"/><path class="cls-18" d="M589.79,181.28l-.39-.08c.57-2.83,1.07-5.79,1.49-8.8l.4.05c-.42,3.02-.93,5.99-1.5,8.83Z"/><path class="cls-18" d="M591.28,172.45l-.4-.05c.45-3.21.79-6.36,1.02-9.36l.4.03c-.23,3.01-.57,6.17-1.02,9.38Z"/><rect class="cls-18" x="587.32" y="148.38" width=".4" height="9.98" transform="translate(427.15 739.01) rotate(-89.32)"/><rect class="cls-18" x="586.93" y="157.68" width=".4" height="9.98" transform="translate(380 735.62) rotate(-85.61)"/><rect class="cls-18" x="585.95" y="166.74" width=".4" height="9.98" transform="translate(334.34 728.19) rotate(-81.98)"/><polygon class="cls-18" points="589.55 181.43 579.77 179.45 579.85 179.06 589.63 181.04 589.55 181.43"/><rect class="cls-18" x="582.67" y="183.16" width=".4" height="9.98" transform="translate(253.12 704.29) rotate(-75.32)"/></g></svg>