<svg width="0" height="0" class="hidden">
  <symbol xmlns="http://www.w3.org/2000/svg" viewBox="0 0 100 100" id="icon-ofc-01">
    <path d="M50 21.8915C41.1155 21.8915 33.9065 29.1005 33.9065 37.985C33.9065 46.8695 41.1155 54.0785 50 54.0785C58.8845 54.0785 66.0935 46.8695 66.0935 37.985C66.0935 29.1005 58.8845 21.8915 50 21.8915ZM50 0C22.3986 0 0 22.3765 0 50C0 77.6235 22.3765 100 50 100C77.6234 100 100 77.6235 100 50C100 22.3765 77.6014 0 50 0ZM50 85.9347C48.1261 85.9347 26.0803 62.985 26.0803 37.985C26.0803 24.7795 36.7945 14.0653 50 14.0653C63.2055 14.0653 73.9198 24.7795 73.9198 37.985C73.9198 62.963 51.8739 85.9347 50 85.9347Z"></path>
  </symbol>
  <symbol xmlns="http://www.w3.org/2000/svg" viewBox="0 0 100 100" id="icon-ofc-02">
    <path d="M50 0C22.3986 0 0 22.3765 0 50C0 77.6235 22.3765 100 50 100C77.6235 100 100 77.6235 100 50C100 22.3765 77.6014 0 50 0ZM23.9198 29.1887H76.0582C76.6534 29.1887 77.2046 29.2989 77.7116 29.5194L51.2125 52.3369C50.5732 52.888 49.3827 52.888 48.7434 52.3369L22.2443 29.5194C22.7513 29.321 23.3245 29.1887 23.8977 29.1887H23.9198ZM19.3342 66.2037V33.7963C19.3342 33.2011 19.4665 32.6499 19.6649 32.1208L40.4101 50L19.5326 67.5044C19.4224 67.0855 19.3342 66.6667 19.3342 66.2257V66.2037ZM76.0803 70.7892H23.9418C23.2143 70.7892 22.5309 70.6129 21.9136 70.3042L43.254 52.425L46.3845 55.1146C47.3986 55.9965 48.7213 56.4374 50.0221 56.4374C51.3228 56.4374 52.6455 55.9965 53.6596 55.1146L56.7901 52.425L78.1305 70.3042C77.5132 70.6129 76.8298 70.7892 76.1023 70.7892H76.0803ZM80.6658 66.2037C80.6658 66.6446 80.5776 67.0855 80.4674 67.4824L59.5899 49.978L80.3351 32.0988C80.5335 32.6279 80.6658 33.179 80.6658 33.7743V66.2037Z"></path>
  </symbol>
  <symbol xmlns="http://www.w3.org/2000/svg" viewBox="0 0 100 100" id="icon-ofc-03">
    <path d="M99.978 50C99.978 77.6014 77.6063 100 49.989 100C22.3716 100 0 77.6235 0 50C0 22.3765 22.3937 0 50.011 0C77.6284 0 100 22.3765 100 50H99.978ZM25.6116 78.5494C34.8689 77.4471 47.5204 71.6049 59.4005 59.7222C71.2806 47.8395 77.1214 35.1852 78.2235 25.9259C72.5589 22.112 66.3654 21.5388 66.3654 21.5388C66.3654 21.5388 64.4699 24.2945 61.8691 29.5635C59.2241 34.9647 58.9156 37.3457 58.9156 37.3457L63.7646 41.5123C63.7646 41.5123 62.0013 45.5247 53.6037 53.9242C45.2061 62.3236 41.1946 64.0873 41.1946 64.0873L37.0289 59.2372C37.0289 59.2372 34.6264 59.5459 29.2484 62.1914C23.9806 64.7928 21.2255 66.6887 21.2255 66.6887C21.2255 66.6887 21.7985 72.8616 25.6116 78.5494Z"></path>
  </symbol>
</svg>