<?xml version="1.0" encoding="UTF-8"?>
<svg xmlns="http://www.w3.org/2000/svg" xmlns:xlink="http://www.w3.org/1999/xlink" version="1.1" viewBox="0 0 595.3 841.9">
  <defs>
    <style>
      .cls-1 {
        fill: url(#linear-gradient);
      }

      .cls-1, .cls-2, .cls-3, .cls-4, .cls-5, .cls-6, .cls-7, .cls-8, .cls-9, .cls-10, .cls-11, .cls-12, .cls-13, .cls-14, .cls-15, .cls-16, .cls-17, .cls-18, .cls-19, .cls-20, .cls-21, .cls-22 {
        stroke-width: 0px;
      }

      .cls-2 {
        fill: url(#linear-gradient-11);
      }

      .cls-3 {
        fill: url(#linear-gradient-12);
      }

      .cls-4 {
        fill: url(#linear-gradient-13);
      }

      .cls-5 {
        fill: url(#linear-gradient-10);
      }

      .cls-6 {
        fill: url(#linear-gradient-17);
      }

      .cls-7 {
        fill: url(#linear-gradient-16);
      }

      .cls-8 {
        fill: url(#linear-gradient-19);
      }

      .cls-9 {
        fill: url(#linear-gradient-15);
      }

      .cls-10 {
        fill: url(#linear-gradient-21);
      }

      .cls-11 {
        fill: url(#linear-gradient-18);
      }

      .cls-12 {
        fill: url(#linear-gradient-14);
      }

      .cls-13 {
        fill: url(#linear-gradient-20);
      }

      .cls-14 {
        fill: #d5dae3;
        mix-blend-mode: multiply;
      }

      .cls-15 {
        fill: url(#linear-gradient-4);
      }

      .cls-16 {
        fill: url(#linear-gradient-2);
      }

      .cls-17 {
        fill: url(#linear-gradient-3);
      }

      .cls-18 {
        fill: url(#linear-gradient-8);
      }

      .cls-19 {
        fill: url(#linear-gradient-9);
      }

      .cls-20 {
        fill: url(#linear-gradient-7);
      }

      .cls-21 {
        fill: url(#linear-gradient-5);
      }

      .cls-22 {
        fill: url(#linear-gradient-6);
      }

      .cls-23 {
        isolation: isolate;
      }
    </style>
    <linearGradient id="linear-gradient" x1="353.6" y1="19.2" x2="415.5" y2="75.6" gradientUnits="userSpaceOnUse">
      <stop offset="0" stop-color="#3c4154"/>
      <stop offset="1" stop-color="#000308"/>
    </linearGradient>
    <linearGradient id="linear-gradient-2" x1="385.3" y1="48.7" x2="423.6" y2="26.9" gradientUnits="userSpaceOnUse">
      <stop offset="0" stop-color="#2baae2"/>
      <stop offset=".2" stop-color="#4197df"/>
      <stop offset=".7" stop-color="#8163d8"/>
      <stop offset="1" stop-color="#9b4fd6"/>
    </linearGradient>
    <linearGradient id="linear-gradient-3" x1="347.8" y1="44.2" x2="392.8" y2="44.2" gradientUnits="userSpaceOnUse">
      <stop offset="0" stop-color="#2baae2" stop-opacity="0"/>
      <stop offset="1" stop-color="#2baae2" stop-opacity=".5"/>
    </linearGradient>
    <linearGradient id="linear-gradient-4" x1="308" y1="159.7" x2="481.2" y2="281.2" gradientTransform="translate(-35.8 573.2) rotate(-15)" xlink:href="#linear-gradient"/>
    <linearGradient id="linear-gradient-5" x1="324.4" y1="653.1" x2="313.5" y2="782.1" xlink:href="#linear-gradient-2"/>
    <linearGradient id="linear-gradient-6" x1="281.7" y1="-41" x2="373.5" y2="19.5" gradientTransform="translate(-32.5 520.4) rotate(-15)" xlink:href="#linear-gradient"/>
    <linearGradient id="linear-gradient-7" x1="235.6" y1="371.3" x2="274.1" y2="411.8" xlink:href="#linear-gradient-2"/>
    <linearGradient id="linear-gradient-8" x1="166.6" y1="346.2" x2="206.6" y2="382.7" xlink:href="#linear-gradient"/>
    <linearGradient id="linear-gradient-9" x1="187.1" y1="365.3" x2="211.9" y2="351.2" xlink:href="#linear-gradient-2"/>
    <linearGradient id="linear-gradient-10" x1="162.8" y1="362.4" x2="191.9" y2="362.4" xlink:href="#linear-gradient-3"/>
    <linearGradient id="linear-gradient-11" x1="188" y1="278.3" x2="225.5" y2="125.1" xlink:href="#linear-gradient-2"/>
    <linearGradient id="linear-gradient-12" x1="314" y1="-295.3" x2="508.3" y2="-158.9" gradientTransform="translate(-35.8 573.2) rotate(-15)" xlink:href="#linear-gradient"/>
    <linearGradient id="linear-gradient-13" x1="282.4" y1="113.5" x2="236.2" y2="337.7" xlink:href="#linear-gradient-3"/>
    <linearGradient id="linear-gradient-14" x1="245.4" y1="292.4" x2="283" y2="139.2" xlink:href="#linear-gradient-2"/>
    <linearGradient id="linear-gradient-15" x1="51" y1="588.5" x2="354.5" y2="429.9" xlink:href="#linear-gradient-2"/>
    <linearGradient id="linear-gradient-16" x1="139.9" y1="25.5" x2="479.9" y2="264.2" gradientTransform="translate(-35.8 573.2) rotate(-15)" xlink:href="#linear-gradient"/>
    <linearGradient id="linear-gradient-17" x1="305.5" y1="-73.5" x2="235.1" y2="268" gradientTransform="translate(-35.8 573.2) rotate(-15)" xlink:href="#linear-gradient-3"/>
    <linearGradient id="linear-gradient-18" x1="90.1" y1="663.4" x2="393.6" y2="504.8" xlink:href="#linear-gradient-2"/>
    <linearGradient id="linear-gradient-19" x1="315" y1="92.2" x2="352.2" y2="126.2" xlink:href="#linear-gradient"/>
    <linearGradient id="linear-gradient-20" x1="311.5" y1="106.9" x2="341.9" y2="106.9" xlink:href="#linear-gradient-3"/>
    <linearGradient id="linear-gradient-21" x1="330.3" y1="77.6" x2="327.1" y2="115.9" xlink:href="#linear-gradient-2"/>
  </defs>
  <g class="cls-23">
    <g id="Layer_1" data-name="Layer 1">
      <path class="cls-1" d="M362.5,85.7l-14.7-60.4,60.4-14.7,14.7,60.4-60.4,14.7ZM360.2,32.8l9.9,40.5,40.5-9.9-9.9-40.5-40.5,9.9Z"/>
      <polygon class="cls-16" points="403.9 56 380 41.6 384.9 33.4 400.6 42.8 419.5 11.4 427.7 16.3 403.9 56"/>
      <polygon class="cls-17" points="359.7 74 367 60.8 360.2 32.8 386 26.5 392.8 14.3 347.8 25.3 359.7 74"/>
      <path class="cls-15" d="M371.7,753l-4.2.7c-1.7.3-3.4.4-5.1.4-14.2,0-26.7-9.6-30.3-23.3l-18.2-67.8c-4.5-16.7,5.5-34,22.2-38.4l104.8-28.1c2.7-.7,5.4-1.1,8.1-1.1,14.2,0,26.6,9.6,30.3,23.3l18.2,67.8c4.5,16.7-5.5,34-22.2,38.4l-65.3,17.5-30.3,41-8.1-30.4ZM384.8,757.4l18.5-25,69.1-18.5c5.1-1.4,9.4-4.7,12.1-9.3,2.7-4.6,3.4-10,2-15.1l-18.2-67.8c-2.3-8.7-10.2-14.7-19.2-14.7s-3.5.2-5.1.7l-104.8,28.1c-10.6,2.8-16.9,13.8-14.1,24.4l18.2,67.8c2.3,8.7,10.2,14.7,19.2,14.7h0c1.7,0,3.5-.2,5.1-.7l12.2-3.3,5,18.7Z"/>
      <path class="cls-21" d="M326.2,774.3l22.8-6.1,6,22.5-22.8,6.1-6-22.5ZM306.8,656.5c-16.1,4.3-28.1,16.3-33.2,30.9l22.4,7.5c2.7-7.4,8.8-13.5,17-15.6,13.3-3.6,26.9,4.3,30.5,17.6,3.6,13.3-4.3,26.9-17.6,30.5l-11.4,3.1,8.8,33,22.8-6.1-3.1-11.6c19-10.6,29.1-33.1,23.3-55-6.9-25.8-33.6-41.2-59.4-34.3Z"/>
      <g>
        <path class="cls-22" d="M253.2,473.8l-20.5-76.6,76.6-20.5,20.5,76.6-76.6,20.5ZM248.6,406.4l13.8,51.4,51.4-13.8-13.8-51.4-51.4,13.8Z"/>
        <path class="cls-20" d="M244.2,363.1l14.1,52.7,15.9-4.3-14.1-52.7-15.9,4.3ZM264.9,440.3l15.9-4.3-4.2-15.7-15.9,4.3,4.2,15.7Z"/>
        <rect class="cls-14" x="253.3" y="389.6" width="16.5" height="13.1" transform="translate(-93.6 81.2) rotate(-15)"/>
      </g>
      <g>
        <path class="cls-18" d="M172.3,389.3l-9.5-39.1,39.1-9.5,9.5,39.1-39.1,9.5ZM170.8,355.1l6.4,26.2,26.2-6.4-6.4-26.2-26.2,6.4Z"/>
        <polygon class="cls-19" points="199.1 370 183.6 360.8 186.8 355.4 196.9 361.5 209.2 341.2 214.5 344.4 199.1 370"/>
        <polygon class="cls-14" points="204.1 349.7 199.2 357.7 201.3 366.3 206.2 358.2 204.1 349.7"/>
        <polygon class="cls-5" points="170.5 381.7 175.2 373.2 170.8 355.1 187.5 351 191.9 343.1 162.8 350.2 170.5 381.7"/>
      </g>
      <g>
        <path class="cls-2" d="M222.3,182.6c-4.6-17,5.6-34.6,22.6-39.2l1.3-3.1-6.5-24.2-2.7-2c-33.2,8.9-53,43.1-44.1,76.3,2,7.3,5.2,14,9.4,19.9,1.5-11.8,8.9-22.4,20-27.5,0,0,0-.1,0-.2Z"/>
        <path class="cls-3" d="M268.1,324.8l-4.7.8c-1.9.3-3.8.5-5.7.5-15.9,0-29.9-10.7-34-26.1l-20.4-76.1c-5-18.8,6.1-38.1,24.9-43.1l117.6-31.5c3-.8,6-1.2,9.1-1.2,15.9,0,29.9,10.7,34,26.1l20.4,76.1c5,18.8-6.1,38.1-24.9,43.1l-73.2,19.6-34,46-9.1-34.1ZM282.8,329.7l20.8-28.1,77.6-20.8c5.8-1.5,10.6-5.2,13.6-10.4,3-5.2,3.8-11.2,2.2-16.9l-20.4-76.1c-2.6-9.7-11.5-16.6-21.6-16.6s-3.9.3-5.8.8l-117.6,31.5c-11.9,3.2-19,15.5-15.8,27.3l20.4,76.1c2.6,9.7,11.5,16.6,21.6,16.6h0c1.9,0,3.9-.3,5.8-.8l13.6-3.7,5.6,21Z"/>
        <path class="cls-4" d="M215.8,220.5c-3.2-11.9,3.9-24.2,15.8-27.3l90.8-24.3,12.3-16.6-106.5,28.5c-18.8,5-29.9,24.4-24.9,43.1l20.4,76.1c.2.6.3,1.2.5,1.7l9.8-13.2-18.2-67.9Z"/>
        <path class="cls-12" d="M237.1,114.2l7.8,29.3c17-4.6,34.6,5.6,39.2,22.6,4.6,17-5.6,34.6-22.6,39.2l-14.6,3.9,11.4,42.4,29.3-7.8-4-14.9c24.4-13.6,37.4-42.5,29.9-70.6-8.9-33.2-43.1-53-76.3-44.1ZM269.6,294.3l29.3-7.8-7.8-28.9-29.3,7.8,7.8,28.9Z"/>
        <path class="cls-14" d="M284.1,166.1c1.2,4.3,1.4,8.6.8,12.8l30.5-8.2c-.2-4.1-.9-8.3-2-12.5,0-.1,0-.2,0-.3l-29.3,7.8c0,.1,0,.2,0,.3Z"/>
      </g>
      <g>
        <polygon class="cls-9" points="417 286.6 261.6 544.9 339 548.6 475.5 321.7 417 286.6"/>
        <g>
          <path class="cls-7" d="M256.9,833.5l-17.9-66.8c-33.8,5.6-67.1-15.4-76.1-49.2l-34-126.9c-9.6-36,11.8-73.1,47.7-82.7l196.3-52.6c36-9.6,73.1,11.8,82.7,47.7l34,126.9c9.6,36-11.8,73.1-47.7,82.7l-119.2,31.9-65.7,88.9ZM186.7,545.6c-15.2,4.1-24.2,19.7-20.2,34.9l34,126.9c4.1,15.2,19.7,24.2,34.9,20.2l31.2-8.4,7,26,25.7-34.7,132.4-35.5c15.2-4.1,24.2-19.7,20.2-34.9l-34-126.9c-4.1-15.2-19.7-24.2-34.9-20.2l-196.3,52.6Z"/>
          <path class="cls-6" d="M166.5,580.5c-4.1-15.2,5-30.8,20.2-34.9l140.9-37.8,37.2-50.4-188.3,50.4c-36,9.6-57.4,46.7-47.7,82.7l34,126.9c.8,3.1,1.9,6.1,3.1,9l29.1-39.4-28.6-106.6Z"/>
          <polygon class="cls-11" points="228 600.8 117 534.2 81.9 592.6 251.3 694.4 339 548.6 336.4 545.5 267.5 541.8 261.6 544.9 228 600.8"/>
          <path class="cls-14" d="M166.5,580.5c-1.5-5.6-1.2-11.2.5-16.3l-33.8-20.3c-6.8,14.1-8.8,30.5-4.4,46.7l9.6,36,48.1,28.9-20.1-75Z"/>
        </g>
      </g>
      <g>
        <path class="cls-8" d="M320.4,132.2l-8.9-36.3,36.3-8.9,8.9,36.3-36.3,8.9ZM318.9,100.4l5.9,24.4,24.4-5.9-5.9-24.4-24.4,5.9Z"/>
        <polygon class="cls-13" points="318.6 125.2 323 117.3 318.9 100.4 337.9 95.8 341.9 88.5 311.5 95.9 318.6 125.2"/>
        <path class="cls-10" d="M330.9,113.6l6.8-1.8,1.8,6.7-6.8,1.8-1.8-6.7ZM325.1,78.6c-4.8,1.3-8.4,4.8-9.9,9.2l6.6,2.2c.8-2.2,2.6-4,5-4.6,3.9-1.1,8,1.3,9.1,5.2,1.1,3.9-1.3,8-5.2,9.1l-3.4.9,2.6,9.8,6.8-1.8-.9-3.4c5.6-3.1,8.7-9.8,6.9-16.3-2.1-7.7-10-12.2-17.7-10.2Z"/>
        <path class="cls-14" d="M336,90.6c.6,2.1.2,4.2-.9,5.9l8-2c.3-1.9.2-3.8-.3-5.7,0-.2-.1-.3-.2-.5l-6.8,1.7c0,.2.2.4.2.6Z"/>
      </g>
    </g>
  </g>
</svg>