<?xml version="1.0" encoding="UTF-8"?>
<svg id="Layer_1" data-name="Layer 1" xmlns="http://www.w3.org/2000/svg" xmlns:xlink="http://www.w3.org/1999/xlink" version="1.1" viewBox="0 0 595.3 841.9">
  <defs>
    <style>
      .cls-1 {
        opacity: .2;
      }

      .cls-1, .cls-2, .cls-3, .cls-4, .cls-5, .cls-6, .cls-7, .cls-8, .cls-9, .cls-10, .cls-11, .cls-12, .cls-13, .cls-14, .cls-15, .cls-16, .cls-17, .cls-18, .cls-19, .cls-20, .cls-21, .cls-22, .cls-23, .cls-24, .cls-25, .cls-26, .cls-27, .cls-28, .cls-29, .cls-30, .cls-31, .cls-32, .cls-33, .cls-34, .cls-35, .cls-36, .cls-37, .cls-38, .cls-39, .cls-40, .cls-41, .cls-42, .cls-43, .cls-44, .cls-45, .cls-46, .cls-47, .cls-48, .cls-49, .cls-50, .cls-51, .cls-52, .cls-53, .cls-54, .cls-55, .cls-56, .cls-57, .cls-58, .cls-59, .cls-60, .cls-61, .cls-62 {
        stroke-width: 0px;
      }

      .cls-1, .cls-52, .cls-62 {
        fill: #fff;
      }

      .cls-2 {
        fill: url(#linear-gradient);
      }

      .cls-3 {
        fill: url(#linear-gradient-38);
      }

      .cls-4 {
        fill: url(#linear-gradient-33);
      }

      .cls-5 {
        fill: url(#linear-gradient-29);
      }

      .cls-6 {
        fill: url(#linear-gradient-32);
      }

      .cls-7 {
        fill: url(#linear-gradient-30);
      }

      .cls-8 {
        fill: url(#linear-gradient-31);
      }

      .cls-9 {
        fill: url(#linear-gradient-36);
      }

      .cls-10 {
        fill: url(#linear-gradient-39);
      }

      .cls-11 {
        fill: url(#linear-gradient-34);
      }

      .cls-12 {
        fill: url(#linear-gradient-37);
      }

      .cls-13 {
        fill: url(#linear-gradient-35);
      }

      .cls-14 {
        fill: url(#linear-gradient-28);
      }

      .cls-15 {
        fill: url(#linear-gradient-25);
      }

      .cls-16 {
        fill: url(#linear-gradient-11);
      }

      .cls-17 {
        fill: url(#linear-gradient-12);
      }

      .cls-18 {
        fill: url(#linear-gradient-13);
      }

      .cls-19 {
        fill: url(#linear-gradient-10);
      }

      .cls-20 {
        fill: url(#linear-gradient-17);
      }

      .cls-21 {
        fill: url(#linear-gradient-16);
      }

      .cls-22 {
        fill: url(#linear-gradient-19);
      }

      .cls-23 {
        fill: url(#linear-gradient-15);
      }

      .cls-24 {
        fill: url(#linear-gradient-23);
      }

      .cls-25 {
        fill: url(#linear-gradient-21);
      }

      .cls-26 {
        fill: url(#linear-gradient-18);
      }

      .cls-27 {
        fill: url(#linear-gradient-14);
      }

      .cls-28 {
        fill: url(#linear-gradient-22);
      }

      .cls-29 {
        fill: url(#linear-gradient-20);
      }

      .cls-30 {
        fill: url(#linear-gradient-27);
      }

      .cls-31 {
        fill: url(#linear-gradient-24);
      }

      .cls-32 {
        fill: url(#linear-gradient-26);
      }

      .cls-33 {
        fill: url(#linear-gradient-45);
      }

      .cls-34 {
        fill: url(#linear-gradient-46);
      }

      .cls-35 {
        fill: url(#linear-gradient-44);
      }

      .cls-36 {
        fill: url(#linear-gradient-48);
      }

      .cls-37 {
        fill: url(#linear-gradient-49);
      }

      .cls-38 {
        fill: url(#linear-gradient-47);
      }

      .cls-39 {
        fill: url(#linear-gradient-42);
      }

      .cls-40 {
        fill: url(#linear-gradient-43);
      }

      .cls-41 {
        fill: url(#linear-gradient-40);
      }

      .cls-42 {
        fill: url(#linear-gradient-41);
      }

      .cls-43 {
        fill: url(#linear-gradient-57);
      }

      .cls-44 {
        fill: url(#linear-gradient-58);
      }

      .cls-45 {
        fill: url(#linear-gradient-55);
      }

      .cls-46 {
        fill: url(#linear-gradient-56);
      }

      .cls-47 {
        fill: url(#linear-gradient-53);
      }

      .cls-48 {
        fill: url(#linear-gradient-51);
      }

      .cls-49 {
        fill: url(#linear-gradient-52);
      }

      .cls-50 {
        fill: url(#linear-gradient-50);
      }

      .cls-51 {
        fill: url(#linear-gradient-54);
      }

      .cls-52 {
        opacity: .3;
      }

      .cls-53 {
        fill: url(#linear-gradient-4);
      }

      .cls-54 {
        fill: url(#linear-gradient-2);
      }

      .cls-55 {
        fill: url(#linear-gradient-3);
      }

      .cls-56 {
        fill: url(#linear-gradient-8);
      }

      .cls-57 {
        fill: url(#linear-gradient-9);
      }

      .cls-58 {
        fill: url(#linear-gradient-7);
      }

      .cls-59 {
        fill: url(#linear-gradient-5);
      }

      .cls-60 {
        fill: url(#linear-gradient-6);
      }

      .cls-61 {
        fill: #292c42;
      }
    </style>
    <linearGradient id="linear-gradient" x1="191.4" y1="200.4" x2="267.1" y2="241.7" gradientUnits="userSpaceOnUse">
      <stop offset="0" stop-color="#4e5166"/>
      <stop offset="1" stop-color="#292c42"/>
    </linearGradient>
    <linearGradient id="linear-gradient-2" x1="208.7" y1="231" x2="256.2" y2="231" xlink:href="#linear-gradient"/>
    <linearGradient id="linear-gradient-3" x1="226.8" y1="300" x2="238.6" y2="300" xlink:href="#linear-gradient"/>
    <linearGradient id="linear-gradient-4" x1="217.8" y1="285.3" x2="247.6" y2="285.3" xlink:href="#linear-gradient"/>
    <linearGradient id="linear-gradient-5" x1="373.8" y1="623.6" x2="407.6" y2="642.1" xlink:href="#linear-gradient"/>
    <linearGradient id="linear-gradient-6" x1="381.5" y1="637.3" x2="402.7" y2="637.3" xlink:href="#linear-gradient"/>
    <linearGradient id="linear-gradient-7" x1="389.6" y1="668.2" x2="394.9" y2="668.2" xlink:href="#linear-gradient"/>
    <linearGradient id="linear-gradient-8" x1="385.6" y1="661.6" x2="398.9" y2="661.6" xlink:href="#linear-gradient"/>
    <linearGradient id="linear-gradient-9" x1="475.3" y1="717" x2="509.2" y2="735.5" xlink:href="#linear-gradient"/>
    <linearGradient id="linear-gradient-10" x1="483.1" y1="730.7" x2="504.3" y2="730.7" xlink:href="#linear-gradient"/>
    <linearGradient id="linear-gradient-11" x1="491.1" y1="761.5" x2="496.4" y2="761.5" xlink:href="#linear-gradient"/>
    <linearGradient id="linear-gradient-12" x1="487.1" y1="755" x2="500.4" y2="755" xlink:href="#linear-gradient"/>
    <linearGradient id="linear-gradient-13" x1="416" y1="505.5" x2="462.1" y2="530.7" xlink:href="#linear-gradient"/>
    <linearGradient id="linear-gradient-14" x1="426.6" y1="524.2" x2="455.5" y2="524.2" xlink:href="#linear-gradient"/>
    <linearGradient id="linear-gradient-15" x1="437.6" y1="566.2" x2="444.8" y2="566.2" xlink:href="#linear-gradient"/>
    <linearGradient id="linear-gradient-16" x1="432.1" y1="557.3" x2="450.3" y2="557.3" xlink:href="#linear-gradient"/>
    <linearGradient id="linear-gradient-17" x1="37.9" y1="572.8" x2="84" y2="598.1" xlink:href="#linear-gradient"/>
    <linearGradient id="linear-gradient-18" x1="48.5" y1="591.5" x2="77.4" y2="591.5" xlink:href="#linear-gradient"/>
    <linearGradient id="linear-gradient-19" x1="59.5" y1="633.6" x2="66.7" y2="633.6" xlink:href="#linear-gradient"/>
    <linearGradient id="linear-gradient-20" x1="54" y1="624.6" x2="72.2" y2="624.6" xlink:href="#linear-gradient"/>
    <linearGradient id="linear-gradient-21" x1="133" y1="369.6" x2="247.4" y2="432.1" xlink:href="#linear-gradient"/>
    <linearGradient id="linear-gradient-22" x1="159.2" y1="415.9" x2="231" y2="415.9" xlink:href="#linear-gradient"/>
    <linearGradient id="linear-gradient-23" x1="186.5" y1="520.2" x2="204.3" y2="520.2" xlink:href="#linear-gradient"/>
    <linearGradient id="linear-gradient-24" x1="172.9" y1="498" x2="217.9" y2="498" xlink:href="#linear-gradient"/>
    <linearGradient id="linear-gradient-25" x1="291" y1="503.4" x2="368.5" y2="545.8" xlink:href="#linear-gradient"/>
    <linearGradient id="linear-gradient-26" x1="308.8" y1="534.8" x2="357.4" y2="534.8" xlink:href="#linear-gradient"/>
    <linearGradient id="linear-gradient-27" x1="327.2" y1="605.5" x2="339.3" y2="605.5" xlink:href="#linear-gradient"/>
    <linearGradient id="linear-gradient-28" x1="318" y1="590.4" x2="348.6" y2="590.4" xlink:href="#linear-gradient"/>
    <linearGradient id="linear-gradient-29" x1="229.7" y1="141.6" x2="442.3" y2="257.8" gradientUnits="userSpaceOnUse">
      <stop offset="0" stop-color="#1cbaff"/>
      <stop offset="1" stop-color="#b657ff"/>
    </linearGradient>
    <linearGradient id="linear-gradient-30" x1="343.6" y1="444.3" x2="379.1" y2="444.3" xlink:href="#linear-gradient-29"/>
    <linearGradient id="linear-gradient-31" x1="316.6" y1="400" x2="406.1" y2="400" xlink:href="#linear-gradient"/>
    <linearGradient id="linear-gradient-32" x1="363.6" y1="41" x2="363.6" y2="301.8" xlink:href="#linear-gradient-29"/>
    <linearGradient id="linear-gradient-33" x1="356.4" y1="810.7" x2="363.8" y2="814.8" xlink:href="#linear-gradient-29"/>
    <linearGradient id="linear-gradient-34" x1="354.8" y1="679.5" x2="363.2" y2="686.9" xlink:href="#linear-gradient-29"/>
    <linearGradient id="linear-gradient-35" x1="276.9" y1="576" x2="282" y2="580.3" xlink:href="#linear-gradient-29"/>
    <linearGradient id="linear-gradient-36" x1="276.6" y1="735.2" x2="283.3" y2="739.3" xlink:href="#linear-gradient-29"/>
    <linearGradient id="linear-gradient-37" x1="110.2" y1="416.5" x2="116.9" y2="416.5" xlink:href="#linear-gradient-29"/>
    <linearGradient id="linear-gradient-38" x1="110.2" y1="770.1" x2="116.9" y2="770.1" xlink:href="#linear-gradient-29"/>
    <linearGradient id="linear-gradient-39" x1="276.7" y1="751.7" x2="283.2" y2="755.8" xlink:href="#linear-gradient-29"/>
    <linearGradient id="linear-gradient-40" x1="77.8" y1="260.4" x2="135.7" y2="292.1" xlink:href="#linear-gradient-29"/>
    <linearGradient id="linear-gradient-41" x1="108.9" y1="342.9" x2="118.5" y2="342.9" xlink:href="#linear-gradient-29"/>
    <linearGradient id="linear-gradient-42" x1="101.5" y1="330.8" x2="125.9" y2="330.8" xlink:href="#linear-gradient"/>
    <linearGradient id="linear-gradient-43" x1="113.5" y1="233" x2="113.5" y2="304.1" xlink:href="#linear-gradient-29"/>
    <linearGradient id="linear-gradient-44" x1="522.6" y1="557.7" x2="529.3" y2="557.7" xlink:href="#linear-gradient-29"/>
    <linearGradient id="linear-gradient-45" x1="522.6" y1="655.7" x2="529.3" y2="655.7" xlink:href="#linear-gradient-29"/>
    <linearGradient id="linear-gradient-46" x1="490.2" y1="401.6" x2="548.1" y2="433.3" xlink:href="#linear-gradient-29"/>
    <linearGradient id="linear-gradient-47" x1="521.2" y1="484.1" x2="530.9" y2="484.1" xlink:href="#linear-gradient-29"/>
    <linearGradient id="linear-gradient-48" x1="513.9" y1="472" x2="538.3" y2="472" xlink:href="#linear-gradient"/>
    <linearGradient id="linear-gradient-49" x1="525.9" y1="374.2" x2="525.9" y2="445.3" xlink:href="#linear-gradient-29"/>
    <linearGradient id="linear-gradient-50" x1="261.3" y1="442.9" x2="292.7" y2="460.1" xlink:href="#linear-gradient-29"/>
    <linearGradient id="linear-gradient-51" x1="278.1" y1="487.7" x2="283.4" y2="487.7" xlink:href="#linear-gradient-29"/>
    <linearGradient id="linear-gradient-52" x1="274.1" y1="481.1" x2="287.4" y2="481.1" xlink:href="#linear-gradient"/>
    <linearGradient id="linear-gradient-53" x1="280.7" y1="428" x2="280.7" y2="466.6" xlink:href="#linear-gradient-29"/>
    <linearGradient id="linear-gradient-54" x1="161.2" y1="817.4" x2="166.3" y2="821.7" xlink:href="#linear-gradient-29"/>
    <linearGradient id="linear-gradient-55" x1="145.6" y1="684.3" x2="177" y2="701.5" xlink:href="#linear-gradient-29"/>
    <linearGradient id="linear-gradient-56" x1="162.4" y1="729.1" x2="167.7" y2="729.1" xlink:href="#linear-gradient-29"/>
    <linearGradient id="linear-gradient-57" x1="158.4" y1="722.6" x2="171.7" y2="722.6" xlink:href="#linear-gradient"/>
    <linearGradient id="linear-gradient-58" x1="165" y1="669.4" x2="165" y2="708" xlink:href="#linear-gradient-29"/>
  </defs>
  <rect class="cls-61" x="232.2" y="300.8" width=".5" height="541.1"/>
  <rect class="cls-61" x="113.4" y="342.4" width=".3" height="499.4"/>
  <g>
    <path class="cls-2" d="M217,271.1c-.6-5.9-5.3-11.8-10.8-18.7-8-10.1-17-21.5-17-37.1,0-23.9,19.4-43.3,43.3-43.3s43.3,19.4,43.3,43.3-9,27-17,37.1c-5.5,6.9-10.2,12.9-10.8,18.7l-2.6-.3c.7-6.6,5.6-12.8,11.3-20.1,7.7-9.8,16.4-20.8,16.4-35.5,0-22.4-18.3-40.7-40.7-40.7s-40.7,18.3-40.7,40.7,8.7,25.7,16.4,35.5c5.7,7.2,10.6,13.5,11.3,20.1l-2.6.3Z"/>
    <path class="cls-54" d="M209.6,231.2l22.9-39.6,22.9,39.6-16.8.5h17.7l-23.8-41.1-23.7,41.1h17.7l-16.8-.5ZM217,226.7l15.5-25.9,15.5,25.9-15.5-26.9-15.5,26.9ZM235,255.3c-.6-.7-1.5-1.1-2.5-1.1s-1.9.4-2.5,1.1l-10.8-21.4,10.1,22.4c-.2.4-.3.9-.3,1.4v13.7h1.2v-9.1c0-1.3,1-2.3,2.3-2.3s2.3,1,2.3,2.3v9.1h1.2v-13.7c0-.5-.1-1-.3-1.4l10.1-22.4-10.8,21.4Z"/>
    <polygon class="cls-55" points="226.8 298.8 229.7 301.3 235.6 301.3 238.6 298.8 226.8 298.8"/>
    <path class="cls-53" d="M247.6,273.1v5l-29.8-3.9v-1.1h29.8ZM247.6,287.8l-29.8-3.9v-1.5l29.8,1.7v3.7ZM247.6,291.1l-1.6,1.3-28.2-3.7v-1.5l29.8,1.7v2.1ZM240.1,297.5h-14.8l-6.2-5.3,25.5,1.5-4.5,3.8ZM247.6,282.9l-29.8-3.9v-1.5l29.8,1.7v3.7Z"/>
    <path class="cls-52" d="M230.7,301.3l-2.2-2.5h1.7l1.6,2.5h-1.1ZM224.9,275.2l-3.8-.5v-1.5h3.8v2ZM224.9,289.7l-3.8-.5v-1.8l3.8.2v2ZM229.3,297.5h-2l-4.4-5,3.4.2,3,4.8ZM224.9,284.9l-3.8-.5v-1.8l3.8.2v2ZM224.9,280l-3.8-.5v-1.8l3.8.2v2Z"/>
  </g>
  <rect class="cls-61" x="280.4" y="488.1" width=".5" height="353.8"/>
  <rect class="cls-61" x="391.9" y="668.5" width=".5" height="173.4"/>
  <g>
    <path class="cls-59" d="M385.2,655.3c-.3-2.6-2.4-5.3-4.8-8.4-3.6-4.5-7.6-9.6-7.6-16.6,0-10.7,8.7-19.3,19.3-19.3s19.3,8.7,19.3,19.3-4,12.1-7.6,16.6c-2.4,3.1-4.5,5.8-4.8,8.4h-1.1c.3-3.1,2.5-5.9,5.1-9.1,3.4-4.4,7.3-9.3,7.3-15.8,0-10-8.2-18.2-18.2-18.2s-18.2,8.2-18.2,18.2,3.9,11.5,7.3,15.8c2.5,3.2,4.7,6,5.1,9h-1.1Z"/>
    <path class="cls-60" d="M381.9,637.4l10.2-17.7,10.2,17.7-7.5.2h7.9l-10.6-18.4-10.6,18.4h7.9l-7.5-.2ZM385.2,635.4l6.9-11.6,6.9,11.6-6.9-12-6.9,12ZM393.3,648.2c-.3-.3-.7-.5-1.1-.5s-.9.2-1.1.5l-4.8-9.6,4.5,10c0,.2-.1.4-.1.6v6.1h.5v-4.1c0-.6.5-1,1-1s1,.5,1,1v4.1h.5v-6.1c0-.2,0-.4-.1-.6l4.5-10-4.8,9.6Z"/>
    <polygon class="cls-58" points="389.6 667.6 390.9 668.7 393.5 668.7 394.9 667.6 389.6 667.6"/>
    <path class="cls-56" d="M398.9,656.1v2.2l-13.3-1.7v-.5h13.3ZM398.9,662.7l-13.3-1.7v-.7l13.3.8v1.6ZM398.9,664.2l-.7.6-12.6-1.6v-.7l13.3.8v.9ZM395.5,667h-6.6l-2.8-2.3,11.4.7-2,1.7ZM398.9,660.5l-13.3-1.7v-.7l13.3.8v1.6Z"/>
    <path class="cls-52" d="M391.3,668.7l-1-1.1h.8l.7,1.1h-.5ZM388.7,657l-1.7-.2v-.7h1.7v.9ZM388.7,663.6l-1.7-.2v-.8h1.7v1ZM390.7,667h-.9l-2-2.2h1.5c0,0,1.4,2.2,1.4,2.2ZM388.7,661.4l-1.7-.2v-.8h1.7v1ZM388.7,659.2l-1.7-.2v-.8h1.7v1Z"/>
  </g>
  <rect class="cls-61" x="493.4" y="761.9" width=".5" height="80"/>
  <g>
    <path class="cls-57" d="M486.8,748.6c-.3-2.6-2.4-5.3-4.8-8.4-3.6-4.5-7.6-9.6-7.6-16.6,0-10.7,8.7-19.3,19.3-19.3s19.3,8.7,19.3,19.3-4,12.1-7.6,16.6c-2.4,3.1-4.5,5.8-4.8,8.4h-1.1c.3-3.1,2.5-5.9,5.1-9.1,3.4-4.4,7.3-9.3,7.3-15.8,0-10-8.2-18.2-18.2-18.2s-18.2,8.2-18.2,18.2,3.9,11.5,7.3,15.8c2.5,3.2,4.7,6,5.1,9h-1.1Z"/>
    <path class="cls-19" d="M483.5,730.8l10.2-17.7,10.2,17.7-7.5.2h7.9l-10.6-18.4-10.6,18.4h7.9l-7.5-.2ZM486.8,728.8l6.9-11.6,6.9,11.6-6.9-12-6.9,12ZM494.8,741.6c-.3-.3-.7-.5-1.1-.5s-.9.2-1.1.5l-4.8-9.6,4.5,10c0,.2-.1.4-.1.6v6.1h.5v-4.1c0-.6.5-1,1-1s1,.5,1,1v4.1h.5v-6.1c0-.2,0-.4-.1-.6l4.5-10-4.8,9.6Z"/>
    <polygon class="cls-16" points="491.1 761 492.5 762.1 495.1 762.1 496.4 761 491.1 761"/>
    <path class="cls-17" d="M500.4,749.5v2.2l-13.3-1.7v-.5h13.3ZM500.4,756.1l-13.3-1.7v-.7l13.3.8v1.6ZM500.4,757.5l-.7.6-12.6-1.6v-.7l13.3.8v.9ZM497.1,760.4h-6.6l-2.8-2.3,11.4.7-2,1.7ZM500.4,753.9l-13.3-1.7v-.7l13.3.8v1.6Z"/>
    <path class="cls-52" d="M492.9,762.1l-1-1.1h.8l.7,1.1h-.5ZM490.3,750.4l-1.7-.2v-.7h1.7v.9ZM490.3,756.9l-1.7-.2v-.8h1.7v1ZM492.3,760.4h-.9l-2-2.2h1.5c0,0,1.4,2.2,1.4,2.2ZM490.3,754.8l-1.7-.2v-.8h1.7v1ZM490.3,752.6l-1.7-.2v-.8h1.7v1Z"/>
  </g>
  <rect class="cls-61" x="440.8" y="566.7" width=".5" height="275.2"/>
  <g>
    <path class="cls-18" d="M431.6,548.6c-.4-3.6-3.2-7.2-6.6-11.4-4.9-6.1-10.3-13.1-10.3-22.6,0-14.5,11.8-26.4,26.4-26.4s26.4,11.8,26.4,26.4-5.5,16.4-10.3,22.6c-3.3,4.2-6.2,7.8-6.6,11.4l-1.6-.2c.4-4,3.4-7.8,6.9-12.2,4.7-5.9,10-12.7,10-21.6,0-13.7-11.1-24.8-24.8-24.8s-24.8,11.1-24.8,24.8,5.3,15.7,10,21.6c3.5,4.4,6.5,8.2,6.9,12.2l-1.6.2Z"/>
    <path class="cls-27" d="M427.1,524.3l13.9-24.1,13.9,24.1-10.2.3h10.8l-14.5-25.1-14.5,25.1h10.8l-10.2-.3ZM431.6,521.6l9.5-15.8,9.5,15.8-9.5-16.4-9.5,16.4ZM442.6,539c-.4-.4-.9-.7-1.6-.7s-1.2.3-1.6.7l-6.6-13,6.2,13.6c-.1.3-.2.6-.2.9v8.4h.7v-5.6c0-.8.6-1.4,1.4-1.4s1.4.6,1.4,1.4v5.6h.7v-8.4c0-.3,0-.6-.2-.9l6.2-13.6-6.6,13Z"/>
    <polygon class="cls-23" points="437.6 565.5 439.4 567 443 567 444.8 565.5 437.6 565.5"/>
    <path class="cls-21" d="M450.3,549.8v3l-18.2-2.4v-.7h18.2ZM450.3,558.8l-18.2-2.4v-.9l18.2,1v2.2ZM450.3,560.8l-1,.8-17.2-2.2v-.9l18.2,1v1.3ZM445.7,564.7h-9l-3.8-3.2,15.5.9-2.7,2.3ZM450.3,555.8l-18.2-2.4v-.9l18.2,1v2.2Z"/>
    <path class="cls-52" d="M440,567l-1.3-1.5h1l1,1.5h-.7ZM436.4,551.1l-2.3-.3v-.9h2.3v1.2ZM436.4,560l-2.3-.3v-1.1h2.3v1.4ZM439.1,564.7h-1.2l-2.7-3.1h2.1c0,.1,1.9,3.1,1.9,3.1ZM436.4,557l-2.3-.3v-1.1h2.3v1.4ZM436.4,554l-2.3-.3v-1.1h2.3v1.4Z"/>
  </g>
  <rect class="cls-61" x="62.7" y="634" width=".5" height="207.9"/>
  <g>
    <path class="cls-20" d="M53.5,616c-.4-3.6-3.2-7.2-6.6-11.4-4.9-6.1-10.3-13.1-10.3-22.6,0-14.5,11.8-26.4,26.4-26.4s26.4,11.8,26.4,26.4-5.5,16.4-10.3,22.6c-3.3,4.2-6.2,7.8-6.6,11.4l-1.6-.2c.4-4,3.4-7.8,6.9-12.2,4.7-5.9,10-12.7,10-21.6,0-13.7-11.1-24.8-24.8-24.8s-24.8,11.1-24.8,24.8,5.3,15.7,10,21.6c3.5,4.4,6.5,8.2,6.9,12.2l-1.6.2Z"/>
    <path class="cls-26" d="M49,591.6l13.9-24.1,13.9,24.1-10.2.3h10.8l-14.5-25.1-14.5,25.1h10.8l-10.2-.3ZM53.5,588.9l9.5-15.8,9.5,15.8-9.5-16.4-9.5,16.4ZM64.5,606.3c-.4-.4-.9-.7-1.6-.7s-1.2.3-1.6.7l-6.6-13,6.2,13.6c-.1.3-.2.6-.2.9v8.4h.7v-5.6c0-.8.6-1.4,1.4-1.4s1.4.6,1.4,1.4v5.6h.7v-8.4c0-.3,0-.6-.2-.9l6.2-13.6-6.6,13Z"/>
    <polygon class="cls-22" points="59.5 632.8 61.3 634.3 64.9 634.3 66.7 632.8 59.5 632.8"/>
    <path class="cls-29" d="M72.2,617.2v3l-18.2-2.4v-.7h18.2ZM72.2,626.1l-18.2-2.4v-.9l18.2,1v2.2ZM72.2,628.1l-1,.8-17.2-2.2v-.9l18.2,1v1.3ZM67.6,632h-9l-3.8-3.2,15.5.9-2.7,2.3ZM72.2,623.2l-18.2-2.4v-.9l18.2,1v2.2Z"/>
    <path class="cls-52" d="M61.9,634.3l-1.3-1.5h1l1,1.5h-.7ZM58.4,618.4l-2.3-.3v-.9h2.3v1.2ZM58.4,627.3l-2.3-.3v-1.1h2.3v1.4ZM61,632h-1.2l-2.7-3.1h2.1c0,.1,1.9,3.1,1.9,3.1ZM58.4,624.3l-2.3-.3v-1.1h2.3v1.4ZM58.4,621.4l-2.3-.3v-1.1h2.3v1.4Z"/>
  </g>
  <rect class="cls-61" x="332.8" y="605.4" width=".5" height="236.4"/>
  <rect class="cls-61" x="194.6" y="521.5" width=".8" height="320.4"/>
  <g>
    <path class="cls-25" d="M171.7,476.6c-.9-8.9-8.1-17.9-16.3-28.3-12-15.2-25.7-32.5-25.7-56,0-36.1,29.3-65.4,65.4-65.4s65.4,29.3,65.4,65.4-13.6,40.8-25.7,56c-8.2,10.4-15.4,19.5-16.3,28.3l-3.9-.4c1.1-10,8.5-19.4,17.1-30.3,11.6-14.7,24.8-31.4,24.8-53.6,0-33.9-27.6-61.5-61.5-61.5s-61.5,27.6-61.5,61.5,13.2,38.9,24.8,53.6c8.6,10.9,16.1,20.3,17.1,30.3l-3.9.4Z"/>
    <path class="cls-28" d="M160.5,416.2l34.5-59.8,34.5,59.8-25.3.8h26.7l-35.9-62.2-35.9,62.2h26.7l-25.3-.8ZM171.6,409.4l23.5-39.1,23.5,39.1-23.5-40.6-23.5,40.6ZM198.9,452.6c-1-1-2.3-1.7-3.8-1.7s-2.9.6-3.8,1.7l-16.3-32.4,15.3,33.8c-.3.7-.5,1.4-.5,2.2v20.8h1.8v-13.8c0-1.9,1.6-3.5,3.5-3.5s3.5,1.6,3.5,3.5v13.8h1.8v-20.8c0-.8-.2-1.5-.5-2.2l15.3-33.8-16.3,32.4Z"/>
    <polygon class="cls-24" points="186.5 518.3 190.9 522.1 199.8 522.1 204.3 518.3 186.5 518.3"/>
    <path class="cls-31" d="M217.9,479.6v7.5l-45-5.8v-1.7h45ZM217.9,501.7l-45-5.8v-2.3l45,2.6v5.6ZM217.9,506.7l-2.4,2-42.6-5.5v-2.3l45,2.6v3.2ZM206.6,516.3h-22.4l-9.4-7.9,38.5,2.2-6.7,5.7ZM217.9,494.4l-45-5.8v-2.3l45,2.6v5.6Z"/>
    <path class="cls-52" d="M192.4,522.1l-3.3-3.8h2.6l2.4,3.8h-1.6ZM183.7,482.6l-5.8-.8v-2.3h5.8v3.1ZM183.7,504.6l-5.8-.8v-2.7l5.8.3v3.1ZM190.3,516.3h-3.1l-6.7-7.6,5.1.3,4.6,7.3ZM183.7,497.3l-5.8-.8v-2.7l5.8.3v3.1ZM183.7,490l-5.8-.8v-2.7l5.8.3v3.1Z"/>
  </g>
  <g>
    <path class="cls-15" d="M317.2,575.9c-.6-6-5.5-12.1-11-19.2-8.2-10.3-17.4-22-17.4-38,0-24.4,19.9-44.3,44.3-44.3s44.3,19.9,44.3,44.3-9.2,27.6-17.4,38c-5.6,7.1-10.4,13.2-11,19.2l-2.6-.3c.7-6.8,5.8-13.1,11.6-20.5,7.9-10,16.8-21.3,16.8-36.3,0-23-18.7-41.7-41.7-41.7s-41.7,18.7-41.7,41.7,8.9,26.3,16.8,36.3c5.8,7.4,10.9,13.8,11.6,20.5l-2.6.3Z"/>
    <path class="cls-32" d="M309.7,535l23.4-40.5,23.4,40.5-17.2.5h18.1l-24.3-42.1-24.3,42.1h18.1l-17.2-.5ZM317.2,530.4l15.9-26.5,15.9,26.5-15.9-27.5-15.9,27.5ZM335.7,559.6c-.7-.7-1.6-1.1-2.6-1.1s-2,.4-2.6,1.1l-11-21.9,10.4,22.9c-.2.5-.3,1-.3,1.5v14.1h1.2v-9.3c0-1.3,1.1-2.4,2.4-2.4s2.4,1.1,2.4,2.4v9.3h1.2v-14.1c0-.5-.1-1-.3-1.5l10.4-22.9-11,21.9Z"/>
    <polygon class="cls-30" points="327.2 604.2 330.3 606.8 336.3 606.8 339.3 604.2 327.2 604.2"/>
    <path class="cls-14" d="M348.6,577.9v5.1l-30.5-4v-1.1h30.5ZM348.6,592.9l-30.5-4v-1.6l30.5,1.8v3.8ZM348.6,596.3l-1.6,1.4-28.9-3.7v-1.6l30.5,1.8v2.2ZM340.9,602.8h-15.2l-6.3-5.4,26.1,1.5-4.6,3.9ZM348.6,588l-30.5-4v-1.6l30.5,1.8v3.8Z"/>
    <path class="cls-52" d="M331.2,606.8l-2.3-2.6h1.7l1.6,2.6h-1.1ZM325.3,580l-3.9-.5v-1.6h3.9v2.1ZM325.3,594.9l-3.9-.5v-1.8l3.9.2v2.1ZM329.9,602.8h-2.1l-4.5-5.2,3.5.2,3.1,5ZM325.3,589.9l-3.9-.5v-1.8l3.9.2v2.1ZM325.3,585l-3.9-.5v-1.8l3.9.2v2.1Z"/>
  </g>
  <rect class="cls-61" x="359.7" y="443.8" width="2.1" height="398.1"/>
  <g>
    <path class="cls-5" d="M403.5,357.1c4.8-45.1,83.4-89.6,83.4-167.2s-56.5-126.1-126.1-126.1-126.1,56.5-126.1,126.1,78.6,122.1,83.4,167.2h85.5Z"/>
    <polygon class="cls-62" points="350.5 224.4 314.8 224.4 360.8 144.8 406.7 224.4 371.1 224.4 379.1 238.3 430.8 238.3 360.8 117 290.8 238.3 342.5 238.3 350.5 224.4"/>
    <path class="cls-62" d="M400.8,245.5l-32.3,64.3c-1.9-2-4.6-3.3-7.7-3.3s-5.7,1.3-7.7,3.3l-32.3-64.3,30.4,67.2c-.6,1.3-.9,2.8-.9,4.3v41.3h3.5v-27.4c0-3.9,3.1-7,7-7s7,3.1,7,7v27.4h3.5v-41.3c0-1.6-.3-3-.9-4.3l30.4-67.2Z"/>
    <polygon class="cls-7" points="343.6 440.5 352.5 448 370.2 448 379.1 440.5 343.6 440.5"/>
    <path class="cls-8" d="M406.1,363.4v14.9l-89.5-11.6v-3.3h89.5ZM406.1,407.5l-89.5-11.6v-4.6l89.5,5.2v11ZM406.1,417.4l-4.8,4-84.7-11v-4.6l89.5,5.2v6.4ZM383.6,436.5h-44.5l-18.6-15.8,76.6,4.4-13.4,11.4ZM406.1,392.9l-89.5-11.6v-4.6l89.5,5.2v11Z"/>
    <path class="cls-52" d="M355.3,448l-6.6-7.6h5.1l4.8,7.6h-3.2ZM338,369.5l-11.5-1.5v-4.6h11.5v6.1ZM338,413.3l-11.5-1.5v-5.3l11.5.7v6.1ZM351.3,436.5h-6.1l-13.3-15.1,10.2.6,9.2,14.5ZM338,398.7l-11.5-1.5v-5.3l11.5.7v6.1ZM338,384.1l-11.5-1.5v-5.3l11.5.7v6.1Z"/>
    <path class="cls-6" d="M358.7,55.5h4.1l-2.1-32.3-2.1,32.3ZM324.1,60.6l4-1.1-10.4-30.7,6.4,31.8ZM292,74.5l3.6-2.1-18-27,14.4,29ZM264.6,96.2l2.9-2.9-24.3-21.4,21.4,24.3ZM245.8,120.7l-29-14.4,27,18,2.1-3.6ZM231.9,152.8l-31.8-6.4,30.7,10.4,1.1-4ZM397.4,60.6l6.4-31.8-10.4,30.7,4,1.1ZM429.5,74.5l14.4-29-18,27,3.6,2.1ZM478.4,71.8l-24.3,21.4,2.9,2.9,21.4-24.3ZM477.8,124.2l27-18-29,14.4,2.1,3.6ZM490.7,156.8l30.7-10.4-31.8,6.4,1.1,4ZM494.7,191.5l32.3-2.1-32.3-2.1v4.1ZM489.6,226.1l31.8,6.4-30.7-10.4-1.1,4ZM475.7,258.2l29,14.4-27-18-2.1,3.6ZM454,285.6l24.3,21.4-21.4-24.3-2.9,2.9Z"/>
  </g>
  <path class="cls-1" d="M235.7,205.4c0,.4,0,.7.1,1.1l12.1,20.2-12.3-21.3ZM244.5,236.7l1.3-2.9-1.4,2.7c0,0,0,.1,0,.2ZM234.7,194.5c0,.4,0,.7,0,1.1l20.5,35.6-12.9.4s0,0,0,.1h13.7l-21.5-37.2ZM235.9,172.2c-.1.8-.2,1.7-.3,2.5,21,1.6,37.6,19.2,37.6,40.6s-8.7,25.7-16.4,35.5c-1.1,1.4-2.2,2.7-3.2,4.1.5.8.9,1.6,1.4,2.4,1.2-1.6,2.5-3.2,3.8-4.9,8-10.1,17-21.5,17-37.1,0-22.7-17.6-41.4-39.9-43.1Z"/>
  <polygon class="cls-4" points="360.8 806.9 355.3 816.4 366.2 816.4 360.8 806.9"/>
  <polygon class="cls-11" points="360.8 677.6 355.3 687 366.2 687 360.8 677.6"/>
  <polygon class="cls-13" points="280.7 574.8 277.3 580.7 284 580.7 280.7 574.8"/>
  <polygon class="cls-9" points="280.7 733.7 277.3 739.5 284 739.5 280.7 733.7"/>
  <polygon class="cls-12" points="113.5 413.6 110.2 419.4 116.9 419.4 113.5 413.6"/>
  <polygon class="cls-3" points="113.5 767.2 110.2 773 116.9 773 113.5 767.2"/>
  <polygon class="cls-10" points="280.7 750.2 277.3 756 284 756 280.7 750.2"/>
  <g>
    <path class="cls-41" d="M125.2,319.1c1.3-12.3,22.7-24.4,22.7-45.6s-15.4-34.4-34.4-34.4-34.4,15.4-34.4,34.4,21.4,33.3,22.7,45.6h23.3Z"/>
    <polygon class="cls-62" points="110.7 283 101 283 113.5 261.3 126.1 283 116.3 283 118.5 286.8 132.6 286.8 113.5 253.7 94.4 286.8 108.5 286.8 110.7 283"/>
    <path class="cls-62" d="M124.4,288.7l-8.8,17.5c-.5-.6-1.3-.9-2.1-.9s-1.6.3-2.1.9l-8.8-17.5,8.3,18.3c-.2.4-.3.8-.3,1.2v11.2h1v-7.5c0-1,.9-1.9,1.9-1.9s1.9.9,1.9,1.9v7.5h1v-11.2c0-.4,0-.8-.3-1.2l8.3-18.3Z"/>
    <polygon class="cls-42" points="108.9 341.9 111.3 343.9 116.1 343.9 118.5 341.9 108.9 341.9"/>
    <path class="cls-39" d="M125.9,320.9v4.1l-24.4-3.2v-.9h24.4ZM125.9,332.9l-24.4-3.2v-1.3l24.4,1.4v3ZM125.9,335.6l-1.3,1.1-23.1-3v-1.3l24.4,1.4v1.7ZM119.8,340.8h-12.1l-5.1-4.3,20.9,1.2-3.7,3.1ZM125.9,328.9l-24.4-3.2v-1.3l24.4,1.4v3Z"/>
    <path class="cls-52" d="M112,343.9l-1.8-2.1h1.4l1.3,2.1h-.9ZM107.3,322.5l-3.1-.4v-1.2h3.1v1.7ZM107.3,334.5l-3.1-.4v-1.4l3.1.2v1.7ZM110.9,340.8h-1.7l-3.6-4.1,2.8.2,2.5,4ZM107.3,330.5l-3.1-.4v-1.4l3.1.2v1.7ZM107.3,326.5l-3.1-.4v-1.4l3.1.2v1.7Z"/>
    <path class="cls-40" d="M113,237h1.1l-.6-8.8-.6,8.8ZM103.5,238.3l1.1-.3-2.8-8.4,1.7,8.7ZM94.8,242.1l1-.6-4.9-7.3,3.9,7.9ZM87.3,248l.8-.8-6.6-5.8,5.8,6.6ZM82.2,254.7l-7.9-3.9,7.3,4.9.6-1ZM78.4,263.5l-8.7-1.7,8.4,2.8.3-1.1ZM77,272.9l-8.8.6,8.8.6v-1.1ZM78.1,282.4l-8.4,2.8,8.7-1.7-.3-1.1ZM81.6,291.2l-7.3,4.9,7.9-3.9-.6-1ZM81.5,305.5l6.6-5.8-.8-.8-5.8,6.6ZM123.5,238.3l1.7-8.7-2.8,8.4,1.1.3ZM132.3,242.1l3.9-7.9-4.9,7.3,1,.6ZM145.6,241.4l-6.6,5.8.8.8,5.8-6.6ZM145.4,255.7l7.3-4.9-7.9,3.9.6,1ZM148.9,264.6l8.4-2.8-8.7,1.7.3,1.1ZM150,274l8.8-.6-8.8-.6v1.1ZM148.6,283.5l8.7,1.7-8.4-2.8-.3,1.1ZM144.9,292.2l7.9,3.9-7.3-4.9-.6,1ZM138.9,299.7l6.6,5.8-5.8-6.6-.8.8Z"/>
  </g>
  <rect class="cls-61" x="525.8" y="483.6" width=".3" height="358.2"/>
  <polygon class="cls-35" points="525.9 554.8 522.6 560.6 529.3 560.6 525.9 554.8"/>
  <polygon class="cls-33" points="525.9 652.8 522.6 658.6 529.3 658.6 525.9 652.8"/>
  <g>
    <path class="cls-34" d="M537.6,460.3c1.3-12.3,22.7-24.4,22.7-45.6s-15.4-34.4-34.4-34.4-34.4,15.4-34.4,34.4,21.4,33.3,22.7,45.6h23.3Z"/>
    <polygon class="cls-62" points="523.1 424.2 513.4 424.2 525.9 402.5 538.4 424.2 528.7 424.2 530.9 428 545 428 525.9 394.9 506.8 428 520.9 428 523.1 424.2"/>
    <path class="cls-62" d="M536.8,429.9l-8.8,17.5c-.5-.6-1.3-.9-2.1-.9s-1.6.3-2.1.9l-8.8-17.5,8.3,18.3c-.2.4-.3.8-.3,1.2v11.2h1v-7.5c0-1,.9-1.9,1.9-1.9s1.9.9,1.9,1.9v7.5h1v-11.2c0-.4,0-.8-.3-1.2l8.3-18.3Z"/>
    <polygon class="cls-38" points="521.2 483.1 523.7 485.1 528.5 485.1 530.9 483.1 521.2 483.1"/>
    <path class="cls-36" d="M538.3,462.1v4.1l-24.4-3.2v-.9h24.4ZM538.3,474.1l-24.4-3.2v-1.3l24.4,1.4v3ZM538.3,476.8l-1.3,1.1-23.1-3v-1.3l24.4,1.4v1.7ZM532.2,482h-12.1l-5.1-4.3,20.9,1.2-3.7,3.1ZM538.3,470.1l-24.4-3.2v-1.3l24.4,1.4v3Z"/>
    <path class="cls-52" d="M524.4,485.1l-1.8-2.1h1.4l1.3,2.1h-.9ZM519.7,463.7l-3.1-.4v-1.2h3.1v1.7ZM519.7,475.7l-3.1-.4v-1.4l3.1.2v1.7ZM523.3,482h-1.7l-3.6-4.1,2.8.2,2.5,4ZM519.7,471.7l-3.1-.4v-1.4l3.1.2v1.7ZM519.7,467.7l-3.1-.4v-1.4l3.1.2v1.7Z"/>
    <path class="cls-37" d="M525.4,378.2h1.1l-.6-8.8-.6,8.8ZM515.9,379.5l1.1-.3-2.8-8.4,1.7,8.7ZM507.2,383.3l1-.6-4.9-7.3,3.9,7.9ZM499.7,389.2l.8-.8-6.6-5.8,5.8,6.6ZM494.6,395.9l-7.9-3.9,7.3,4.9.6-1ZM490.8,404.7l-8.7-1.7,8.4,2.8.3-1.1ZM489.4,414.1l-8.8.6,8.8.6v-1.1ZM490.5,423.6l-8.4,2.8,8.7-1.7-.3-1.1ZM494,432.4l-7.3,4.9,7.9-3.9-.6-1ZM493.9,446.7l6.6-5.8-.8-.8-5.8,6.6ZM535.9,379.5l1.7-8.7-2.8,8.4,1.1.3ZM544.7,383.3l3.9-7.9-4.9,7.3,1,.6ZM558,382.6l-6.6,5.8.8.8,5.8-6.6ZM557.8,396.9l7.3-4.9-7.9,3.9.6,1ZM561.3,405.8l8.4-2.8-8.7,1.7.3,1.1ZM562.4,415.2l8.8-.6-8.8-.6v1.1ZM561,424.7l8.7,1.7-8.4-2.8-.3,1.1ZM557.3,433.4l7.9,3.9-7.3-4.9-.6,1ZM551.3,440.9l6.6,5.8-5.8-6.6-.8.8Z"/>
  </g>
  <g>
    <path class="cls-50" d="M287,474.8c.7-6.7,12.3-13.3,12.3-24.7s-8.4-18.7-18.7-18.7-18.7,8.4-18.7,18.7,11.6,18.1,12.3,24.7h12.6Z"/>
    <polygon class="cls-62" points="279.2 455.1 273.9 455.1 280.7 443.4 287.5 455.1 282.2 455.1 283.4 457.2 291 457.2 280.7 439.3 270.3 457.2 278 457.2 279.2 455.1"/>
    <path class="cls-62" d="M286.6,458.3l-4.8,9.5c-.3-.3-.7-.5-1.1-.5s-.8.2-1.1.5l-4.8-9.5,4.5,9.9c0,.2-.1.4-.1.6v6.1h.5v-4.1c0-.6.5-1,1-1s1,.5,1,1v4.1h.5v-6.1c0-.2,0-.4-.1-.6l4.5-9.9Z"/>
    <polygon class="cls-48" points="278.1 487.1 279.5 488.2 282.1 488.2 283.4 487.1 278.1 487.1"/>
    <path class="cls-49" d="M287.4,475.7v2.2l-13.2-1.7v-.5h13.2ZM287.4,482.2l-13.2-1.7v-.7l13.2.8v1.6ZM287.4,483.7l-.7.6-12.5-1.6v-.7l13.2.8v.9ZM284.1,486.5h-6.6l-2.8-2.3,11.3.7-2,1.7ZM287.4,480.1l-13.2-1.7v-.7l13.2.8v1.6Z"/>
    <path class="cls-52" d="M279.9,488.2l-1-1.1h.8l.7,1.1h-.5ZM277.3,476.6l-1.7-.2v-.7h1.7v.9ZM277.3,483.1l-1.7-.2v-.8h1.7v1ZM279.3,486.5h-.9l-2-2.2h1.5c0,0,1.4,2.2,1.4,2.2ZM277.3,480.9l-1.7-.2v-.8h1.7v1ZM277.3,478.8l-1.7-.2v-.8h1.7v1Z"/>
    <path class="cls-47" d="M280.4,430.1h.6l-.3-4.8-.3,4.8ZM275.2,430.9l.6-.2-1.5-4.5.9,4.7ZM270.5,433l.5-.3-2.7-4,2.1,4.3ZM266.4,436.2l.4-.4-3.6-3.2,3.2,3.6ZM263.7,439.8l-4.3-2.1,4,2.7.3-.5ZM261.6,444.5l-4.7-.9,4.5,1.5.2-.6ZM260.8,449.7l-4.8.3,4.8.3v-.6ZM261.4,454.8l-4.5,1.5,4.7-.9-.2-.6ZM263.4,459.6l-4,2.7,4.3-2.1-.3-.5ZM263.3,467.4l3.6-3.2-.4-.4-3.2,3.6ZM286.1,430.9l.9-4.7-1.5,4.5.6.2ZM290.9,433l2.1-4.3-2.7,4,.5.3ZM298.1,432.6l-3.6,3.2.4.4,3.2-3.6ZM298,440.3l4-2.7-4.3,2.1.3.5ZM299.9,445.1l4.5-1.5-4.7.9.2.6ZM300.5,450.3l4.8-.3-4.8-.3v.6ZM299.7,455.4l4.7.9-4.5-1.5-.2.6ZM297.7,460.1l4.3,2.1-4-2.7-.3.5ZM294.5,464.2l3.6,3.2-3.2-3.6-.4.4Z"/>
  </g>
  <rect class="cls-61" x="164.7" y="729.5" width=".5" height="112.4"/>
  <polygon class="cls-51" points="165 816.3 161.6 822.1 168.3 822.1 165 816.3"/>
  <g>
    <path class="cls-45" d="M171.3,716.2c.7-6.7,12.3-13.3,12.3-24.7s-8.4-18.7-18.7-18.7-18.7,8.4-18.7,18.7,11.6,18.1,12.3,24.7h12.6Z"/>
    <polygon class="cls-62" points="163.4 696.6 158.1 696.6 165 684.8 171.8 696.6 166.5 696.6 167.7 698.6 175.3 698.6 165 680.7 154.6 698.6 162.2 698.6 163.4 696.6"/>
    <path class="cls-62" d="M170.9,699.7l-4.8,9.5c-.3-.3-.7-.5-1.1-.5s-.8.2-1.1.5l-4.8-9.5,4.5,9.9c0,.2-.1.4-.1.6v6.1h.5v-4.1c0-.6.5-1,1-1s1,.5,1,1v4.1h.5v-6.1c0-.2,0-.4-.1-.6l4.5-9.9Z"/>
    <polygon class="cls-46" points="162.4 728.6 163.7 729.7 166.3 729.7 167.7 728.6 162.4 728.6"/>
    <path class="cls-43" d="M171.7,717.1v2.2l-13.2-1.7v-.5h13.2ZM171.7,723.7l-13.2-1.7v-.7l13.2.8v1.6ZM171.7,725.1l-.7.6-12.5-1.6v-.7l13.2.8v.9ZM168.3,728h-6.6l-2.8-2.3,11.3.7-2,1.7ZM171.7,721.5l-13.2-1.7v-.7l13.2.8v1.6Z"/>
    <path class="cls-52" d="M164.1,729.7l-1-1.1h.8l.7,1.1h-.5ZM161.6,718l-1.7-.2v-.7h1.7v.9ZM161.6,724.5l-1.7-.2v-.8h1.7v1ZM163.5,728h-.9l-2-2.2h1.5c0,0,1.4,2.2,1.4,2.2ZM161.6,722.4l-1.7-.2v-.8h1.7v1ZM161.6,720.2l-1.7-.2v-.8h1.7v1Z"/>
    <path class="cls-44" d="M164.6,671.6h.6l-.3-4.8-.3,4.8ZM159.5,672.3l.6-.2-1.5-4.5.9,4.7ZM154.8,674.4l.5-.3-2.7-4,2.1,4.3ZM150.7,677.6l.4-.4-3.6-3.2,3.2,3.6ZM147.9,681.2l-4.3-2.1,4,2.7.3-.5ZM145.9,686l-4.7-.9,4.5,1.5.2-.6ZM145.1,691.1l-4.8.3,4.8.3v-.6ZM145.7,696.2l-4.5,1.5,4.7-.9-.2-.6ZM147.6,701l-4,2.7,4.3-2.1-.3-.5ZM147.5,708.8l3.6-3.2-.4-.4-3.2,3.6ZM170.4,672.3l.9-4.7-1.5,4.5.6.2ZM175.1,674.4l2.1-4.3-2.7,4,.5.3ZM182.4,674l-3.6,3.2.4.4,3.2-3.6ZM182.3,681.7l4-2.7-4.3,2.1.3.5ZM184.2,686.6l4.5-1.5-4.7.9.2.6ZM184.8,691.7l4.8-.3-4.8-.3v.6ZM184,696.8l4.7.9-4.5-1.5-.2.6ZM182,701.6l4.3,2.1-4-2.7-.3.5ZM178.8,705.6l3.6,3.2-3.2-3.6-.4.4Z"/>
  </g>
</svg>