<?xml version="1.0" encoding="UTF-8"?><svg id="Layer_2" xmlns="http://www.w3.org/2000/svg" xmlns:xlink="http://www.w3.org/1999/xlink" viewBox="0 0 310.52 49.85"><defs><style>.cls-1{fill:url(#linear-gradient);}.cls-2{fill:#fff;}.cls-3{fill:url(#linear-gradient-2);}</style><linearGradient id="linear-gradient" x1="81.55" y1="29.4" x2="13.16" y2="29.4" gradientUnits="userSpaceOnUse"><stop offset="0" stop-color="#2baae2"/><stop offset=".01" stop-color="#2da7e1"/><stop offset=".22" stop-color="#5488dd"/><stop offset=".43" stop-color="#736fda"/><stop offset=".63" stop-color="#895dd7"/><stop offset=".82" stop-color="#9652d6"/><stop offset="1" stop-color="#9b4fd6"/></linearGradient><linearGradient id="linear-gradient-2" x1="266.72" y1="29.42" x2="308.16" y2="29.42" gradientUnits="userSpaceOnUse"><stop offset="0" stop-color="#2baae2"/><stop offset=".32" stop-color="#5a83dc"/><stop offset=".61" stop-color="#7d66d9"/><stop offset=".85" stop-color="#9355d6"/><stop offset="1" stop-color="#9b4fd6"/></linearGradient></defs><g id="Layer_1-2"><g><path class="cls-2" d="m64.5,23.19l6.75-.81h0s6.55-11.42,6.55-11.42l22.36,38.9h6.29L77.8,0l-13.3,23.19ZM152.03,2.23h-31.67v47.63h5.45V7.68h26.22c7.37,0,12.72,3.72,12.72,8.84s-5.35,8.84-12.72,8.84h-18.65l-3,5.2h-.04v.26h21.7c10.53,0,18.17-6.01,18.17-14.29s-7.64-14.29-18.17-14.29ZM0,49.85h5.45V7.68h36.35V2.23H0v47.63Zm49.2,0h6.29l8.27-14.41-5.88-.71-8.67,15.11Zm240.94-15.12l-5.9.71,8.27,14.41h6.31l-8.68-15.12Zm-115.83,15.12h6.25l22.33-38.92,19.35,33.44h-32.29l-3.13,5.45h44.88L202.87.02l-28.56,49.84Zm67.28,0h6.28l22.32-38.9,6.55,11.43,6.76.81-13.32-23.19-28.6,49.85Z"/><polygon class="cls-1" points="13.07 29.36 83.34 31.56 80.86 27.24 13.07 29.36"/><polygon class="cls-3" points="267.05 27.31 264.64 31.52 310.52 29.36 267.05 27.31"/></g></g></svg>