<?xml version="1.0" encoding="UTF-8"?><svg id="Layer_2" xmlns="http://www.w3.org/2000/svg" xmlns:xlink="http://www.w3.org/1999/xlink" viewBox="0 0 310.52 198.81"><defs><style>.cls-1{fill:url(#linear-gradient);}.cls-2{fill:#fff;}.cls-3{fill:url(#linear-gradient-3);}.cls-4{fill:url(#linear-gradient-2);}</style><linearGradient id="linear-gradient" x1="81.55" y1="178.35" x2="13.16" y2="178.35" gradientUnits="userSpaceOnUse"><stop offset="0" stop-color="#2baae2"/><stop offset=".01" stop-color="#2da7e1"/><stop offset=".22" stop-color="#5488dd"/><stop offset=".43" stop-color="#736fda"/><stop offset=".63" stop-color="#895dd7"/><stop offset=".82" stop-color="#9652d6"/><stop offset="1" stop-color="#9b4fd6"/></linearGradient><linearGradient id="linear-gradient-2" x1="266.72" y1="178.37" x2="308.16" y2="178.37" gradientUnits="userSpaceOnUse"><stop offset="0" stop-color="#2baae2"/><stop offset=".32" stop-color="#5a83dc"/><stop offset=".61" stop-color="#7d66d9"/><stop offset=".85" stop-color="#9355d6"/><stop offset="1" stop-color="#9b4fd6"/></linearGradient><linearGradient id="linear-gradient-3" x1="134.32" y1="90.76" x2="203.82" y2="29.78" gradientUnits="userSpaceOnUse"><stop offset="0" stop-color="#2baae2"/><stop offset=".18" stop-color="#4197df"/><stop offset=".74" stop-color="#8163d8"/><stop offset="1" stop-color="#9b4fd6"/></linearGradient></defs><g id="Layer_1-2"><g><g><path class="cls-2" d="m64.5,172.14l6.75-.81h0s6.55-11.42,6.55-11.42l22.36,38.9h6.29l-28.65-49.85-13.3,23.19Zm87.54-20.96h-31.67v47.63h5.45v-42.18h26.22c7.37,0,12.72,3.72,12.72,8.84s-5.35,8.84-12.72,8.84h-18.65l-3,5.2h-.04v.26h21.7c10.53,0,18.17-6.01,18.17-14.29s-7.64-14.29-18.17-14.29ZM0,198.81h5.45v-42.18h36.35v-5.45H0v47.63Zm49.2,0h6.29l8.27-14.41-5.88-.71-8.67,15.11Zm240.94-15.12l-5.9.71,8.27,14.41h6.31l-8.68-15.12Zm-115.83,15.12h6.25l22.33-38.92,19.35,33.44h-32.29l-3.13,5.45h44.88l-28.83-49.81-28.56,49.84Zm67.28,0h6.28l22.32-38.9,6.55,11.43,6.76.81-13.32-23.19-28.6,49.85Z"/><polygon class="cls-1" points="13.07 178.31 83.34 180.51 80.86 176.19 13.07 178.31"/><polygon class="cls-4" points="267.05 176.27 264.64 180.47 310.52 178.31 267.05 176.27"/></g><g><polygon class="cls-3" points="208.91 41.14 201.9 29.4 123.95 84.02 208.91 41.14"/><path class="cls-2" d="m185.3,62.56l-59.61,24.48,56.51-12.57,11.72,20.31h-89.5l44.75-77.51,16.47,28.76,6.84-5.64L149.18,0l-59.7,103.41h119.41l-23.58-40.85Z"/></g></g></g></svg>