<svg id="Слой_1" data-name="Слой 1" xmlns="http://www.w3.org/2000/svg" xmlns:xlink="http://www.w3.org/1999/xlink" viewBox="0 0 368.19 368.19"><defs><style>.cls-1{fill:#fff;}.cls-2{fill:url(#Безымянный_градиент_6);}</style><linearGradient id="Безымянный_градиент_6" x1="-153.69" y1="550.56" x2="425.8" y2="-77.76" gradientUnits="userSpaceOnUse"><stop offset="0" stop-color="#2baae2"/><stop offset="0.45" stop-color="#4496df"/><stop offset="1" stop-color="#9b4fd6"/></linearGradient></defs><title>Иконки белые</title><polygon class="cls-1" points="242.75 64.5 274.41 32.84 102.09 32.84 133.75 64.5 242.75 64.5"/><polygon class="cls-1" points="307.41 124.99 307.41 234.09 339.07 265.75 339.07 93.33 307.41 124.99"/><polygon class="cls-1" points="123.66 312.81 92 344.47 283.68 344.47 252.02 312.81 123.66 312.81"/><polygon class="cls-1" points="27.44 274.1 59.1 242.44 59.1 118.26 27.44 86.6 27.44 274.1"/><polygon class="cls-2" points="336.07 277.23 310.41 251.57 240.42 181.57 310.41 111.58 336.07 85.92 363.15 58.84 309.35 5.04 278.56 35.84 252.9 61.5 186.62 127.78 120.34 61.5 94.68 35.84 58.84 0 5.04 53.8 30.44 79.2 56.1 104.86 132.82 181.57 56.1 258.29 30.44 283.95 0 314.39 53.8 368.19 80.52 341.47 106.18 315.81 186.62 235.38 267.05 315.81 292.71 341.47 314.39 363.15 336.07 341.47 368.19 309.35 336.07 277.23"/></svg>