<svg width="512" height="512" viewBox="0 0 100 100" fill="none" xmlns="http://www.w3.org/2000/svg">
<path fill-rule="evenodd" clip-rule="evenodd" d="M50 94.2857C74.4583 94.2857 94.2857 74.4583 94.2857 50C94.2857 25.5417 74.4583 5.71429 50 5.71429C25.5417 5.71429 5.71429 25.5417 5.71429 50C5.71429 74.4583 25.5417 94.2857 50 94.2857ZM50 100C77.6142 100 100 77.6142 100 50C100 22.3858 77.6142 0 50 0C22.3858 0 0 22.3858 0 50C0 77.6142 22.3858 100 50 100Z" fill="url(#paint0_linear_621_1298)"/>
<path d="M62.858 77.143H39.4964V74.3809C40.1371 74.3304 40.7655 74.2674 41.3816 74.1917C41.9976 74.116 42.5275 73.9899 42.971 73.8133C43.7596 73.5106 44.3141 73.0818 44.6345 72.5269C44.9548 71.9467 45.115 71.19 45.115 70.2567V48.2356C45.115 47.3528 44.9178 46.5834 44.5236 45.9276C44.1293 45.2465 43.6364 44.7042 43.045 44.3006C42.6014 43.9979 41.9237 43.7078 41.0119 43.4303C40.1248 43.1529 39.3116 42.9763 38.5723 42.9006V40.1385L56.6849 39.1548L57.2394 39.7223V69.7648C57.2394 70.6476 57.4242 71.4044 57.7938 72.035C58.1635 72.6404 58.6933 73.0944 59.3833 73.3971C59.8762 73.6241 60.4183 73.8259 61.0098 74.0025C61.6012 74.1791 62.2173 74.3052 62.858 74.3809V77.143ZM57.4612 25.5335C57.4612 27.4506 56.7342 29.0902 55.2802 30.4523C53.851 31.7892 52.1506 32.4577 50.1791 32.4577C48.1831 32.4577 46.458 31.7892 45.0041 30.4523C43.5748 29.0902 42.8602 27.4506 42.8602 25.5335C42.8602 23.6164 43.5748 21.9768 45.0041 20.6147C46.458 19.2526 48.1831 18.5715 50.1791 18.5715C52.1752 18.5715 53.8879 19.2526 55.3172 20.6147C56.7465 21.9768 57.4612 23.6164 57.4612 25.5335Z" fill="white"/>
<defs>
<linearGradient id="paint0_linear_621_1298" x1="-7.88413" y1="99.9998" x2="66.4179" y2="-12.0851" gradientUnits="userSpaceOnUse">
<stop stop-color="#2BAAE2"/>
<stop offset="0.453125" stop-color="#4496DF"/>
<stop offset="1" stop-color="#9B4FD6"/>
</linearGradient>
</defs>
</svg>
