<svg width="100" height="100" viewBox="0 0 100 100" fill="none" xmlns="http://www.w3.org/2000/svg">
<path d="M50 21.8915C41.1155 21.8915 33.9065 29.1005 33.9065 37.985C33.9065 46.8695 41.1155 54.0785 50 54.0785C58.8845 54.0785 66.0935 46.8695 66.0935 37.985C66.0935 29.1005 58.8845 21.8915 50 21.8915ZM50 0C22.3986 0 0 22.3765 0 50C0 77.6235 22.3765 100 50 100C77.6234 100 100 77.6235 100 50C100 22.3765 77.6014 0 50 0ZM50 85.9347C48.1261 85.9347 26.0803 62.985 26.0803 37.985C26.0803 24.7795 36.7945 14.0653 50 14.0653C63.2055 14.0653 73.9198 24.7795 73.9198 37.985C73.9198 62.963 51.8739 85.9347 50 85.9347Z" fill="white"/>
</svg>
