<svg width="512" height="512" viewBox="0 0 100 100" fill="none" xmlns="http://www.w3.org/2000/svg">
<path d="M87.7055 23.1535C87.7055 30.9816 81.3549 37.3323 73.5268 37.3323C65.6987 37.3323 59.348 30.9816 59.348 23.1535C59.348 15.3254 65.6987 8.97474 73.5268 8.97474C81.3549 8.97474 87.7055 15.3254 87.7055 23.1535ZM96.7023 23.1535C96.7023 10.386 86.3163 0 73.5268 0H27.1535C14.386 0 4 10.386 4 23.1535C4 35.921 14.386 46.307 27.1535 46.307H73.5268C86.2943 46.307 96.6803 35.921 96.6803 23.1535H96.7023ZM73.5488 4.10148C84.0671 4.10148 92.6008 12.6573 92.6008 23.1535C92.6008 33.6498 84.0451 42.2055 73.5488 42.2055H27.1756C16.6573 42.2055 8.12352 33.6498 8.12352 23.1535C8.12352 12.6573 16.6793 4.10148 27.1756 4.10148H73.5488Z" fill="url(#paint0_linear_621_1120)"/>
<path d="M96.7027 76.8469C96.7027 64.0794 86.3167 53.6934 73.5492 53.6934H27.176C14.4085 53.6934 4.02246 64.0794 4.02246 76.8469C4.02246 89.6144 14.4085 100 27.176 100H73.5492C86.3167 100 96.7027 89.6144 96.7027 76.8469ZM43.8023 76.8469C43.8023 85.5129 36.7902 92.5251 28.1241 92.5251C19.4581 92.5251 12.4459 85.5129 12.4459 76.8469C12.4459 68.1808 19.4581 61.1686 28.1241 61.1686C36.7902 61.1686 43.8023 68.1808 43.8023 76.8469Z" fill="white"/>
<defs>
<linearGradient id="paint0_linear_621_1120" x1="-3.30878" y1="46.3069" x2="18.9865" y2="-21.0222" gradientUnits="userSpaceOnUse">
<stop stop-color="#2BAAE2"/>
<stop offset="0.453125" stop-color="#4496DF"/>
<stop offset="1" stop-color="#9B4FD6"/>
</linearGradient>
</defs>
</svg>
