<svg width="512" height="512" viewBox="0 0 100 100" fill="none" xmlns="http://www.w3.org/2000/svg">
<path d="M16.0935 96.8038C8.99472 96.8038 3.21876 91.0277 3.21876 83.9289C3.21876 83.0471 2.49115 82.3196 1.60931 82.3196C0.727473 82.3196 0 83.0471 0 83.9289C0 92.7914 7.20911 100 16.0716 100C16.9534 100 17.6809 99.2729 17.6809 98.3911C17.6809 97.5092 16.9534 96.7817 16.0716 96.7817L16.0935 96.8038ZM16.0935 90.8955C12.2575 90.8955 9.12706 87.7649 9.12706 83.9289C9.12706 83.0471 8.39958 82.3196 7.51775 82.3196C6.63591 82.3196 5.9083 83.0471 5.9083 83.9289C5.9083 89.5506 10.4718 94.1142 16.0935 94.1142C16.9754 94.1142 17.703 93.3867 17.703 92.5048C17.703 91.623 16.9754 90.8955 16.0935 90.8955Z" fill="url(#paint0_linear_621_381)"/>
<path d="M90.1459 67.1961L83.7525 60.8027L78.4836 66.0717L84.8769 72.4651L90.1459 67.1961ZM66.9314 59.0611L61.6625 64.3301L68.6731 71.3407L73.9421 66.0717L66.9314 59.0611ZM69.2022 56.7904L76.2128 63.801L81.4818 58.532L74.4712 51.5214L69.2022 56.7904ZM92.4165 69.4668L87.1477 74.7358L94.7315 82.3196L100 77.0506L92.4165 69.4668ZM76.2349 68.3425L70.9659 73.6114L77.3592 80.0048L82.6281 74.7358L76.2349 68.3425ZM79.6299 82.2535L87.2137 89.8373L92.4827 84.5683L84.8989 76.9845L79.6299 82.2535ZM33.9508 21.4948L39.2198 16.2258L32.8264 9.83251L27.5574 15.1015L33.9508 21.4948ZM20.0398 22.6412L26.433 29.0345L31.702 23.7656L25.3086 17.3722L20.0398 22.6412ZM30.5556 7.58381L22.9718 0L17.7029 5.26898L25.2867 12.8528L30.5556 7.58381ZM40.9614 33.0689L33.9508 26.0583L28.6817 31.3273L35.6923 38.3379L40.9614 33.0689ZM43.232 30.7982L48.501 25.5292L41.4904 18.5186L36.2214 23.7876L43.232 30.7982ZM23.0159 15.1235L15.4321 7.53973L10.1631 12.8087L17.7469 20.3925L23.0159 15.1235ZM37.5883 62.5664C29.5856 54.5858 21.5169 50.4632 17.0195 50.4632C15.7849 50.4632 14.8148 50.7718 14.1975 51.3891C11.6402 53.9465 14.396 62.3019 22.09 71.2305L26.5213 66.7992C27.4252 65.8954 28.6376 65.3883 29.9163 65.3883C30.7761 65.3883 31.6138 65.6308 32.3413 66.0717C31.9665 66.0938 31.6139 66.2481 31.3493 66.5127L18.0556 79.8064C16.799 79.3875 15.366 79.652 14.3519 80.6441C12.9409 82.055 12.9409 84.3699 14.3519 85.7808C15.7628 87.1917 18.0777 87.1917 19.4886 85.7808C20.5027 84.7667 20.7452 83.3337 20.3264 82.0771L33.62 68.7834C33.9066 68.4968 34.0389 68.1441 34.061 67.7693C35.1412 69.5991 34.8987 72.0241 33.3334 73.5894L28.9021 78.0206C32.6279 81.2393 36.486 83.7746 40.0134 85.2958C44.0919 87.0595 47.3546 87.302 48.7435 85.9131C50.1324 84.5242 49.912 81.2614 48.1263 77.1829C46.0981 72.5091 42.3503 67.3283 37.5663 62.5444L37.5883 62.5664ZM47.1121 68.9598L48.7876 67.2843C49.6474 66.4245 48.2144 61.8169 43.2541 56.8786C38.3158 51.9403 33.7083 50.5073 32.8485 51.3671L31.195 53.0205C34.0389 55.0047 36.971 57.4297 39.837 60.2957C42.6368 63.0955 45.0839 66.0276 47.1121 68.9598ZM37.7647 46.6272C35.4719 45.6351 33.5319 45.4367 32.8485 46.1201C32.4957 46.4729 32.3854 47.2004 32.4956 48.1263C35.9789 47.3106 41.3141 50.3971 45.5469 54.6078C49.7577 58.8407 52.8442 64.1758 52.0285 67.659C52.9544 67.7693 53.6819 67.659 54.0346 67.3063C55.4455 65.8954 53.3953 59.7004 46.9138 53.2189C43.9155 50.2207 40.6747 47.8838 37.7647 46.6051V46.6272ZM74.1184 26.0363C71.1202 23.038 67.8795 20.7012 64.9694 19.4225C62.6766 18.4304 60.7365 18.232 60.0531 18.9154L36.2214 42.7471C37.1253 42.9455 38.0513 43.2321 39.0654 43.673C42.3282 45.106 45.9437 47.6854 49.2065 50.9482C53.1968 54.9385 56.5038 59.8989 57.4077 63.9553L81.2613 40.1016C82.6722 38.6907 80.6 32.4957 74.1405 26.0142L74.1184 26.0363ZM81.3496 29.7841L84.3036 29.3211C84.3477 28.9023 84.2595 28.0865 83.7304 26.874C82.9147 24.9781 81.3054 22.7735 79.3433 20.8114C77.3812 18.8493 75.1766 17.2399 73.2807 16.4242C72.0681 15.8951 71.2525 15.807 70.8336 15.851L70.3706 18.8272C72.3988 20.1941 74.4492 21.8475 76.3892 23.7876C78.2411 25.6394 79.9607 27.7118 81.3496 29.8061V29.7841Z" fill="white"/>
<defs>
<linearGradient id="paint0_linear_621_381" x1="-1.39573" y1="100" x2="11.7351" y2="80.1677" gradientUnits="userSpaceOnUse">
<stop stop-color="#2BAAE2"/>
<stop offset="0.453125" stop-color="#4496DF"/>
<stop offset="1" stop-color="#9B4FD6"/>
</linearGradient>
</defs>
</svg>
