<svg width="512" height="512" viewBox="0 0 100 100" fill="none" xmlns="http://www.w3.org/2000/svg">
<path d="M65.9822 16.6028C78.1922 16.6028 87.3158 12.21 87.3158 8.31269C87.3158 4.41542 78.1922 0 65.9822 0C53.7722 0 44.6711 4.39289 44.6711 8.31269C44.6711 12.2325 53.7948 16.6028 65.9822 16.6028ZM44.6711 15.3413V18.0671C53.2992 20.3199 59.0212 24.6227 59.5393 29.804C61.6344 30.0743 63.7745 30.2546 65.9822 30.2546C78.1922 30.2546 87.3158 25.8617 87.3158 21.9419V15.3188C82.8329 18.6529 75.1059 20.7705 65.9822 20.7705C56.8585 20.7705 49.1541 18.6529 44.6711 15.3188V15.3413ZM59.6294 34.0392V36.6975C62.6256 36.4947 66.1399 36.3596 70.24 36.3596C77.4263 36.3596 82.7653 36.72 86.7752 37.2832C87.1357 36.72 87.3384 36.1568 87.3384 35.5936V28.993C82.8554 32.3271 75.1284 34.4447 66.0048 34.4447C63.8196 34.4447 61.702 34.287 59.6294 34.0167V34.0392ZM42.0128 75.5351C38.4309 76.2559 34.4661 76.6614 30.2084 76.6614C19.2375 76.6614 10.0462 74.0257 5 69.9482V78.3735C5 83.1268 15.3627 88.3983 30.2084 88.3983C36.0205 88.3983 41.1568 87.5874 45.2343 86.3033C43.1167 83.0593 42.0128 79.7928 42.0128 76.4812V75.5351ZM30.2084 20.5452C15.3402 20.5452 5 25.8392 5 30.57C5 35.3008 15.3627 40.5948 30.2084 40.5948C45.0541 40.5948 55.4168 35.3008 55.4168 30.57C55.4168 25.8392 45.0541 20.5452 30.2084 20.5452ZM30.2084 72.4713C34.5788 72.4713 38.5661 71.9982 42.0128 71.2323V59.6081C38.4309 60.3289 34.4661 60.7344 30.2084 60.7344C19.2375 60.7344 10.0462 58.0987 5 54.0212V62.4465C5 67.1998 15.3627 72.4713 30.2084 72.4713ZM30.2084 56.5443C34.5788 56.5443 38.5661 56.0712 42.0128 55.3053V43.7486C42.0128 43.7486 42.0128 43.7036 42.0128 43.681C38.4309 44.4019 34.4661 44.8074 30.2084 44.8074C19.2375 44.8074 10.0462 42.1717 5 38.0942V46.5195C5 51.2728 15.3627 56.5443 30.2084 56.5443Z" fill="white"/>
<path d="M53.8622 49.5382V76.4361C53.8622 81.3472 62.4002 87.8577 70.5552 92.0027C78.958 87.7225 87.2481 81.0994 87.2481 76.4361V49.5382C84.7701 49.0876 79.3184 48.3217 70.5552 48.3217C61.792 48.3217 56.3403 49.0876 53.8622 49.5382ZM70.5552 41.0903C57.3315 41.0903 46.6309 42.8249 46.6309 44.9876V76.4361C46.6309 89.7725 70.5552 100 70.5552 100C70.5552 100 94.4795 89.7725 94.4795 76.4361V44.9876C94.4795 42.8475 83.7564 41.0903 70.5552 41.0903ZM90.1317 76.4361C90.1317 85.267 73.1233 93.9626 71.186 94.9087L70.5326 95.2242L69.8794 94.9087C67.942 93.9401 50.9336 85.2895 50.9336 76.4361V47.1953L52.06 46.9475C54.11 46.4969 59.9897 45.4381 70.5101 45.4381C81.0305 45.4381 86.9102 46.4969 88.9602 46.9475L90.0866 47.1953V76.4361H90.1317Z" fill="url(#paint0_linear_621_92)"/>
<defs>
<linearGradient id="paint0_linear_621_92" x1="42.8584" y1="99.9999" x2="89.4169" y2="42.9536" gradientUnits="userSpaceOnUse">
<stop stop-color="#2BAAE2"/>
<stop offset="0.453125" stop-color="#4496DF"/>
<stop offset="1" stop-color="#9B4FD6"/>
</linearGradient>
</defs>
</svg>
