<svg width="512" height="512" viewBox="0 0 100 100" fill="none" xmlns="http://www.w3.org/2000/svg">
<path fill-rule="evenodd" clip-rule="evenodd" d="M50 94.2857C74.4583 94.2857 94.2857 74.4583 94.2857 50C94.2857 25.5417 74.4583 5.71429 50 5.71429C25.5417 5.71429 5.71429 25.5417 5.71429 50C5.71429 74.4583 25.5417 94.2857 50 94.2857ZM50 100C77.6142 100 100 77.6142 100 50C100 22.3858 77.6142 0 50 0C22.3858 0 0 22.3858 0 50C0 77.6142 22.3858 100 50 100Z" fill="url(#paint0_linear_114_158)"/>
<path d="M62.857 77.143H39.4954V74.3809C40.1361 74.3304 40.7645 74.2674 41.3806 74.1917C41.9967 74.116 42.5265 73.9899 42.9701 73.8133C43.7586 73.5106 44.3131 73.0818 44.6335 72.5269C44.9538 71.9467 45.114 71.19 45.114 70.2567V48.2356C45.114 47.3528 44.9169 46.5834 44.5226 45.9276C44.1283 45.2465 43.6354 44.7042 43.044 44.3006C42.6004 43.9979 41.9227 43.7078 41.011 43.4303C40.1238 43.1529 39.3106 42.9763 38.5713 42.9006V40.1385L56.6839 39.1548L57.2384 39.7223V69.7648C57.2384 70.6476 57.4232 71.4044 57.7929 72.035C58.1625 72.6404 58.6923 73.0944 59.3823 73.3971C59.8752 73.6241 60.4173 73.8259 61.0088 74.0025C61.6002 74.1791 62.2163 74.3052 62.857 74.3809V77.143ZM57.4602 25.5335C57.4602 27.4506 56.7332 29.0902 55.2793 30.4523C53.85 31.7892 52.1496 32.4577 50.1782 32.4577C48.1821 32.4577 46.4571 31.7892 45.0031 30.4523C43.5738 29.0902 42.8592 27.4506 42.8592 25.5335C42.8592 23.6164 43.5738 21.9768 45.0031 20.6147C46.4571 19.2526 48.1821 18.5715 50.1782 18.5715C52.1742 18.5715 53.8869 19.2526 55.3162 20.6147C56.7455 21.9768 57.4602 23.6164 57.4602 25.5335Z" fill="#2C313B"/>
<defs>
<linearGradient id="paint0_linear_114_158" x1="-7.88413" y1="99.9998" x2="66.4179" y2="-12.0851" gradientUnits="userSpaceOnUse">
<stop stop-color="#2BAAE2"/>
<stop offset="0.453125" stop-color="#4496DF"/>
<stop offset="1" stop-color="#9B4FD6"/>
</linearGradient>
</defs>
</svg>
