<svg width="100" height="100" viewBox="0 0 100 100" fill="none" xmlns="http://www.w3.org/2000/svg">
<path d="M50 0C22.3986 0 0 22.3765 0 50C0 77.6235 22.3765 100 50 100C77.6235 100 100 77.6235 100 50C100 22.3765 77.6014 0 50 0ZM23.9198 29.1887H76.0582C76.6534 29.1887 77.2046 29.2989 77.7116 29.5194L51.2125 52.3369C50.5732 52.888 49.3827 52.888 48.7434 52.3369L22.2443 29.5194C22.7513 29.321 23.3245 29.1887 23.8977 29.1887H23.9198ZM19.3342 66.2037V33.7963C19.3342 33.2011 19.4665 32.6499 19.6649 32.1208L40.4101 50L19.5326 67.5044C19.4224 67.0855 19.3342 66.6667 19.3342 66.2257V66.2037ZM76.0803 70.7892H23.9418C23.2143 70.7892 22.5309 70.6129 21.9136 70.3042L43.254 52.425L46.3845 55.1146C47.3986 55.9965 48.7213 56.4374 50.0221 56.4374C51.3228 56.4374 52.6455 55.9965 53.6596 55.1146L56.7901 52.425L78.1305 70.3042C77.5132 70.6129 76.8298 70.7892 76.1023 70.7892H76.0803ZM80.6658 66.2037C80.6658 66.6446 80.5776 67.0855 80.4674 67.4824L59.5899 49.978L80.3351 32.0988C80.5335 32.6279 80.6658 33.179 80.6658 33.7743V66.2037Z" fill="white"/>
</svg>
