<svg width="512" height="512" viewBox="0 0 100 100" fill="none" xmlns="http://www.w3.org/2000/svg">
<path d="M76.3647 32.5467L76.1442 30.055L75.9236 27.5853C75.9236 26.9679 75.6811 26.3946 75.3062 25.9977C74.9314 25.6008 74.4242 25.3582 73.8729 25.3582H72.6601L71.4474 25.4023C70.874 25.4023 70.3889 25.689 70.0361 26.0859C69.6833 26.5049 69.4628 27.0782 69.4628 27.6956L69.3305 30.1873L69.1761 32.657C69.1761 33.0098 67.3239 34.7959 65.9788 35.1487C64.6337 35.5236 62.0538 34.84 61.8553 34.5313L60.422 32.5026L58.9887 30.474C58.6579 29.9447 58.1728 29.5699 57.6657 29.3935C57.1364 29.2391 56.5852 29.2832 56.1001 29.5699L55.0637 30.1873L54.0273 30.8047C53.5422 31.0914 53.2335 31.5545 53.1232 32.1057C53.035 32.6349 53.1232 33.2524 53.4319 33.7816L54.5565 36.0087L55.659 38.2358C55.8355 38.5445 55.0637 41.0583 54.0714 42.0506C53.0791 43.0429 50.5874 43.6824 50.2566 43.5059L48.0075 42.4696L45.7583 41.4332C45.207 41.1245 44.5896 41.0583 44.0604 41.1686C43.5312 41.3009 43.046 41.6096 42.7814 42.0947L42.2081 43.1531L41.6127 44.1895C41.3481 44.6967 41.3261 45.248 41.5025 45.7772C41.6789 46.2843 42.0758 46.7694 42.605 47.0782L44.6778 48.4453L46.7506 49.8125C47.0593 49.9889 47.6546 52.5247 47.3018 53.8698C46.949 55.2149 45.0747 57.0892 44.6998 57.0892L42.2081 57.3097L39.7384 57.5522C39.121 57.5522 38.5697 57.7948 38.1508 58.1697C37.7539 58.5445 37.5113 59.0517 37.5113 59.625V60.8378L37.5554 62.0506C37.5554 62.6019 37.82 63.109 38.239 63.4839C38.6579 63.8367 39.2313 64.0572 39.8487 64.0352L42.3404 64.1895L44.8321 64.3439C45.185 64.3439 46.9711 66.1961 47.3239 67.5633C47.5885 68.5776 47.0152 71.4883 46.6844 71.6868L44.6557 73.12L42.6271 74.5534C42.0979 74.8841 41.723 75.3692 41.5686 75.8985C41.3922 76.4277 41.4363 76.9789 41.723 77.464L42.3404 78.5004L42.9578 79.5368C43.2445 80.0219 43.7296 80.3307 44.2809 80.4189C44.8101 80.5291 45.4055 80.4189 45.9567 80.1101L48.1839 78.9855L50.411 77.883C50.7197 77.7066 53.2335 78.4784 54.2257 79.4707C55.1298 80.3747 55.7472 82.5357 55.7031 83.1311C60.2676 80.4188 64.5896 77.3979 68.2059 74.3328C65.0747 73.2744 62.2743 71.2016 60.4441 68.1366C56.3426 61.2788 58.5697 52.4144 65.4275 48.313C69.3966 45.9536 74.0052 45.7551 78.0185 47.2766V34.2447C77.1585 33.5831 76.4308 32.8113 76.4308 32.5688L76.3647 32.5467ZM41.4804 34.7738L45.4275 37.8169C46.3536 38.6548 47.7208 38.6548 48.4705 37.8169L50.1023 36.0308C50.852 35.1928 50.6976 33.8477 49.7715 33.0098L46.3316 29.3935C45.8024 28.9084 45.3393 27.5412 45.7142 26.8797C46.5742 25.3362 47.2357 23.7044 47.6767 22.0285C47.9413 20.9701 49.3966 19.8014 50.1905 19.7573L55.1298 19.1179C56.3647 19.0517 57.3349 18.1035 57.2908 16.9789L57.1585 14.5754C57.1144 13.4508 56.0339 12.6129 54.777 12.6791L49.8156 12.5468C49.6172 12.5468 49.3525 12.4586 49.0659 12.3042C45.0306 12.3042 41.4363 12.4144 38.239 12.5908C39.7605 16.4718 39.1431 21.0583 36.1442 24.3659C32.2632 28.6658 25.9126 29.2612 21.282 26.0418V36.3395C21.6789 36.4718 22.0538 36.6041 22.4507 36.7143C23.4871 36.9789 24.6337 38.4343 24.6778 39.2281L25.2952 44.1675C25.3614 45.4244 26.3316 46.3725 27.4341 46.3284L29.8377 46.1961C30.9622 46.13 31.8222 45.0715 31.7561 43.8367L31.8884 38.8532C31.8443 38.1476 32.5499 36.8246 33.3217 36.6041C35.0637 36.1189 36.7616 35.3913 38.3492 34.4211C39.1651 33.9139 40.863 34.2446 41.4363 34.7738H41.4804Z" fill="url(#paint0_linear_106_45)"/>
<path d="M49.6395 0C27.1918 0 9 2.95477 9 6.59314V60C9 82.6461 49.6395 100 49.6395 100C49.6395 100 90.2789 82.6461 90.2789 60V6.59314C90.2789 2.95477 72.0871 0 49.6395 0ZM82.8919 60C82.8919 74.9724 54.0276 89.7244 50.742 91.3782L49.6395 91.9294L48.5369 91.4002C45.2514 89.7685 16.3649 75.0827 16.3649 60.022V10.3859L18.2834 9.9669C21.7453 9.19512 31.7343 7.40904 49.5954 7.40904C67.4564 7.40904 77.4454 9.19512 80.9074 9.9669L82.8258 10.3859V60.022L82.8919 60Z" fill="#2C313B"/>
<defs>
<linearGradient id="paint0_linear_106_45" x1="16.8088" y1="83.1309" x2="72.9364" y2="15.3065" gradientUnits="userSpaceOnUse">
<stop stop-color="#2BAAE2"/>
<stop offset="0.453125" stop-color="#4496DF"/>
<stop offset="1" stop-color="#9B4FD6"/>
</linearGradient>
</defs>
</svg>
